<svg width="21" height="21" viewBox="0 0 21 21" fill="none" xmlns="http://www.w3.org/2000/svg">
<path fill-rule="evenodd" clip-rule="evenodd" d="M5.21629 14.0029C5.05629 14.0029 4.89529 13.9519 4.75929 13.8479C4.43129 13.5949 4.36929 13.1239 4.62229 12.7959L7.61529 8.9059C7.73729 8.7469 7.91829 8.6439 8.11629 8.6189C8.31829 8.5929 8.51629 8.6489 8.67329 8.7739L11.4933 10.9889L13.9603 7.8059C14.2143 7.4769 14.6843 7.4159 15.0123 7.6719C15.3403 7.9259 15.4003 8.3969 15.1463 8.7239L12.2163 12.5039C12.0943 12.6619 11.9143 12.7649 11.7163 12.7889C11.5163 12.8159 11.3183 12.7579 11.1603 12.6349L8.34229 10.4209L5.81129 13.7099C5.66329 13.9019 5.44129 14.0029 5.21629 14.0029" fill="black"/>
<mask id="mask0_130_1648" style="mask-type:alpha" maskUnits="userSpaceOnUse" x="15" y="0" width="6" height="6">
<path fill-rule="evenodd" clip-rule="evenodd" d="M15.2953 9.15527e-05H20.6393V5.34499H15.2953V9.15527e-05Z" fill="white"/>
</mask>
<g mask="url(#mask0_130_1648)">
<path fill-rule="evenodd" clip-rule="evenodd" d="M17.9673 1.5C17.3213 1.5 16.7953 2.025 16.7953 2.672C16.7953 3.318 17.3213 3.845 17.9673 3.845C18.6133 3.845 19.1393 3.318 19.1393 2.672C19.1393 2.025 18.6133 1.5 17.9673 1.5M17.9673 5.345C16.4943 5.345 15.2953 4.146 15.2953 2.672C15.2953 1.198 16.4943 0 17.9673 0C19.4413 0 20.6393 1.198 20.6393 2.672C20.6393 4.146 19.4413 5.345 17.9673 5.345" fill="black"/>
</g>
<mask id="mask1_130_1648" style="mask-type:alpha" maskUnits="userSpaceOnUse" x="0" y="0" width="20" height="21">
<path fill-rule="evenodd" clip-rule="evenodd" d="M0 0.842102H19.8619V20.7031H0V0.842102Z" fill="white"/>
</mask>
<g mask="url(#mask1_130_1648)">
<path fill-rule="evenodd" clip-rule="evenodd" d="M14.2329 20.7031H5.62888C2.26188 20.7031 -0.00012207 18.3381 -0.00012207 14.8181V6.7361C-0.00012207 3.2111 2.26188 0.842102 5.62888 0.842102H12.8969C13.3109 0.842102 13.6469 1.1781 13.6469 1.5921C13.6469 2.0061 13.3109 2.3421 12.8969 2.3421H5.62888C3.12088 2.3421 1.49988 4.0661 1.49988 6.7361V14.8181C1.49988 17.5231 3.08188 19.2031 5.62888 19.2031H14.2329C16.7409 19.2031 18.3619 17.4821 18.3619 14.8181V7.7791C18.3619 7.3651 18.6979 7.0291 19.1119 7.0291C19.5259 7.0291 19.8619 7.3651 19.8619 7.7791V14.8181C19.8619 18.3381 17.5999 20.7031 14.2329 20.7031" fill="black"/>
</g>
</svg>
