<svg width="20" height="20" viewBox="0 0 20 20" fill="none" xmlns="http://www.w3.org/2000/svg">
<mask id="mask0_130_1610" style="mask-type:alpha" maskUnits="userSpaceOnUse" x="0" y="12" width="16" height="8">
<path fill-rule="evenodd" clip-rule="evenodd" d="M0 12.456H15.754V19.7949H0V12.456Z" fill="white"/>
</mask>
<g mask="url(#mask0_130_1610)">
<path fill-rule="evenodd" clip-rule="evenodd" d="M7.877 13.956C3.646 13.956 1.5 14.683 1.5 16.115C1.5 17.561 3.646 18.295 7.877 18.295C12.108 18.295 14.254 17.568 14.254 16.137C14.254 14.689 12.108 13.956 7.877 13.956M7.877 19.795C5.929 19.795 0 19.795 0 16.115C0 12.835 4.495 12.456 7.877 12.456C9.825 12.456 15.754 12.456 15.754 16.137C15.754 19.416 11.259 19.795 7.877 19.795" fill="black"/>
</g>
<path fill-rule="evenodd" clip-rule="evenodd" d="M7.87697 1.5C5.77297 1.5 4.05997 3.213 4.05997 5.318C4.05597 6.337 4.44797 7.292 5.16297 8.013C5.87897 8.733 6.83297 9.132 7.84897 9.136L7.87697 9.886V9.136C9.98197 9.136 11.695 7.423 11.695 5.318C11.695 3.213 9.98197 1.5 7.87697 1.5M7.87697 10.636H7.84597C6.42697 10.631 5.09697 10.074 4.09997 9.07C3.10197 8.065 2.55497 6.731 2.55997 5.315C2.55997 2.386 4.94497 0 7.87697 0C10.81 0 13.195 2.386 13.195 5.318C13.195 8.25 10.81 10.636 7.87697 10.636" fill="black"/>
<path fill-rule="evenodd" clip-rule="evenodd" d="M17.2041 11.4297C16.7901 11.4297 16.4541 11.0937 16.4541 10.6797V6.6687C16.4541 6.2547 16.7901 5.9187 17.2041 5.9187C17.6181 5.9187 17.9541 6.2547 17.9541 6.6687V10.6797C17.9541 11.0937 17.6181 11.4297 17.2041 11.4297" fill="black"/>
<path fill-rule="evenodd" clip-rule="evenodd" d="M19.25 9.4238H15.16C14.746 9.4238 14.41 9.0878 14.41 8.6738C14.41 8.2598 14.746 7.9238 15.16 7.9238H19.25C19.664 7.9238 20 8.2598 20 8.6738C20 9.0878 19.664 9.4238 19.25 9.4238" fill="black"/>
</svg>
