<svg width="32" height="11" viewBox="0 0 32 11" fill="none" xmlns="http://www.w3.org/2000/svg">
<path d="M6.958 9.138H3.066L2.422 11H0.364L3.878 1.214H6.16L9.674 11H7.602L6.958 9.138ZM6.426 7.57L5.012 3.482L3.598 7.57H6.426ZM15.2855 3.132C16.2095 3.132 16.9562 3.426 17.5255 4.014C18.0948 4.59267 18.3795 5.40467 18.3795 6.45V11H16.4195V6.716C16.4195 6.1 16.2655 5.62867 15.9575 5.302C15.6495 4.966 15.2295 4.798 14.6975 4.798C14.1562 4.798 13.7268 4.966 13.4095 5.302C13.1015 5.62867 12.9475 6.1 12.9475 6.716V11H10.9875V3.244H12.9475V4.21C13.2088 3.874 13.5402 3.61267 13.9415 3.426C14.3522 3.23 14.8002 3.132 15.2855 3.132ZM24.5413 3.132C25.4653 3.132 26.212 3.426 26.7813 4.014C27.3507 4.59267 27.6353 5.40467 27.6353 6.45V11H25.6753V6.716C25.6753 6.1 25.5213 5.62867 25.2133 5.302C24.9053 4.966 24.4853 4.798 23.9533 4.798C23.412 4.798 22.9827 4.966 22.6653 5.302C22.3573 5.62867 22.2033 6.1 22.2033 6.716V11H20.2433V3.244H22.2033V4.21C22.4647 3.874 22.796 3.61267 23.1973 3.426C23.608 3.23 24.056 3.132 24.5413 3.132ZM30.4932 2.32C30.1479 2.32 29.8585 2.21267 29.6252 1.998C29.4012 1.774 29.2892 1.49867 29.2892 1.172C29.2892 0.845333 29.4012 0.574666 29.6252 0.359999C29.8585 0.135999 30.1479 0.0239995 30.4932 0.0239995C30.8385 0.0239995 31.1232 0.135999 31.3472 0.359999C31.5805 0.574666 31.6972 0.845333 31.6972 1.172C31.6972 1.49867 31.5805 1.774 31.3472 1.998C31.1232 2.21267 30.8385 2.32 30.4932 2.32ZM31.4592 3.244V11H29.4992V3.244H31.4592Z" fill="black"/>
</svg>
