<svg width="24" height="24" viewBox="0 0 24 24" fill="none" xmlns="http://www.w3.org/2000/svg">
<g id="Iconly/Light-Outline/Arrow - Right Square">
<g id="Arrow - Right Square">
<g id="Fill 1">
<path fill-rule="evenodd" clip-rule="evenodd" d="M7.916 3.5C5.233 3.5 3.5 5.135 3.5 7.665V16.334C3.5 18.864 5.233 20.5 7.916 20.5H16.084C18.767 20.5 20.5 18.864 20.5 16.334V7.665C20.5 5.135 18.767 3.5 16.084 3.5H7.916ZM16.084 22H7.916C4.378 22 2 19.723 2 16.334V7.665C2 4.276 4.378 2 7.916 2H16.084C19.622 2 22 4.276 22 7.665V16.334C22 19.723 19.622 22 16.084 22Z" fill="black"/>
<path d="M7.916 3.25C6.52383 3.25 5.35409 3.67489 4.53033 4.45189C3.7051 5.23028 3.25 6.34069 3.25 7.665H3.75C3.75 6.45931 4.1614 5.48722 4.87342 4.81561C5.58691 4.14261 6.62517 3.75 7.916 3.75V3.25ZM3.25 7.665V16.334H3.75V7.665H3.25ZM3.25 16.334C3.25 17.6583 3.70509 18.7689 4.5303 19.5476C5.35404 20.3248 6.52379 20.75 7.916 20.75V20.25C6.62521 20.25 5.58696 19.8572 4.87345 19.1839C4.16141 18.5121 3.75 17.5397 3.75 16.334H3.25ZM7.916 20.75H16.084V20.25H7.916V20.75ZM16.084 20.75C17.4762 20.75 18.646 20.3248 19.4697 19.5476C20.2949 18.7689 20.75 17.6583 20.75 16.334H20.25C20.25 17.5397 19.8386 18.5121 19.1266 19.1839C18.413 19.8572 17.3748 20.25 16.084 20.25V20.75ZM20.75 16.334V7.665H20.25V16.334H20.75ZM20.75 7.665C20.75 6.34069 20.2949 5.23028 19.4697 4.45189C18.6459 3.67489 17.4762 3.25 16.084 3.25V3.75C17.3748 3.75 18.4131 4.14261 19.1266 4.81561C19.8386 5.48722 20.25 6.45931 20.25 7.665H20.75ZM16.084 3.25H7.916V3.75H16.084V3.25ZM16.084 21.75H7.916V22.25H16.084V21.75ZM7.916 21.75C6.20114 21.75 4.78744 21.199 3.80416 20.2573C2.82183 19.3166 2.25 17.9678 2.25 16.334H1.75C1.75 18.0892 2.36717 19.5734 3.45834 20.6184C4.54856 21.6625 6.09286 22.25 7.916 22.25V21.75ZM2.25 16.334V7.665H1.75V16.334H2.25ZM2.25 7.665C2.25 6.03117 2.82183 4.68271 3.80414 3.7422C4.78741 2.80078 6.20111 2.25 7.916 2.25V1.75C6.09289 1.75 4.54859 2.33722 3.45836 3.38105C2.36717 4.42579 1.75 5.90983 1.75 7.665H2.25ZM7.916 2.25H16.084V1.75H7.916V2.25ZM16.084 2.25C17.7989 2.25 19.2126 2.80078 20.1959 3.7422C21.1782 4.68271 21.75 6.03117 21.75 7.665H22.25C22.25 5.90983 21.6328 4.42579 20.5416 3.38105C19.4514 2.33722 17.9071 1.75 16.084 1.75V2.25ZM21.75 7.665V16.334H22.25V7.665H21.75ZM21.75 16.334C21.75 17.9678 21.1782 19.3166 20.1958 20.2573C19.2126 21.199 17.7989 21.75 16.084 21.75V22.25C17.9071 22.25 19.4514 21.6625 20.5417 20.6184C21.6328 19.5734 22.25 18.0892 22.25 16.334H21.75Z" fill="black"/>
</g>
<g id="Fill 3">
<path fill-rule="evenodd" clip-rule="evenodd" d="M16.0859 12.75H7.91394C7.49994 12.75 7.16394 12.414 7.16394 12C7.16394 11.586 7.49994 11.25 7.91394 11.25H16.0859C16.4999 11.25 16.8359 11.586 16.8359 12C16.8359 12.414 16.4999 12.75 16.0859 12.75Z" fill="black"/>
<path d="M16.0859 12.75H7.91394C7.49994 12.75 7.16394 12.414 7.16394 12C7.16394 11.586 7.49994 11.25 7.91394 11.25H16.0859C16.4999 11.25 16.8359 11.586 16.8359 12C16.8359 12.414 16.4999 12.75 16.0859 12.75" stroke="black" stroke-width="0.5"/>
</g>
<g id="Fill 5">
<path fill-rule="evenodd" clip-rule="evenodd" d="M12.3223 16.498C12.1303 16.498 11.9373 16.425 11.7913 16.277C11.4993 15.983 11.5003 15.509 11.7933 15.217L15.0233 12L11.7933 8.78301C11.5003 8.49101 11.4993 8.01701 11.7913 7.72301C12.0833 7.42901 12.5573 7.42901 12.8513 7.72101L16.6153 11.469C16.7573 11.609 16.8363 11.801 16.8363 12C16.8363 12.199 16.7573 12.391 16.6153 12.531L12.8513 16.279C12.7053 16.425 12.5133 16.498 12.3223 16.498Z" fill="black"/>
<path d="M12.3223 16.498C12.1303 16.498 11.9373 16.425 11.7913 16.277C11.4993 15.983 11.5003 15.509 11.7933 15.217L15.0233 12L11.7933 8.78301C11.5003 8.49101 11.4993 8.01701 11.7913 7.72301C12.0833 7.42901 12.5573 7.42901 12.8513 7.72101L16.6153 11.469C16.7573 11.609 16.8363 11.801 16.8363 12C16.8363 12.199 16.7573 12.391 16.6153 12.531L12.8513 16.279C12.7053 16.425 12.5133 16.498 12.3223 16.498" stroke="black" stroke-width="0.5"/>
</g>
</g>
</g>
</svg>
