<svg width="24" height="23" viewBox="0 0 24 23" fill="none" xmlns="http://www.w3.org/2000/svg">
<path d="M13.5032 3C15.0193 3 16.3426 3.28555 17.4732 3.85666C18.6039 4.41508 19.4711 5.20829 20.0749 6.23628C20.6916 7.25159 21 8.42553 21 9.75812C21 10.8369 20.8073 11.8395 20.4218 12.766C20.0492 13.6924 19.4904 14.4349 18.7452 14.9933C18.0128 15.539 17.1392 15.8119 16.1242 15.8119C15.4433 15.8119 14.8779 15.6786 14.4283 15.4121C13.9914 15.1456 13.6959 14.7712 13.5418 14.2889C13.182 14.7839 12.7195 15.171 12.1542 15.4502C11.5889 15.7167 10.9722 15.8499 10.3041 15.8499C9.35332 15.8499 8.60171 15.5707 8.04925 15.0123C7.50964 14.4412 7.23983 13.667 7.23983 12.6898C7.23983 11.7633 7.43255 10.894 7.81799 10.0817C8.20343 9.25681 8.73662 8.59686 9.41756 8.1019C10.0985 7.60694 10.863 7.35946 11.7109 7.35946C12.7901 7.35946 13.5225 7.7402 13.9079 8.50168L14.0814 7.49272H16.7409L15.8929 12.271C15.8544 12.4994 15.8351 12.7025 15.8351 12.8802C15.8351 13.4386 16.0857 13.7178 16.5867 13.7178C17.2034 13.7178 17.6724 13.3307 17.9936 12.5566C18.3276 11.7697 18.4946 10.8686 18.4946 9.8533C18.4946 8.3938 18.0257 7.25159 17.0878 6.42665C16.1627 5.60172 14.8587 5.18925 13.1756 5.18925C11.7366 5.18925 10.4261 5.53192 9.24411 6.21725C8.07495 6.90258 7.15632 7.84173 6.48822 9.03472C5.82013 10.215 5.48608 11.5159 5.48608 12.9373C5.48608 14.4729 5.93576 15.6659 6.83512 16.5162C7.74732 17.3666 9.01927 17.7917 10.651 17.7917C11.9229 17.7917 13.06 17.5633 14.0621 17.1064L14.5824 19.1814C13.3233 19.7271 11.9101 20 10.3426 20C8.87794 20 7.58672 19.7208 6.46895 19.1624C5.36403 18.604 4.50964 17.8108 3.90578 16.7828C3.30193 15.7548 3 14.5554 3 13.1848C3 11.2684 3.4561 9.53602 4.36831 7.98768C5.28051 6.42665 6.53319 5.20829 8.12634 4.33259C9.73233 3.4442 11.5246 3 13.5032 3ZM11.3833 13.5084C11.743 13.5084 12.0771 13.4005 12.3854 13.1848C12.7066 12.969 12.9572 12.6835 13.137 12.3281C13.3298 11.9601 13.4261 11.5666 13.4261 11.1478C13.4261 10.7163 13.3041 10.3673 13.06 10.1008C12.8158 9.82158 12.4818 9.68197 12.0578 9.68197C11.4925 9.68197 11.0236 9.92311 10.651 10.4054C10.2784 10.8876 10.0921 11.4588 10.0921 12.1187C10.0921 12.5375 10.2013 12.8738 10.4197 13.1277C10.6381 13.3815 10.9593 13.5084 11.3833 13.5084Z" fill="black"/>
</svg>
