<svg width="18" height="21" viewBox="0 0 18 21" fill="none" xmlns="http://www.w3.org/2000/svg">
<mask id="mask0_130_1937" style="mask-type:alpha" maskUnits="userSpaceOnUse" x="0" y="0" width="18" height="21">
<path fill-rule="evenodd" clip-rule="evenodd" d="M0 0H17.0388V20.8467H0V0Z" fill="white"/>
</mask>
<g mask="url(#mask0_130_1937)">
<path fill-rule="evenodd" clip-rule="evenodd" d="M5.34182 1.5C2.79282 1.5 1.49982 2.482 1.49982 4.421V19.145C1.49982 19.239 1.55382 19.29 1.59882 19.316C1.64382 19.344 1.71482 19.364 1.79682 19.318L8.17882 15.738C8.40682 15.611 8.68582 15.61 8.91482 15.739L15.2418 19.313C15.3248 19.361 15.3958 19.339 15.4408 19.312C15.4858 19.285 15.5388 19.234 15.5388 19.14V4.604C15.5388 3.837 15.5388 1.5 11.7008 1.5H5.34182ZM1.69882 20.847C1.40382 20.847 1.10882 20.768 0.840817 20.61C0.313817 20.303 -0.000183105 19.754 -0.000183105 19.145V4.421C-0.000183105 1.611 1.94682 0 5.34182 0H11.7008C15.0928 0 17.0388 1.679 17.0388 4.604V19.14C17.0388 19.75 16.7248 20.299 16.1968 20.606C15.6708 20.914 15.0368 20.92 14.5048 20.62L8.54482 17.253L2.52982 20.627C2.26982 20.773 1.98482 20.847 1.69882 20.847V20.847Z" fill="black"/>
</g>
<path fill-rule="evenodd" clip-rule="evenodd" d="M12.1396 8.22852H4.82159C4.40759 8.22852 4.07159 7.89252 4.07159 7.47852C4.07159 7.06452 4.40759 6.72852 4.82159 6.72852H12.1396C12.5536 6.72852 12.8896 7.06452 12.8896 7.47852C12.8896 7.89252 12.5536 8.22852 12.1396 8.22852" fill="black"/>
</svg>
