<svg width="21" height="20" viewBox="0 0 21 20" fill="none" xmlns="http://www.w3.org/2000/svg">
<path fill-rule="evenodd" clip-rule="evenodd" d="M4.32772 5.3474L4.93072 12.5194C4.97472 13.0714 5.42572 13.4854 5.97672 13.4854H5.98072H16.8917H16.8937C17.4147 13.4854 17.8597 13.0974 17.9337 12.5824L18.8837 6.0234C18.9057 5.8674 18.8667 5.7114 18.7717 5.5854C18.6777 5.4584 18.5397 5.3764 18.3837 5.3544C18.1747 5.3624 9.50172 5.3504 4.32772 5.3474V5.3474ZM5.97472 14.9854C4.65772 14.9854 3.54272 13.9574 3.43572 12.6424L2.51972 1.7484L1.01272 1.4884C0.603716 1.4164 0.330716 1.0294 0.400716 0.620395C0.472716 0.211395 0.867716 -0.0546045 1.26772 0.00939549L3.34772 0.369395C3.68272 0.428395 3.93772 0.706396 3.96672 1.0464L4.20172 3.8474C18.4777 3.8534 18.5237 3.8604 18.5927 3.8684C19.1497 3.9494 19.6397 4.2404 19.9737 4.6884C20.3077 5.1354 20.4477 5.6864 20.3677 6.2384L19.4187 12.7964C19.2397 14.0444 18.1557 14.9854 16.8957 14.9854H16.8907H5.98272H5.97472Z" fill="black"/>
<path fill-rule="evenodd" clip-rule="evenodd" d="M15.2876 9.0437H12.5156C12.1006 9.0437 11.7656 8.7077 11.7656 8.2937C11.7656 7.8797 12.1006 7.5437 12.5156 7.5437H15.2876C15.7016 7.5437 16.0376 7.8797 16.0376 8.2937C16.0376 8.7077 15.7016 9.0437 15.2876 9.0437" fill="black"/>
<path fill-rule="evenodd" clip-rule="evenodd" d="M5.54451 17.7019C5.84551 17.7019 6.08851 17.9449 6.08851 18.2459C6.08851 18.5469 5.84551 18.7909 5.54451 18.7909C5.24251 18.7909 4.99951 18.5469 4.99951 18.2459C4.99951 17.9449 5.24251 17.7019 5.54451 17.7019" fill="black"/>
<mask id="mask0_130_1797" style="mask-type:alpha" maskUnits="userSpaceOnUse" x="4" y="17" width="3" height="2">
<path fill-rule="evenodd" clip-rule="evenodd" d="M4.99902 18.2455C4.99902 18.5475 5.24202 18.7915 5.54502 18.7915V18.7915C5.84602 18.7915 6.08902 18.5475 6.08902 18.2455V18.2455C6.08902 17.9445 5.84602 17.7015 5.54502 17.7015V17.7015C5.24202 17.7015 4.99902 17.9445 4.99902 18.2455V18.2455Z" fill="white"/>
</mask>
<g mask="url(#mask0_130_1797)">
<path fill-rule="evenodd" clip-rule="evenodd" d="M0 23.7905H11.089V12.7015H0V23.7905Z" fill="black"/>
</g>
<path fill-rule="evenodd" clip-rule="evenodd" d="M5.54351 18.0408C5.43051 18.0408 5.33851 18.1328 5.33851 18.2458C5.33851 18.4728 5.74951 18.4728 5.74951 18.2458C5.74951 18.1328 5.65651 18.0408 5.54351 18.0408M5.54351 19.5408C4.82951 19.5408 4.24951 18.9598 4.24951 18.2458C4.24951 17.5318 4.82951 16.9518 5.54351 16.9518C6.25751 16.9518 6.83851 17.5318 6.83851 18.2458C6.83851 18.9598 6.25751 19.5408 5.54351 19.5408" fill="black"/>
<path fill-rule="evenodd" clip-rule="evenodd" d="M16.8248 17.7019C17.1258 17.7019 17.3698 17.9449 17.3698 18.2459C17.3698 18.5469 17.1258 18.7909 16.8248 18.7909C16.5228 18.7909 16.2798 18.5469 16.2798 18.2459C16.2798 17.9449 16.5228 17.7019 16.8248 17.7019" fill="black"/>
<mask id="mask1_130_1797" style="mask-type:alpha" maskUnits="userSpaceOnUse" x="16" y="17" width="2" height="2">
<path fill-rule="evenodd" clip-rule="evenodd" d="M16.28 18.2455C16.28 18.5475 16.523 18.7915 16.825 18.7915V18.7915C17.125 18.7915 17.37 18.5475 17.37 18.2455V18.2455C17.37 17.9445 17.125 17.7015 16.825 17.7015V17.7015C16.523 17.7015 16.28 17.9445 16.28 18.2455V18.2455Z" fill="white"/>
</mask>
<g mask="url(#mask1_130_1797)">
<path fill-rule="evenodd" clip-rule="evenodd" d="M11.28 23.7905H22.37V12.7015H11.28V23.7905Z" fill="black"/>
</g>
<path fill-rule="evenodd" clip-rule="evenodd" d="M16.8238 18.0408C16.7118 18.0408 16.6198 18.1328 16.6198 18.2458C16.6208 18.4748 17.0308 18.4728 17.0298 18.2458C17.0298 18.1328 16.9368 18.0408 16.8238 18.0408M16.8238 19.5408C16.1098 19.5408 15.5298 18.9598 15.5298 18.2458C15.5298 17.5318 16.1098 16.9518 16.8238 16.9518C17.5388 16.9518 18.1198 17.5318 18.1198 18.2458C18.1198 18.9598 17.5388 19.5408 16.8238 19.5408" fill="black"/>
</svg>
