<svg width="22" height="22" viewBox="0 0 22 22" fill="none" xmlns="http://www.w3.org/2000/svg">
<path d="M19.7846 2.21958C20.0775 1.92669 20.5524 1.92669 20.8453 2.21958C21.1115 2.48584 21.1357 2.90251 20.9179 3.19612L20.8453 3.28024L14.8453 9.28024C14.5524 9.57313 14.0775 9.57313 13.7846 9.28024C13.5183 9.01397 13.4941 8.59731 13.712 8.3037L13.7846 8.21958L19.7846 2.21958Z" fill="black"/>
<path d="M13.7846 2.21958C14.0509 1.95331 14.4675 1.92911 14.7612 2.14696L14.8453 2.21958L20.8453 8.21958C21.1382 8.51247 21.1382 8.98735 20.8453 9.28024C20.579 9.54651 20.1623 9.57071 19.8687 9.35286L19.7846 9.28024L13.7846 3.28024C13.4917 2.98735 13.4917 2.51247 13.7846 2.21958Z" fill="black"/>
<path fill-rule="evenodd" clip-rule="evenodd" d="M1.47109 2.82946L1.54364 2.75364C3.47106 0.826047 4.72622 0.31512 6.06544 1.08523C6.45067 1.30676 6.81183 1.61684 7.30291 2.11562L8.80929 3.67764C9.64131 4.58554 9.83046 5.45639 9.55954 6.47626L9.52221 6.61128L9.48078 6.74553L9.27941 7.33635C8.8484 8.66133 9.02834 9.40889 10.5618 10.942C12.1565 12.5363 12.9009 12.6667 14.3281 12.168L14.5825 12.0796L14.89 11.9797L15.0247 11.9423C16.1087 11.6531 17.0244 11.8839 17.9956 12.8544L19.2093 14.0268L19.5666 14.3782C19.9627 14.7821 20.2245 15.1022 20.4179 15.4405C21.1832 16.7793 20.6717 18.0337 18.6887 20.0093L18.5 20.2005C18.204 20.4858 17.9274 20.6903 17.521 20.8832C16.8388 21.2071 16.033 21.3292 15.0966 21.1989C12.7891 20.878 9.86253 19.0574 6.15425 15.3501C5.85239 15.0483 5.56327 14.7523 5.28662 14.4621L4.74985 13.8892C-0.280004 8.42445 -0.723739 5.06749 1.33755 2.96211L1.47109 2.82946ZM6.08879 3.02253C5.76299 2.70134 5.52633 2.50554 5.31769 2.38556C4.85616 2.12017 4.35787 2.23235 3.43567 3.02608L3.1459 3.28495C3.09536 3.33161 3.04366 3.38004 2.99075 3.43029L2.65848 3.75392L2.62854 3.79133L2.40328 4.01764C1.85893 4.57365 1.60108 5.25224 1.82328 6.41928C2.18788 8.3343 3.85679 10.9321 7.21478 14.2893C10.7137 17.7873 13.3795 19.4457 15.3032 19.7132C16.4246 19.8692 16.9966 19.5976 17.5799 19L18.0248 18.5511C18.2334 18.3328 18.4116 18.1349 18.5621 17.9542L18.7674 17.6955C19.2921 16.9967 19.34 16.5774 19.1156 16.1849C19.0302 16.0355 18.906 15.8718 18.7253 15.6717L18.48 15.4126L18.3349 15.2674L16.8036 13.7888C16.2919 13.3169 15.9423 13.25 15.4113 13.3916L15.2581 13.4357L14.6238 13.651C12.7837 14.2453 11.4562 13.9572 9.50131 12.0028C7.47667 9.97866 7.23922 8.62698 7.91759 6.68078L7.96111 6.55572L8.08145 6.19314L8.14061 5.96204C8.24551 5.45907 8.12574 5.10838 7.58507 4.56761C7.5628 4.54535 7.53792 4.52027 7.51085 4.49281L6.08879 3.02253Z" fill="black"/>
</svg>
