<svg width="9" height="9" viewBox="0 0 9 9" fill="none" xmlns="http://www.w3.org/2000/svg">
<mask id="mask0_130_1494" style="mask-type:alpha" maskUnits="userSpaceOnUse" x="0" y="0" width="9" height="9">
<path fill-rule="evenodd" clip-rule="evenodd" d="M0.354004 0.000274658H8.893V8.53309H0.354004V0.000274658Z" fill="white"/>
</mask>
<g mask="url(#mask0_130_1494)">
<path fill-rule="evenodd" clip-rule="evenodd" d="M8.1427 8.53309C7.7657 8.53309 7.4417 8.25009 7.3987 7.86709C7.0197 4.49109 4.3977 1.87109 1.0207 1.49609C0.609702 1.45009 0.312702 1.08009 0.358702 0.668088C0.403702 0.257088 0.770702 -0.0459117 1.1867 0.00608828C5.2647 0.459088 8.4317 3.62209 8.8887 7.69909C8.9347 8.11109 8.6387 8.48209 8.2277 8.52809C8.1997 8.53109 8.1707 8.53309 8.1427 8.53309" fill="black"/>
</g>
<path fill-rule="evenodd" clip-rule="evenodd" d="M4.60257 8.54388C4.25057 8.54388 3.93757 8.29588 3.86757 7.93788C3.57957 6.45788 2.43857 5.31688 0.960567 5.02988C0.553567 4.95088 0.288567 4.55788 0.367567 4.15088C0.446567 3.74388 0.846567 3.47788 1.24657 3.55788C3.32757 3.96188 4.93457 5.56788 5.33957 7.64988C5.41857 8.05788 5.15357 8.45088 4.74757 8.52988C4.69857 8.53888 4.65057 8.54388 4.60257 8.54388" fill="black"/>
</svg>
