<svg width="20" height="18" viewBox="0 0 20 18" fill="none" xmlns="http://www.w3.org/2000/svg">
<path fill-rule="evenodd" clip-rule="evenodd" d="M5.19406 1.83149C5.59601 1.10096 6.03328 0.612615 6.68213 0.35436C7.87114 -0.11842 12.1295 -0.11842 13.3176 0.354454C13.9661 0.61257 14.4035 1.10083 14.8058 1.83121L15.258 2.69836C15.2684 2.71554 15.2779 2.73065 15.2864 2.74365L15.3248 2.79616C15.5308 3.02066 15.8757 3.15629 16.1032 3.15629C18.2553 3.15629 20.0002 4.90088 20.0002 7.05229V12.8473C20.0002 15.5915 17.7745 17.8173 15.0302 17.8173H4.97024C2.22535 17.8173 0.000244141 15.5918 0.000244141 12.8473V7.05229C0.000244141 4.90088 1.74522 3.15629 3.89724 3.15629C4.12402 3.15629 4.46932 3.02046 4.67568 2.79616C4.67981 2.79167 4.68519 2.78498 4.69169 2.77612L4.74312 2.69724L5.19406 1.83149ZM13.4919 2.55487C13.2419 2.10103 13.016 1.84888 12.7629 1.74812L12.6436 1.70845C11.6144 1.41757 8.03465 1.43079 7.2366 1.74812C6.98358 1.84882 6.75793 2.10084 6.50826 2.55459L6.1234 3.29869L6.02868 3.47012C5.9496 3.60165 5.87051 3.71267 5.78019 3.81108C5.27373 4.36158 4.52449 4.65629 3.89724 4.65629L3.73315 4.66182C2.48599 4.74614 1.50024 5.7845 1.50024 7.05229V12.8473C1.50024 14.7634 3.05383 16.3173 4.97024 16.3173H15.0302C16.946 16.3173 18.5002 14.7631 18.5002 12.8473V7.05229C18.5002 5.72938 17.4269 4.65629 16.1032 4.65629L15.9291 4.64901C15.3406 4.60058 14.6795 4.31145 14.2197 3.81041C14.1306 3.71331 14.0519 3.60307 13.9733 3.47266C13.962 3.45395 13.948 3.42932 13.9319 3.40017L13.8158 3.18243L13.4919 2.55487Z" fill="black"/>
<path d="M15.5045 5.5C16.0568 5.5 16.5045 5.94772 16.5045 6.5C16.5045 7.01284 16.1184 7.43551 15.6211 7.49327L15.5045 7.5C14.9432 7.5 14.4955 7.05228 14.4955 6.5C14.4955 5.98716 14.8815 5.56449 15.3789 5.50673L15.5045 5.5Z" fill="black"/>
<path fill-rule="evenodd" clip-rule="evenodd" d="M6.07092 10.128C6.07092 7.95776 7.82971 6.19897 9.99992 6.19897C12.1701 6.19897 13.9289 7.95776 13.9289 10.128C13.9289 12.2982 12.1701 14.057 9.99992 14.057C7.82971 14.057 6.07092 12.2982 6.07092 10.128ZM12.4289 10.128C12.4289 8.78619 11.3417 7.69897 9.99992 7.69897C8.65814 7.69897 7.57092 8.78619 7.57092 10.128C7.57092 11.4698 8.65814 12.557 9.99992 12.557C11.3417 12.557 12.4289 11.4698 12.4289 10.128Z" fill="black"/>
</svg>
