<svg width="19" height="20" viewBox="0 0 19 20" fill="none" xmlns="http://www.w3.org/2000/svg">
<path fill-rule="evenodd" clip-rule="evenodd" d="M9.2466 20C7.8916 20 6.5706 19.985 5.2636 19.958C3.5916 19.925 2.4346 18.841 2.2456 17.129C1.9306 14.289 1.3916 7.595 1.3866 7.528C1.3526 7.115 1.6606 6.753 2.0736 6.72C2.4806 6.709 2.8486 6.995 2.8816 7.407C2.8866 7.475 3.4246 14.146 3.7366 16.964C3.8436 17.937 4.3686 18.439 5.2946 18.458C7.7946 18.511 10.3456 18.514 13.0956 18.464C14.0796 18.445 14.6116 17.953 14.7216 16.957C15.0316 14.163 15.5716 7.475 15.5776 7.407C15.6106 6.995 15.9756 6.707 16.3846 6.72C16.7976 6.754 17.1056 7.115 17.0726 7.528C17.0666 7.596 16.5246 14.307 16.2126 17.122C16.0186 18.869 14.8646 19.932 13.1226 19.964C11.7896 19.987 10.5036 20 9.2466 20" fill="black"/>
<path fill-rule="evenodd" clip-rule="evenodd" d="M17.708 4.98932H0.75C0.336 4.98932 0 4.65332 0 4.23932C0 3.82532 0.336 3.48932 0.75 3.48932H17.708C18.122 3.48932 18.458 3.82532 18.458 4.23932C18.458 4.65332 18.122 4.98932 17.708 4.98932" fill="black"/>
<path fill-rule="evenodd" clip-rule="evenodd" d="M14.4404 4.98931C13.3024 4.98931 12.3144 4.17831 12.0904 3.06231L11.8474 1.84631C11.7964 1.66131 11.5854 1.50031 11.3454 1.50031H7.1124C6.8724 1.50031 6.66139 1.66131 6.60039 1.89231L6.36739 3.06231C6.14439 4.17831 5.1554 4.98931 4.0174 4.98931C3.6034 4.98931 3.2674 4.65331 3.2674 4.23931C3.2674 3.82531 3.6034 3.48931 4.0174 3.48931C4.4434 3.48931 4.8134 3.18531 4.8974 2.76731L5.1404 1.55131C5.3874 0.619305 6.1944 0.000305176 7.1124 0.000305176H11.3454C12.2634 0.000305176 13.0704 0.619305 13.3074 1.50631L13.5614 2.76731C13.6444 3.18531 14.0144 3.48931 14.4404 3.48931C14.8544 3.48931 15.1904 3.82531 15.1904 4.23931C15.1904 4.65331 14.8544 4.98931 14.4404 4.98931" fill="black"/>
</svg>
