<svg width="21" height="21" viewBox="0 0 21 21" fill="none" xmlns="http://www.w3.org/2000/svg">
<mask id="mask0_130_1638" style="mask-type:alpha" maskUnits="userSpaceOnUse" x="0" y="0" width="21" height="21">
<path fill-rule="evenodd" clip-rule="evenodd" d="M0.00012207 0.000213623H20.0029V20.0012H0.00012207V0.000213623Z" fill="white"/>
</mask>
<g mask="url(#mask0_130_1638)">
<path fill-rule="evenodd" clip-rule="evenodd" d="M8.94484 18.0755C9.53484 18.6515 10.4848 18.6445 11.0708 18.0555L11.7928 17.3355C12.3528 16.7765 13.1268 16.4575 13.9158 16.4575H14.9458C15.7798 16.4575 16.4578 15.7795 16.4578 14.9465V13.9175C16.4578 13.1165 16.7678 12.3635 17.3338 11.7965L18.0538 11.0755C18.3468 10.7815 18.5038 10.4005 18.5028 9.99651C18.5018 9.59351 18.3428 9.21451 18.0558 8.92851L17.3348 8.20651C16.7678 7.63551 16.4578 6.88351 16.4578 6.08251V5.05551C16.4578 4.22151 15.7798 3.54351 14.9458 3.54351H13.9178C13.1168 3.54351 12.3638 3.23251 11.7968 2.66951L11.0748 1.94651C10.4738 1.35151 9.51484 1.35451 8.92784 1.94551L8.20884 2.66651C7.63484 3.23351 6.88184 3.54351 6.08384 3.54351H5.05484C4.22184 3.54451 3.54384 4.22251 3.54384 5.05551V6.08051C3.54384 6.88151 3.23284 7.63451 2.66884 8.20251L1.95884 8.91351C1.95184 8.92151 1.94484 8.92751 1.93784 8.93451C1.35084 9.52551 1.35384 10.4845 1.94484 11.0715L2.66684 11.7935C3.23284 12.3615 3.54384 13.1145 3.54384 13.9155V14.9465C3.54384 15.7795 4.22084 16.4575 5.05484 16.4575H6.08184C6.88384 16.4585 7.63684 16.7695 8.20384 17.3345L8.92484 18.0535C8.93084 18.0605 8.93784 18.0675 8.94484 18.0755V18.0755ZM9.99884 20.0015C9.23184 20.0015 8.46484 19.7115 7.87784 19.1295C7.86984 19.1215 7.86184 19.1135 7.85384 19.1045L7.14384 18.3955C6.86084 18.1145 6.48284 17.9585 6.08084 17.9575H5.05484C3.39384 17.9575 2.04384 16.6065 2.04384 14.9465V13.9155C2.04384 13.5135 1.88684 13.1365 1.60484 12.8525L0.885844 12.1345C-0.282156 10.9725 -0.296156 9.08051 0.850844 7.90051C0.859844 7.89151 0.868844 7.88251 0.877844 7.87351L1.60584 7.14351C1.88684 6.86051 2.04384 6.48151 2.04384 6.08051V5.05551C2.04384 3.39551 3.39384 2.04451 5.05384 2.04351H6.08384C6.48484 2.04351 6.86284 1.88651 7.14984 1.60351L7.86484 0.886509C9.03384 -0.290491 10.9448 -0.296491 12.1238 0.875509L12.8548 1.60651C13.1378 1.88751 13.5158 2.04351 13.9178 2.04351H14.9458C16.6068 2.04351 17.9578 3.39451 17.9578 5.05551V6.08251C17.9578 6.48351 18.1138 6.86251 18.3968 7.14751L19.1148 7.86651C19.6838 8.43151 19.9998 9.18651 20.0028 9.99151C20.0058 10.7965 19.6948 11.5535 19.1278 12.1245L18.3948 12.8555C18.1138 13.1385 17.9578 13.5155 17.9578 13.9175V14.9465C17.9578 16.6065 16.6068 17.9575 14.9468 17.9575H13.9158C13.5198 17.9575 13.1328 18.1175 12.8518 18.3965L12.1338 19.1145C11.5468 19.7055 10.7728 20.0015 9.99884 20.0015V20.0015Z" fill="black"/>
</g>
<path fill-rule="evenodd" clip-rule="evenodd" d="M7.43029 13.3215C7.23829 13.3215 7.04629 13.2485 6.90029 13.1015C6.60729 12.8085 6.60729 12.3345 6.90029 12.0415L12.0403 6.90051C12.3333 6.60751 12.8083 6.60751 13.1013 6.90051C13.3943 7.19351 13.3943 7.66851 13.1013 7.96151L7.96029 13.1015C7.81429 13.2485 7.62229 13.3215 7.43029 13.3215" fill="black"/>
<path fill-rule="evenodd" clip-rule="evenodd" d="M12.5034 13.4992C11.9504 13.4992 11.4984 13.0522 11.4984 12.4992C11.4984 11.9462 11.9414 11.4992 12.4944 11.4992H12.5034C13.0564 11.4992 13.5034 11.9462 13.5034 12.4992C13.5034 13.0522 13.0564 13.4992 12.5034 13.4992" fill="black"/>
<path fill-rule="evenodd" clip-rule="evenodd" d="M7.50341 8.49921C6.95041 8.49921 6.49841 8.05221 6.49841 7.49921C6.49841 6.94621 6.94141 6.49921 7.49441 6.49921H7.50341C8.05641 6.49921 8.50341 6.94621 8.50341 7.49921C8.50341 8.05221 8.05641 8.49921 7.50341 8.49921" fill="black"/>
</svg>
