<svg width="21" height="21" viewBox="0 0 21 21" fill="none" xmlns="http://www.w3.org/2000/svg">
<path fill-rule="evenodd" clip-rule="evenodd" d="M9.21139 9.21189L8.16439 12.5589L11.5104 11.5109L12.5584 8.16389L9.21139 9.21189ZM7.02039 14.4519C6.82439 14.4519 6.63239 14.3749 6.48939 14.2329C6.29239 14.0349 6.22039 13.7439 6.30439 13.4789L7.89739 8.38989C7.97039 8.15389 8.15439 7.97089 8.38839 7.89789L13.4774 6.30489C13.7444 6.21989 14.0344 6.29289 14.2324 6.48989C14.4294 6.68789 14.5014 6.97889 14.4174 7.24389L12.8254 12.3329C12.7524 12.5679 12.5674 12.7519 12.3334 12.8249L7.24439 14.4179C7.17039 14.4409 7.09439 14.4519 7.02039 14.4519V14.4519Z" fill="black"/>
<mask id="mask0_130_1466" style="mask-type:alpha" maskUnits="userSpaceOnUse" x="0" y="0" width="21" height="21">
<path fill-rule="evenodd" clip-rule="evenodd" d="M0 0H20.7218V20.7217H0V0Z" fill="white"/>
</mask>
<g mask="url(#mask0_130_1466)">
<path fill-rule="evenodd" clip-rule="evenodd" d="M10.3608 1.5C5.47482 1.5 1.49982 5.476 1.49982 10.361C1.49982 15.247 5.47482 19.222 10.3608 19.222C15.2468 19.222 19.2218 15.247 19.2218 10.361C19.2218 5.476 15.2468 1.5 10.3608 1.5M10.3608 20.722C4.64782 20.722 -0.000183105 16.074 -0.000183105 10.361C-0.000183105 4.648 4.64782 0 10.3608 0C16.0738 0 20.7218 4.648 20.7218 10.361C20.7218 16.074 16.0738 20.722 10.3608 20.722" fill="black"/>
</g>
</svg>
