<svg width="19" height="20" viewBox="0 0 19 20" fill="none" xmlns="http://www.w3.org/2000/svg">
<path fill-rule="evenodd" clip-rule="evenodd" d="M12.7158 14.9737H5.49579C5.08179 14.9737 4.74579 14.6377 4.74579 14.2237C4.74579 13.8097 5.08179 13.4737 5.49579 13.4737H12.7158C13.1298 13.4737 13.4658 13.8097 13.4658 14.2237C13.4658 14.6377 13.1298 14.9737 12.7158 14.9737" fill="black"/>
<path fill-rule="evenodd" clip-rule="evenodd" d="M12.7158 10.7872H5.49579C5.08179 10.7872 4.74579 10.4512 4.74579 10.0372C4.74579 9.6232 5.08179 9.2872 5.49579 9.2872H12.7158C13.1298 9.2872 13.4658 9.6232 13.4658 10.0372C13.4658 10.4512 13.1298 10.7872 12.7158 10.7872" fill="black"/>
<path fill-rule="evenodd" clip-rule="evenodd" d="M8.25048 6.61041H5.49548C5.08148 6.61041 4.74548 6.27441 4.74548 5.86041C4.74548 5.44641 5.08148 5.11041 5.49548 5.11041H8.25048C8.66448 5.11041 9.00048 5.44641 9.00048 5.86041C9.00048 6.27441 8.66448 6.61041 8.25048 6.61041" fill="black"/>
<mask id="mask0_130_1422" style="mask-type:alpha" maskUnits="userSpaceOnUse" x="0" y="0" width="19" height="20">
<path fill-rule="evenodd" clip-rule="evenodd" d="M0 0.000213623H18.1647V19.91H0V0.000213623Z" fill="white"/>
</mask>
<g mask="url(#mask0_130_1422)">
<path fill-rule="evenodd" clip-rule="evenodd" d="M12.9087 1.5L5.21969 1.504C2.89169 1.518 1.49969 2.958 1.49969 5.357V14.553C1.49969 16.968 2.90469 18.41 5.25569 18.41L12.9447 18.407C15.2727 18.393 16.6647 16.951 16.6647 14.553V5.357C16.6647 2.942 15.2607 1.5 12.9087 1.5ZM5.25669 19.91C2.11269 19.91 -0.000305176 17.757 -0.000305176 14.553V5.357C-0.000305176 2.124 2.04669 0.023 5.21469 0.004L12.9077 0H12.9087C16.0527 0 18.1647 2.153 18.1647 5.357V14.553C18.1647 17.785 16.1177 19.887 12.9497 19.907L5.25669 19.91Z" fill="black"/>
</g>
</svg>
