<svg width="20" height="19" viewBox="0 0 20 19" fill="none" xmlns="http://www.w3.org/2000/svg">
<path fill-rule="evenodd" clip-rule="evenodd" d="M10.0011 13.5411C9.5871 13.5411 9.2511 13.2051 9.2511 12.7911V0.750092C9.2511 0.336092 9.5871 9.15527e-05 10.0011 9.15527e-05C10.4151 9.15527e-05 10.7511 0.336092 10.7511 0.750092V12.7911C10.7511 13.2051 10.4151 13.5411 10.0011 13.5411" fill="black"/>
<path fill-rule="evenodd" clip-rule="evenodd" d="M10.0011 13.5411C9.80207 13.5411 9.61007 13.4621 9.47007 13.3201L6.55407 10.3931C6.26207 10.0991 6.26307 9.62409 6.55607 9.33209C6.85007 9.04009 7.32407 9.04009 7.61607 9.33409L10.0011 11.7291L12.3861 9.33409C12.6781 9.04009 13.1521 9.04009 13.4461 9.33209C13.7391 9.62409 13.7401 10.0991 13.4481 10.3931L10.5321 13.3201C10.3921 13.4621 10.2001 13.5411 10.0011 13.5411" fill="black"/>
<mask id="mask0_130_1375" style="mask-type:alpha" maskUnits="userSpaceOnUse" x="0" y="4" width="20" height="15">
<path fill-rule="evenodd" clip-rule="evenodd" d="M0.000244141 4.7326H20V18.4766H0.000244141V4.7326Z" fill="white"/>
</mask>
<g mask="url(#mask0_130_1375)">
<path fill-rule="evenodd" clip-rule="evenodd" d="M15.5752 18.4766H4.43524C1.99024 18.4766 0.000244141 16.4876 0.000244141 14.0416V9.1566C0.000244141 6.7166 1.98524 4.7326 4.42624 4.7326H5.36724C5.78124 4.7326 6.11724 5.0686 6.11724 5.4826C6.11724 5.8966 5.78124 6.2326 5.36724 6.2326H4.42624C2.81224 6.2326 1.50024 7.5436 1.50024 9.1566V14.0416C1.50024 15.6606 2.81624 16.9766 4.43524 16.9766H15.5752C17.1872 16.9766 18.5002 15.6636 18.5002 14.0516V9.1676C18.5002 7.5486 17.1832 6.2326 15.5662 6.2326H14.6342C14.2202 6.2326 13.8842 5.8966 13.8842 5.4826C13.8842 5.0686 14.2202 4.7326 14.6342 4.7326H15.5662C18.0112 4.7326 20.0002 6.7226 20.0002 9.1676V14.0516C20.0002 16.4916 18.0142 18.4766 15.5752 18.4766" fill="black"/>
</g>
</svg>
