<svg width="20" height="20" viewBox="0 0 20 20" fill="none" xmlns="http://www.w3.org/2000/svg">
<mask id="mask0_130_1695" style="mask-type:alpha" maskUnits="userSpaceOnUse" x="0" y="0" width="20" height="20">
<path fill-rule="evenodd" clip-rule="evenodd" d="M0.000366211 0H19.5V19.5007H0.000366211V0Z" fill="white"/>
</mask>
<g mask="url(#mask0_130_1695)">
<path fill-rule="evenodd" clip-rule="evenodd" d="M6.77337 9.59869C6.79137 9.61469 6.80837 9.62969 6.82537 9.64769C7.90437 10.7537 8.49937 12.2187 8.49937 13.7737V17.7577L10.7354 16.5397C10.9114 16.4437 11.0204 16.2557 11.0204 16.0487V13.7617C11.0204 12.2127 11.6094 10.7527 12.6784 9.65269L17.5154 4.50769C17.8284 4.17469 18.0004 3.73769 18.0004 3.27669V2.34069C18.0004 1.87669 17.6344 1.49969 17.1864 1.49969H2.31537C1.86637 1.49969 1.50037 1.87669 1.50037 2.34069V3.27669C1.50037 3.73769 1.67237 4.17469 1.98537 4.50669L6.77337 9.59869ZM8.14637 19.5007C7.94437 19.5007 7.74437 19.4467 7.56237 19.3387C7.21037 19.1287 6.99937 18.7577 6.99937 18.3457V13.7737C6.99937 12.6387 6.57637 11.5697 5.80537 10.7507C5.78237 10.7317 5.75937 10.7107 5.73937 10.6887L0.893366 5.53569C0.317366 4.92369 0.000366211 4.12069 0.000366211 3.27669V2.34069C0.000366211 1.04969 1.03937 -0.000305176 2.31537 -0.000305176H17.1864C18.4614 -0.000305176 19.5004 1.04969 19.5004 2.34069V3.27669C19.5004 4.11969 19.1834 4.92169 18.6094 5.53469L13.7624 10.6887C12.9594 11.5167 12.5204 12.6057 12.5204 13.7617V16.0487C12.5204 16.8047 12.1114 17.4967 11.4534 17.8567L8.69237 19.3607C8.52037 19.4537 8.33337 19.5007 8.14637 19.5007V19.5007Z" fill="black"/>
</g>
</svg>
