<svg width="21" height="21" viewBox="0 0 21 21" fill="none" xmlns="http://www.w3.org/2000/svg">
<mask id="mask0_130_1989" style="mask-type:alpha" maskUnits="userSpaceOnUse" x="0" y="0" width="21" height="21">
<path fill-rule="evenodd" clip-rule="evenodd" d="M0 0H20.6966V20.6689H0V0Z" fill="white"/>
</mask>
<g mask="url(#mask0_130_1989)">
<path fill-rule="evenodd" clip-rule="evenodd" d="M5.64257 1.5C2.73857 1.5 1.49957 2.976 1.49957 6.433V14.232C1.49957 17.416 3.25757 19.169 6.44957 19.169H14.2316C17.4156 19.169 19.1686 17.416 19.1686 14.232V14.229L19.1966 9.264C19.1966 5.865 18.0306 4.54 15.0356 4.54H12.2056C11.2566 4.539 10.3506 4.086 9.78057 3.328L8.86757 2.114C8.58057 1.729 8.12157 1.501 7.64157 1.5H5.64257ZM14.2316 20.669H6.44957C2.47157 20.669 -0.000427246 18.202 -0.000427246 14.232V6.433C-0.000427246 2.164 1.89857 0 5.64257 0H7.64257C8.59357 0.001 9.49957 0.455 10.0676 1.214L10.9786 2.426C11.2676 2.81 11.7266 3.039 12.2066 3.04H15.0356C18.8976 3.04 20.6966 5.019 20.6966 9.268L20.6686 14.235C20.6676 18.203 18.2016 20.669 14.2316 20.669V20.669Z" fill="black"/>
</g>
<path fill-rule="evenodd" clip-rule="evenodd" d="M14.7158 13.7128H5.98077C5.56677 13.7128 5.23077 13.3768 5.23077 12.9628C5.23077 12.5488 5.56677 12.2128 5.98077 12.2128H14.7158C15.1298 12.2128 15.4658 12.5488 15.4658 12.9628C15.4658 13.3768 15.1298 13.7128 14.7158 13.7128" fill="black"/>
</svg>
