<svg width="22" height="22" viewBox="0 0 22 22" fill="none" xmlns="http://www.w3.org/2000/svg">
<path fill-rule="evenodd" clip-rule="evenodd" d="M7.59814 15.5596C7.18414 15.5596 6.84814 15.2236 6.84814 14.8096V11.0646C6.84814 10.6506 7.18414 10.3146 7.59814 10.3146C8.01214 10.3146 8.34814 10.6506 8.34814 11.0646V14.8096C8.34814 15.2236 8.01214 15.5596 7.59814 15.5596" fill="black"/>
<path fill-rule="evenodd" clip-rule="evenodd" d="M9.50887 13.6865H5.68787C5.27387 13.6865 4.93787 13.3505 4.93787 12.9365C4.93787 12.5225 5.27387 12.1865 5.68787 12.1865H9.50887C9.92287 12.1865 10.2589 12.5225 10.2589 12.9365C10.2589 13.3505 9.92287 13.6865 9.50887 13.6865" fill="black"/>
<path fill-rule="evenodd" clip-rule="evenodd" d="M14.1163 11.9287H14.0093C13.5953 11.9287 13.2593 11.5927 13.2593 11.1787C13.2593 10.7647 13.5953 10.4287 14.0093 10.4287H14.1163C14.5303 10.4287 14.8663 10.7647 14.8663 11.1787C14.8663 11.5927 14.5303 11.9287 14.1163 11.9287" fill="black"/>
<path fill-rule="evenodd" clip-rule="evenodd" d="M15.9298 15.5029H15.8228C15.4088 15.5029 15.0728 15.1669 15.0728 14.7529C15.0728 14.3389 15.4088 14.0029 15.8228 14.0029H15.9298C16.3438 14.0029 16.6798 14.3389 16.6798 14.7529C16.6798 15.1669 16.3438 15.5029 15.9298 15.5029" fill="black"/>
<mask id="mask0_130_1544" style="mask-type:alpha" maskUnits="userSpaceOnUse" x="6" y="0" width="7" height="6">
<path fill-rule="evenodd" clip-rule="evenodd" d="M6.0719 0H12.1119V5.5879H6.0719V0Z" fill="white"/>
</mask>
<g mask="url(#mask0_130_1544)">
<path fill-rule="evenodd" clip-rule="evenodd" d="M11.3619 5.58791C10.9479 5.58791 10.6119 5.25191 10.6119 4.83791V4.16291C10.6089 3.43891 9.9949 2.84391 9.2439 2.84091H8.1899C7.0229 2.84091 6.0719 1.90291 6.0719 0.749908C6.0719 0.335908 6.4079 -9.15527e-05 6.8219 -9.15527e-05C7.2369 -9.15527e-05 7.5719 0.335908 7.5719 0.749908C7.5719 1.07591 7.8489 1.34091 8.1899 1.34091H9.2469C10.8199 1.34591 12.1049 2.60991 12.1119 4.15891V4.83791C12.1119 5.25191 11.7759 5.58791 11.3619 5.58791" fill="black"/>
</g>
<mask id="mask1_130_1544" style="mask-type:alpha" maskUnits="userSpaceOnUse" x="0" y="4" width="22" height="18">
<path fill-rule="evenodd" clip-rule="evenodd" d="M0.000244141 4.37326H21.5V21.5H0.000244141V4.37326Z" fill="white"/>
</mask>
<g mask="url(#mask1_130_1544)">
<path fill-rule="evenodd" clip-rule="evenodd" d="M10.7012 5.87301C9.22524 5.87301 7.76724 5.88601 6.33524 5.91001C3.52824 5.91001 1.50024 7.88801 1.50024 10.612V15.262C1.50024 17.985 3.52824 19.963 6.32324 19.963C9.27024 20.012 12.2412 20.012 15.1652 19.963H15.1782C17.9722 19.963 20.0002 17.985 20.0002 15.262V10.612C20.0002 7.88801 17.9722 5.91001 15.1782 5.91001C13.6742 5.88601 12.1792 5.87301 10.7012 5.87301M10.7542 21.5C9.27124 21.5 7.78624 21.487 6.31024 21.463C2.65924 21.463 0.000244141 18.854 0.000244141 15.262V10.612C0.000244141 7.01901 2.65924 4.41001 6.32324 4.41001C9.19224 4.36101 12.1802 4.36101 15.1902 4.41001C18.8412 4.41001 21.5002 7.01901 21.5002 10.612V15.262C21.5002 18.852 18.8452 21.46 15.1842 21.463C13.7162 21.487 12.2362 21.5 10.7542 21.5" fill="black"/>
</g>
</svg>
