<svg width="21" height="22" viewBox="0 0 21 22" fill="none" xmlns="http://www.w3.org/2000/svg">
<path fill-rule="evenodd" clip-rule="evenodd" d="M6.98243 5.3035C6.95043 5.3035 6.91843 5.3075 6.88643 5.3155C3.91643 6.0465 1.50043 9.2645 1.50043 12.4885C1.50043 16.5445 4.80043 19.8445 8.85743 19.8445C12.5144 19.8445 15.5704 17.2395 16.1244 13.6495C16.1284 13.6195 16.1424 13.5325 16.0604 13.4355C15.9824 13.3445 15.8584 13.2905 15.7284 13.2905C14.3174 13.2905 13.2404 13.3225 12.3994 13.3465C10.3634 13.4075 9.52143 13.4305 8.68943 12.8135C7.43543 11.8845 7.32943 10.2885 7.32943 5.5945C7.32943 5.5105 7.29343 5.4405 7.22143 5.3845C7.15443 5.3315 7.06943 5.3035 6.98243 5.3035M8.85743 21.3445C3.97343 21.3445 0.000427246 17.3715 0.000427246 12.4885C0.000427246 8.6165 2.92843 4.7445 6.52743 3.8585C7.08943 3.7215 7.69343 3.8495 8.14743 4.2035C8.58043 4.5435 8.82943 5.0505 8.82943 5.5945C8.82943 9.9795 8.97743 11.1595 9.58243 11.6085C9.97943 11.9015 10.5234 11.8985 12.3564 11.8475C13.2084 11.8225 14.2994 11.7905 15.7284 11.7905C16.2984 11.7905 16.8354 12.0345 17.1994 12.4595C17.5374 12.8545 17.6854 13.3705 17.6074 13.8785C16.9394 18.2035 13.2594 21.3445 8.85743 21.3445" fill="black"/>
<mask id="mask0_130_2003" style="mask-type:alpha" maskUnits="userSpaceOnUse" x="10" y="0" width="11" height="11">
<path fill-rule="evenodd" clip-rule="evenodd" d="M10.4741 0.000488281H20.893V10.2898H10.4741V0.000488281Z" fill="white"/>
</mask>
<g mask="url(#mask0_130_2003)">
<path fill-rule="evenodd" clip-rule="evenodd" d="M12.0108 1.5018C11.9008 4.0208 12.0638 7.2748 12.1398 8.5638C12.1438 8.6408 12.1998 8.6968 12.2758 8.7008C13.3038 8.7598 16.8458 8.9238 19.3928 8.5488C19.3988 7.1448 18.4378 5.2408 16.9908 3.7948C15.5068 2.3128 13.7508 1.5018 12.0328 1.5018H12.0108ZM15.3148 10.2898C14.0048 10.2898 12.8518 10.2368 12.1888 10.1988C11.3548 10.1498 10.6908 9.4848 10.6428 8.6508C10.5648 7.3288 10.3958 3.9698 10.5158 1.3718C10.5488 0.616803 11.1588 0.0158026 11.9048 0.00280259C14.0418 -0.0591974 16.2468 0.932803 18.0508 2.7338C19.8088 4.4908 20.9248 6.7998 20.8928 8.6168C20.8808 9.3258 20.3658 9.9178 19.6698 10.0228C18.3118 10.2278 16.7218 10.2898 15.3148 10.2898V10.2898Z" fill="black"/>
</g>
</svg>
