<svg width="21" height="19" viewBox="0 0 21 19" fill="none" xmlns="http://www.w3.org/2000/svg">
<mask id="mask0_130_1311" style="mask-type:alpha" maskUnits="userSpaceOnUse" x="0" y="0" width="21" height="19">
<path fill-rule="evenodd" clip-rule="evenodd" d="M0 0H20.0137V18.1855H0V0Z" fill="white"/>
</mask>
<g mask="url(#mask0_130_1311)">
<path fill-rule="evenodd" clip-rule="evenodd" d="M10.0126 1.5C9.53665 1.5 9.11265 1.746 8.87465 2.159L1.67665 14.724C1.44265 15.134 1.44465 15.623 1.68165 16.032C1.91865 16.441 2.34265 16.686 2.81565 16.686H17.1986C17.6706 16.686 18.0946 16.441 18.3316 16.032C18.5696 15.623 18.5716 15.134 18.3356 14.724L11.1506 2.159C10.9136 1.746 10.4896 1.5 10.0126 1.5M17.1986 18.186H2.81565C1.80165 18.186 0.892647 17.662 0.383647 16.784C-0.125353 15.907 -0.128353 14.858 0.374647 13.979L7.57465 1.413C8.08065 0.528 8.99165 0 10.0126 0H10.0136C11.0336 0 11.9466 0.529 12.4526 1.415L19.6386 13.979C20.1416 14.858 20.1386 15.907 19.6296 16.784C19.1206 17.662 18.2116 18.186 17.1986 18.186" fill="black"/>
</g>
<path fill-rule="evenodd" clip-rule="evenodd" d="M10.0039 11.164C9.58991 11.164 9.25391 10.828 9.25391 10.414V7.314C9.25391 6.9 9.58991 6.564 10.0039 6.564C10.4179 6.564 10.7539 6.9 10.7539 7.314V10.414C10.7539 10.828 10.4179 11.164 10.0039 11.164" fill="black"/>
<path fill-rule="evenodd" clip-rule="evenodd" d="M10.0059 14.499C9.45285 14.499 9.00085 14.052 9.00085 13.499C9.00085 12.946 9.44385 12.499 9.99585 12.499H10.0059C10.5589 12.499 11.0059 12.946 11.0059 13.499C11.0059 14.052 10.5589 14.499 10.0059 14.499" fill="black"/>
</svg>
