<svg width="20" height="20" viewBox="0 0 20 20" fill="none" xmlns="http://www.w3.org/2000/svg">
<mask id="mask0_130_1834" style="mask-type:alpha" maskUnits="userSpaceOnUse" x="0" y="0" width="20" height="20">
<path fill-rule="evenodd" clip-rule="evenodd" d="M0.000366211 0.000213623H19.96V19.95H0.000366211V0.000213623Z" fill="white"/>
</mask>
<g mask="url(#mask0_130_1834)">
<path fill-rule="evenodd" clip-rule="evenodd" d="M5.65037 1.5C3.12937 1.5 1.50037 3.227 1.50037 5.899V14.051C1.50037 16.724 3.12937 18.45 5.65037 18.45H14.3004C16.8274 18.45 18.4604 16.724 18.4604 14.051V5.899C18.4604 3.227 16.8274 1.5 14.3004 1.5H5.65037ZM14.3004 19.95H5.65037C2.27037 19.95 0.000366211 17.579 0.000366211 14.051V5.899C0.000366211 2.371 2.27037 0 5.65037 0H14.3004C17.6854 0 19.9604 2.371 19.9604 5.899V14.051C19.9604 17.579 17.6854 19.95 14.3004 19.95V19.95Z" fill="black"/>
</g>
<path fill-rule="evenodd" clip-rule="evenodd" d="M3.28138 15.1804C3.09538 15.1804 2.91038 15.1124 2.76538 14.9744C2.46438 14.6904 2.45238 14.2144 2.73738 13.9154L4.26538 12.3024C5.07438 11.4434 6.43938 11.4014 7.30238 12.2114L8.26038 13.1834C8.52738 13.4534 8.96138 13.4584 9.22938 13.1944C9.33038 13.0754 11.5084 10.4304 11.5084 10.4304C11.9224 9.9284 12.5064 9.6184 13.1554 9.5544C13.8054 9.4974 14.4364 9.6864 14.9394 10.0994C14.9824 10.1344 15.0214 10.1684 17.2174 12.4234C17.5064 12.7194 17.5014 13.1944 17.2044 13.4834C16.9084 13.7744 16.4324 13.7654 16.1434 13.4694C16.1434 13.4694 14.0944 11.3664 13.9484 11.2244C13.7934 11.0974 13.5444 11.0234 13.2994 11.0474C13.0504 11.0724 12.8264 11.1914 12.6674 11.3844C10.3434 14.2034 10.3154 14.2304 10.2774 14.2674C9.41938 15.1094 8.03438 15.0954 7.19138 14.2354C7.19138 14.2354 6.26138 13.2914 6.24538 13.2724C6.01438 13.0584 5.60238 13.0724 5.35538 13.3334L3.82538 14.9464C3.67738 15.1024 3.47938 15.1804 3.28138 15.1804V15.1804Z" fill="black"/>
<path fill-rule="evenodd" clip-rule="evenodd" d="M6.55757 6.12891C6.00457 6.12891 5.55457 6.57891 5.55457 7.13291C5.55457 7.68691 6.00457 8.13791 6.55857 8.13791C7.11257 8.13791 7.56357 7.68691 7.56357 7.13291C7.56357 6.57991 7.11257 6.12991 6.55757 6.12891M6.55857 9.63791C5.17757 9.63791 4.05457 8.51391 4.05457 7.13291C4.05457 5.75191 5.17757 4.62891 6.55857 4.62891C7.94057 4.62991 9.06357 5.75391 9.06357 7.13291C9.06357 8.51391 7.93957 9.63791 6.55857 9.63791" fill="black"/>
</svg>
