<svg width="18" height="14" viewBox="0 0 18 14" fill="none" xmlns="http://www.w3.org/2000/svg">
<path d="M6.482 10L2.926 5.646V10H0.966V0.228H2.926V4.61L6.482 0.228H8.848L4.816 5.072L8.96 10H6.482ZM13.2872 2.118C13.8659 2.118 14.3745 2.23467 14.8132 2.468C15.2519 2.692 15.5972 2.986 15.8492 3.35V2.244H17.8232V10.056C17.8232 10.7747 17.6785 11.414 17.3892 11.974C17.0999 12.5433 16.6659 12.9913 16.0872 13.318C15.5085 13.654 14.8085 13.822 13.9872 13.822C12.8859 13.822 11.9805 13.5653 11.2712 13.052C10.5712 12.5387 10.1745 11.8387 10.0812 10.952H12.0272C12.1299 11.3067 12.3492 11.5867 12.6852 11.792C13.0305 12.0067 13.4459 12.114 13.9312 12.114C14.5005 12.114 14.9625 11.9413 15.3172 11.596C15.6719 11.26 15.8492 10.7467 15.8492 10.056V8.852C15.5972 9.216 15.2472 9.51933 14.7992 9.762C14.3605 10.0047 13.8565 10.126 13.2872 10.126C12.6339 10.126 12.0365 9.958 11.4952 9.622C10.9539 9.286 10.5245 8.81467 10.2072 8.208C9.8992 7.592 9.7452 6.88733 9.7452 6.094C9.7452 5.31 9.8992 4.61467 10.2072 4.008C10.5245 3.40133 10.9492 2.93467 11.4812 2.608C12.0225 2.28133 12.6245 2.118 13.2872 2.118ZM15.8492 6.122C15.8492 5.646 15.7559 5.24 15.5692 4.904C15.3825 4.55867 15.1305 4.29733 14.8132 4.12C14.4959 3.93333 14.1552 3.84 13.7912 3.84C13.4272 3.84 13.0912 3.92867 12.7832 4.106C12.4752 4.28333 12.2232 4.54467 12.0272 4.89C11.8405 5.226 11.7472 5.62733 11.7472 6.094C11.7472 6.56067 11.8405 6.97133 12.0272 7.326C12.2232 7.67133 12.4752 7.93733 12.7832 8.124C13.1005 8.31067 13.4365 8.404 13.7912 8.404C14.1552 8.404 14.4959 8.31533 14.8132 8.138C15.1305 7.95133 15.3825 7.69 15.5692 7.354C15.7559 7.00867 15.8492 6.598 15.8492 6.122Z" fill="black"/>
</svg>
