<svg width="17" height="21" viewBox="0 0 17 21" fill="none" xmlns="http://www.w3.org/2000/svg">
<path fill-rule="evenodd" clip-rule="evenodd" d="M12.9229 8.20001C12.5089 8.20001 12.1729 7.86401 12.1729 7.45001V5.30301C12.1729 3.20701 10.4679 1.50201 8.37188 1.50201H8.35588C7.34288 1.50201 6.39388 1.89201 5.67688 2.60301C4.95488 3.31701 4.55588 4.27001 4.55188 5.28601V7.45001C4.55188 7.86401 4.21588 8.20001 3.80188 8.20001C3.38788 8.20001 3.05188 7.86401 3.05188 7.45001V5.30301C3.05788 3.86301 3.61488 2.53401 4.61988 1.53801C5.62588 0.541011 6.95388 -0.0359891 8.37488 0.00201091C11.2949 0.00201091 13.6729 2.38001 13.6729 5.30301V7.45001C13.6729 7.86401 13.3369 8.20001 12.9229 8.20001" fill="black"/>
<path fill-rule="evenodd" clip-rule="evenodd" d="M4.542 8.12881C2.864 8.12881 1.5 9.49281 1.5 11.1708V15.4598C1.5 17.1378 2.864 18.5018 4.542 18.5018H12.183C13.86 18.5018 15.225 17.1378 15.225 15.4598V11.1708C15.225 9.49281 13.86 8.12881 12.183 8.12881H4.542ZM12.183 20.0018H4.542C2.037 20.0018 0 17.9648 0 15.4598V11.1708C0 8.66581 2.037 6.62881 4.542 6.62881H12.183C14.688 6.62881 16.725 8.66581 16.725 11.1708V15.4598C16.725 17.9648 14.688 20.0018 12.183 20.0018V20.0018Z" fill="black"/>
<path fill-rule="evenodd" clip-rule="evenodd" d="M8.3623 15.1756C7.9483 15.1756 7.6123 14.8396 7.6123 14.4256V12.2046C7.6123 11.7906 7.9483 11.4546 8.3623 11.4546C8.7763 11.4546 9.1123 11.7906 9.1123 12.2046V14.4256C9.1123 14.8396 8.7763 15.1756 8.3623 15.1756" fill="black"/>
</svg>
