<svg width="19" height="20" viewBox="0 0 19 20" fill="none" xmlns="http://www.w3.org/2000/svg">
<path fill-rule="evenodd" clip-rule="evenodd" d="M12.791 10.75H0.75C0.336 10.75 0 10.414 0 10C0 9.586 0.336 9.25 0.75 9.25H12.791C13.205 9.25 13.541 9.586 13.541 10C13.541 10.414 13.205 10.75 12.791 10.75" fill="black"/>
<path fill-rule="evenodd" clip-rule="evenodd" d="M9.86328 13.665C9.67128 13.665 9.47828 13.592 9.33228 13.444C9.03928 13.15 9.04128 12.676 9.33428 12.384L11.7283 10L9.33428 7.61501C9.04128 7.32301 9.03928 6.84901 9.33228 6.55501C9.62528 6.26101 10.0993 6.26101 10.3923 6.55301L13.3213 9.46901C13.4633 9.60901 13.5423 9.80101 13.5423 10C13.5423 10.199 13.4633 10.391 13.3213 10.531L10.3923 13.446C10.2463 13.592 10.0543 13.665 9.86328 13.665" fill="black"/>
<path fill-rule="evenodd" clip-rule="evenodd" d="M14.042 20H9.15703C6.71803 20 4.73303 18.015 4.73303 15.575V14.633C4.73303 14.219 5.06903 13.883 5.48303 13.883C5.89703 13.883 6.23303 14.219 6.23303 14.633V15.575C6.23303 17.187 7.54503 18.5 9.15703 18.5H14.042C15.661 18.5 16.978 17.184 16.978 15.564V4.425C16.978 2.813 15.665 1.5 14.053 1.5H9.16803C7.55003 1.5 6.23303 2.816 6.23303 4.434V5.367C6.23303 5.781 5.89703 6.117 5.48303 6.117C5.06903 6.117 4.73303 5.781 4.73303 5.367V4.434C4.73303 1.989 6.72303 0 9.16803 0H14.053C16.492 0 18.478 1.985 18.478 4.425V15.564C18.478 18.01 16.487 20 14.042 20" fill="black"/>
</svg>
