<svg width="20" height="20" viewBox="0 0 20 20" fill="none" xmlns="http://www.w3.org/2000/svg">
<path fill-rule="evenodd" clip-rule="evenodd" d="M10 1.5C5.313 1.5 1.5 5.313 1.5 10C1.5 14.687 5.313 18.5 10 18.5C14.687 18.5 18.5 14.687 18.5 10C18.5 5.313 14.687 1.5 10 1.5M10 20C4.486 20 0 15.514 0 10C0 4.486 4.486 0 10 0C15.514 0 20 4.486 20 10C20 15.514 15.514 20 10 20" fill="black"/>
<path fill-rule="evenodd" clip-rule="evenodd" d="M13.9482 11.0137C13.3952 11.0137 12.9432 10.5667 12.9432 10.0137C12.9432 9.4607 13.3862 9.0137 13.9382 9.0137H13.9482C14.5012 9.0137 14.9482 9.4607 14.9482 10.0137C14.9482 10.5667 14.5012 11.0137 13.9482 11.0137" fill="black"/>
<path fill-rule="evenodd" clip-rule="evenodd" d="M9.93845 11.0137C9.38545 11.0137 8.93445 10.5667 8.93445 10.0137C8.93445 9.4607 9.37645 9.0137 9.92945 9.0137H9.93845C10.4914 9.0137 10.9384 9.4607 10.9384 10.0137C10.9384 10.5667 10.4914 11.0137 9.93845 11.0137" fill="black"/>
<path fill-rule="evenodd" clip-rule="evenodd" d="M5.92968 11.0137C5.37668 11.0137 4.92468 10.5667 4.92468 10.0137C4.92468 9.4607 5.36768 9.0137 5.92068 9.0137H5.92968C6.48268 9.0137 6.92968 9.4607 6.92968 10.0137C6.92968 10.5667 6.48268 11.0137 5.92968 11.0137" fill="black"/>
</svg>
