<svg width="18" height="20" viewBox="0 0 18 20" fill="none" xmlns="http://www.w3.org/2000/svg">
<path fill-rule="evenodd" clip-rule="evenodd" d="M4.5729 1.51172C2.9149 1.51172 1.5399 2.85372 1.5009 4.50872V15.3397C1.4719 16.9867 2.7789 18.3387 4.4139 18.3667L4.5609 18.3657H12.5729C14.2149 18.3477 15.5539 16.9907 15.5519 15.3407V6.34172L10.9179 1.51172H4.5849H4.5729ZM4.3999 19.8667C1.9269 19.8237 -0.0410959 17.7867 0.000904076 15.3267V4.49072C0.0579041 2.00972 2.1069 0.0117188 4.5699 0.0117188H4.5879H11.2369C11.4409 0.0117188 11.6359 0.0947188 11.7779 0.241719L16.8439 5.52072C16.9769 5.65972 17.0519 5.84672 17.0519 6.03972V15.3397C17.0559 17.8087 15.0499 19.8397 12.5809 19.8657L4.3999 19.8667Z" fill="black"/>
<path fill-rule="evenodd" clip-rule="evenodd" d="M16.2975 6.98443H13.5435C11.7125 6.97943 10.2245 5.48743 10.2245 3.65943V0.750427C10.2245 0.336427 10.5605 0.000427246 10.9745 0.000427246C11.3885 0.000427246 11.7245 0.336427 11.7245 0.750427V3.65943C11.7245 4.66343 12.5415 5.48143 13.5455 5.48443H16.2975C16.7115 5.48443 17.0475 5.82043 17.0475 6.23443C17.0475 6.64843 16.7115 6.98443 16.2975 6.98443" fill="black"/>
<path fill-rule="evenodd" clip-rule="evenodd" d="M10.7937 11.6641H5.89465C5.48065 11.6641 5.14465 11.3281 5.14465 10.9141C5.14465 10.5001 5.48065 10.1641 5.89465 10.1641H10.7937C11.2077 10.1641 11.5437 10.5001 11.5437 10.9141C11.5437 11.3281 11.2077 11.6641 10.7937 11.6641" fill="black"/>
<path fill-rule="evenodd" clip-rule="evenodd" d="M8.34436 14.1144C7.93036 14.1144 7.59436 13.7784 7.59436 13.3644V8.46436C7.59436 8.05036 7.93036 7.71436 8.34436 7.71436C8.75836 7.71436 9.09436 8.05036 9.09436 8.46436V13.3644C9.09436 13.7784 8.75836 14.1144 8.34436 14.1144" fill="black"/>
</svg>
