<svg width="18" height="20" viewBox="0 0 18 20" fill="none" xmlns="http://www.w3.org/2000/svg">
<mask id="mask0_130_1659" style="mask-type:alpha" maskUnits="userSpaceOnUse" x="0" y="0" width="18" height="20">
<path fill-rule="evenodd" clip-rule="evenodd" d="M0 0.0117188H17.0515V19.8667H0V0.0117188Z" fill="white"/>
</mask>
<g mask="url(#mask0_130_1659)">
<path fill-rule="evenodd" clip-rule="evenodd" d="M4.47851 1.51172C2.83551 1.51172 1.49951 2.84872 1.49951 4.49072V15.3397C1.50451 16.1507 1.82651 16.9147 2.40551 17.4877C2.98351 18.0587 3.78051 18.3867 4.56651 18.3667C4.57351 18.3667 4.68351 18.3657 4.68951 18.3657H12.5725C14.2145 18.3477 15.5545 16.9907 15.5515 15.3407V6.34172L10.9165 1.51172H4.47851ZM4.54251 19.8667C3.34251 19.8667 2.20751 19.4017 1.35051 18.5537C0.486512 17.6997 0.00651172 16.5597 -0.000488281 15.3437V4.49072C-0.000488281 2.02172 2.00851 0.0117188 4.47851 0.0117188H11.2365C11.4405 0.0117188 11.6355 0.0947188 11.7775 0.241719L16.8425 5.52072C16.9765 5.65972 17.0515 5.84672 17.0515 6.03972V15.3397C17.0565 17.8087 15.0505 19.8397 12.5805 19.8657L4.57151 19.8667H4.54251Z" fill="black"/>
</g>
<path fill-rule="evenodd" clip-rule="evenodd" d="M16.2969 6.98443H13.5409C11.7109 6.97943 10.2239 5.48743 10.2239 3.65943V0.750427C10.2239 0.336427 10.5599 0.000427246 10.9739 0.000427246C11.3879 0.000427246 11.7239 0.336427 11.7239 0.750427V3.65943C11.7239 4.66343 12.5399 5.48143 13.5429 5.48443H16.2969C16.7109 5.48443 17.0469 5.82043 17.0469 6.23443C17.0469 6.64843 16.7109 6.98443 16.2969 6.98443" fill="black"/>
<path fill-rule="evenodd" clip-rule="evenodd" d="M10.0752 13.3986C9.88325 13.3986 9.69125 13.3256 9.54525 13.1786L6.07925 9.71255C5.78625 9.41955 5.78625 8.94555 6.07925 8.65255C6.37225 8.35955 6.84625 8.35955 7.13925 8.65255L10.6052 12.1186C10.8982 12.4116 10.8982 12.8856 10.6052 13.1786C10.4592 13.3256 10.2672 13.3986 10.0752 13.3986" fill="black"/>
<path fill-rule="evenodd" clip-rule="evenodd" d="M6.61035 13.3986C6.41835 13.3986 6.22635 13.3256 6.08035 13.1786C5.78735 12.8856 5.78735 12.4116 6.08035 12.1186L9.54635 8.65255C9.83935 8.35955 10.3133 8.35955 10.6063 8.65255C10.8993 8.94555 10.8993 9.41955 10.6063 9.71255L7.14035 13.1786C6.99435 13.3256 6.80235 13.3986 6.61035 13.3986" fill="black"/>
</svg>
