<svg width="18" height="20" viewBox="0 0 18 20" fill="none" xmlns="http://www.w3.org/2000/svg">
<mask id="mask0_130_1558" style="mask-type:alpha" maskUnits="userSpaceOnUse" x="0" y="0" width="18" height="20">
<path fill-rule="evenodd" clip-rule="evenodd" d="M0.000244141 0.0117188H17.0524V19.8652H0.000244141V0.0117188Z" fill="white"/>
</mask>
<g mask="url(#mask0_130_1558)">
<path fill-rule="evenodd" clip-rule="evenodd" d="M4.57331 1.51172C2.91631 1.51172 1.54031 2.85372 1.50131 4.50872V15.2277C1.46531 16.9287 2.80531 18.3287 4.49031 18.3657H12.5733C14.2423 18.3057 15.5633 16.9287 15.5523 15.2327V6.33972L10.9183 1.51172H4.58531H4.57331ZM4.58531 19.8657H4.45931C1.94731 19.8117 -0.0526876 17.7237 0.00131242 15.2117V4.49072C0.0603124 2.00972 2.10831 0.0117188 4.57031 0.0117188H4.58831H11.2373C11.4413 0.0117188 11.6363 0.0947188 11.7783 0.241719L16.8443 5.51872C16.9773 5.65772 17.0523 5.84472 17.0523 6.03772V15.2277C17.0683 17.7367 15.1123 19.7757 12.5993 19.8657H4.58531Z" fill="black"/>
</g>
<path fill-rule="evenodd" clip-rule="evenodd" d="M16.298 6.98431H13.544C11.713 6.97931 10.226 5.48731 10.226 3.65931V0.750305C10.226 0.336305 10.562 0.000305176 10.976 0.000305176C11.39 0.000305176 11.726 0.336305 11.726 0.750305V3.65931C11.726 4.66331 12.542 5.48131 13.546 5.48431H16.298C16.712 5.48431 17.048 5.82031 17.048 6.23431C17.048 6.64831 16.712 6.98431 16.298 6.98431" fill="black"/>
<path fill-rule="evenodd" clip-rule="evenodd" d="M8.14172 14.7002C7.72772 14.7002 7.39172 14.3642 7.39172 13.9502V7.90918C7.39172 7.49518 7.72772 7.15918 8.14172 7.15918C8.55572 7.15918 8.89172 7.49518 8.89172 7.90918V13.9502C8.89172 14.3642 8.55572 14.7002 8.14172 14.7002" fill="black"/>
<path fill-rule="evenodd" clip-rule="evenodd" d="M5.79699 11.0146C5.60599 11.0146 5.41399 10.9416 5.26799 10.7956C4.97499 10.5036 4.97299 10.0296 5.26599 9.73561L7.60999 7.37961C7.89199 7.09661 8.39199 7.09661 8.67299 7.37961L11.019 9.73561C11.311 10.0296 11.31 10.5036 11.017 10.7956C10.723 11.0876 10.248 11.0876 9.95599 10.7936L8.14199 8.97161L6.32799 10.7936C6.18199 10.9416 5.98899 11.0146 5.79699 11.0146" fill="black"/>
</svg>
