<svg width="18" height="20" viewBox="0 0 18 20" fill="none" xmlns="http://www.w3.org/2000/svg">
<mask id="mask0_130_1901" style="mask-type:alpha" maskUnits="userSpaceOnUse" x="0" y="0" width="18" height="20">
<path fill-rule="evenodd" clip-rule="evenodd" d="M0.000244141 0.0117188H17.0529V19.8652H0.000244141V0.0117188Z" fill="white"/>
</mask>
<g mask="url(#mask0_130_1901)">
<path fill-rule="evenodd" clip-rule="evenodd" d="M4.57335 1.51172C2.91635 1.51172 1.54035 2.85372 1.50135 4.50872V15.2037C1.46435 16.9167 2.81435 18.3277 4.51035 18.3657H12.5743C14.2433 18.2967 15.5653 16.9097 15.5533 15.2097V6.33972L10.9183 1.51172H4.58535H4.57335ZM4.58535 19.8657H4.47635C1.95435 19.8087 -0.0536524 17.7107 0.00134757 15.1877V4.49072C0.0593476 2.00972 2.10835 0.0117188 4.57135 0.0117188H4.58835H11.2383C11.4423 0.0117188 11.6373 0.0947188 11.7793 0.241719L16.8443 5.51872C16.9783 5.65772 17.0533 5.84472 17.0533 6.03772V15.2037C17.0713 17.7127 15.1173 19.7627 12.6043 19.8647L4.58535 19.8657Z" fill="black"/>
</g>
<path fill-rule="evenodd" clip-rule="evenodd" d="M16.2985 6.98431H13.5435C11.7135 6.97931 10.2255 5.48731 10.2255 3.65931V0.750305C10.2255 0.336305 10.5615 0.000305176 10.9755 0.000305176C11.3895 0.000305176 11.7255 0.336305 11.7255 0.750305V3.65931C11.7255 4.66331 12.5425 5.48131 13.5455 5.48431H16.2985C16.7125 5.48431 17.0485 5.82031 17.0485 6.23431C17.0485 6.64831 16.7125 6.98431 16.2985 6.98431" fill="black"/>
<path fill-rule="evenodd" clip-rule="evenodd" d="M10.7887 14.1084H5.38867C4.97467 14.1084 4.63867 13.7724 4.63867 13.3584C4.63867 12.9444 4.97467 12.6084 5.38867 12.6084H10.7887C11.2027 12.6084 11.5387 12.9444 11.5387 13.3584C11.5387 13.7724 11.2027 14.1084 10.7887 14.1084" fill="black"/>
<path fill-rule="evenodd" clip-rule="evenodd" d="M8.7437 10.3564H5.3877C4.9737 10.3564 4.6377 10.0204 4.6377 9.60638C4.6377 9.19238 4.9737 8.85638 5.3877 8.85638H8.7437C9.1577 8.85638 9.4937 9.19238 9.4937 9.60638C9.4937 10.0204 9.1577 10.3564 8.7437 10.3564" fill="black"/>
</svg>
