<svg width="20" height="20" viewBox="0 0 20 20" fill="none" xmlns="http://www.w3.org/2000/svg">
<mask id="mask0_130_1320" style="mask-type:alpha" maskUnits="userSpaceOnUse" x="0" y="0" width="20" height="20">
<path fill-rule="evenodd" clip-rule="evenodd" d="M0 0H19.9999V20H0V0Z" fill="white"/>
</mask>
<g mask="url(#mask0_130_1320)">
<path fill-rule="evenodd" clip-rule="evenodd" d="M5.664 1.5C3.135 1.5 1.5 3.233 1.5 5.916V14.084C1.5 16.767 3.135 18.5 5.664 18.5H14.332C16.864 18.5 18.5 16.767 18.5 14.084V5.916C18.5 3.233 16.864 1.5 14.334 1.5H5.664ZM14.332 20H5.664C2.276 20 0 17.622 0 14.084V5.916C0 2.378 2.276 0 5.664 0H14.334C17.723 0 20 2.378 20 5.916V14.084C20 17.622 17.723 20 14.332 20V20Z" fill="black"/>
</g>
<path fill-rule="evenodd" clip-rule="evenodd" d="M6.83874 8.89838C6.22874 8.89838 5.73474 9.39238 5.73474 10.0004C5.73474 10.6084 6.22874 11.1024 6.83674 11.1024C7.44374 11.1024 7.93874 10.6084 7.93874 10.0004C7.93874 9.39338 7.44474 8.89938 6.83874 8.89838M6.83674 12.6024C5.40174 12.6024 4.23474 11.4344 4.23474 10.0004C4.23474 8.56538 5.40174 7.39838 6.83674 7.39838C8.27374 7.39938 9.43874 8.56638 9.43874 10.0004C9.43874 11.4344 8.27174 12.6024 6.83674 12.6024" fill="black"/>
<path fill-rule="evenodd" clip-rule="evenodd" d="M15.0097 12.6025C14.5957 12.6025 14.2597 12.2665 14.2597 11.8525V10.7495H8.69165C8.27765 10.7495 7.94165 10.4145 7.94165 9.99951C7.94165 9.58551 8.27765 9.24951 8.69165 9.24951H15.0097C15.4237 9.24951 15.7597 9.58551 15.7597 9.99951V11.8525C15.7597 12.2665 15.4237 12.6025 15.0097 12.6025" fill="black"/>
<path fill-rule="evenodd" clip-rule="evenodd" d="M12.1815 12.6025C11.7675 12.6025 11.4315 12.2665 11.4315 11.8525V9.99951C11.4315 9.58551 11.7675 9.24951 12.1815 9.24951C12.5955 9.24951 12.9315 9.58551 12.9315 9.99951V11.8525C12.9315 12.2665 12.5955 12.6025 12.1815 12.6025Z" fill="black"/>
</svg>
