<svg width="120" height="123" viewBox="0 0 120 123" fill="none" xmlns="http://www.w3.org/2000/svg">
<g clip-path="url(#clip0_506_2015)">
<path fill-rule="evenodd" clip-rule="evenodd" d="M40.0603 0.37C49.4603 0.37 57.0903 12.06 57.0903 26.47C57.0903 40.88 49.4603 52.57 40.0603 52.57C30.6603 52.57 23.0303 40.89 23.0303 26.47C23.0403 12.06 30.6603 0.37 40.0603 0.37ZM61.7103 63.55C81.6503 63.59 84.1303 76.8 100.94 99.41C109.32 115.86 98.4403 126.23 79.7903 121.79C71.3303 117.48 65.3803 115.96 59.4103 116.16C49.0703 116.52 46.4603 123.34 34.4303 122.86C25.1503 122.61 20.9703 118.72 20.1603 112.79C19.2903 106.49 21.7203 102.51 24.6803 97.3C36.1803 77.02 48.0703 61.01 61.7103 63.55ZM7.17034 39.08C0.140343 41.86 -2.09966 52.85 2.16034 63.62C6.42034 74.39 15.5703 80.87 22.6003 78.09C29.6303 75.31 31.8703 64.32 27.6103 53.55C23.3503 42.78 14.2003 36.3 7.17034 39.08ZM112.55 39.08C119.58 41.86 121.82 52.85 117.56 63.62C113.3 74.39 104.14 80.87 97.1203 78.09C90.0903 75.31 87.8503 64.32 92.1103 53.55C96.3703 42.78 105.52 36.3 112.55 39.08ZM79.3503 0C88.7503 0 96.3803 11.69 96.3803 26.1C96.3803 40.51 88.7503 52.2 79.3503 52.2C69.9503 52.2 62.3203 40.52 62.3203 26.1C62.3303 11.69 69.9503 0 79.3503 0Z" fill="#4063DE"/>
</g>
<defs>
<clipPath id="clip0_506_2015">
<rect width="119.72" height="122.88" fill="white"/>
</clipPath>
</defs>
</svg>
