<svg width="23" height="19" viewBox="0 0 23 19" fill="none" xmlns="http://www.w3.org/2000/svg">
<path fill-rule="evenodd" clip-rule="evenodd" d="M21.75 10.9549H0.75C0.336 10.9549 0 10.6189 0 10.2049C0 9.7909 0.336 9.4549 0.75 9.4549H21.75C22.164 9.4549 22.5 9.7909 22.5 10.2049C22.5 10.6189 22.164 10.9549 21.75 10.9549" fill="black"/>
<path fill-rule="evenodd" clip-rule="evenodd" d="M19.8799 6.745C19.4659 6.745 19.1299 6.409 19.1299 5.995V4.481C19.1299 2.838 17.7919 1.5 16.1469 1.5H14.9419C14.5279 1.5 14.1919 1.164 14.1919 0.75C14.1919 0.336 14.5279 0 14.9419 0H16.1469C18.6189 0 20.6299 2.011 20.6299 4.481V5.995C20.6299 6.409 20.2939 6.745 19.8799 6.745" fill="black"/>
<path fill-rule="evenodd" clip-rule="evenodd" d="M2.62012 6.745C2.20612 6.745 1.87012 6.409 1.87012 5.995V4.481C1.87012 2.011 3.88112 0 6.35312 0H7.58912C8.00312 0 8.33912 0.336 8.33912 0.75C8.33912 1.164 8.00312 1.5 7.58912 1.5H6.35312C4.70812 1.5 3.37012 2.838 3.37012 4.481V5.995C3.37012 6.409 3.03412 6.745 2.62012 6.745" fill="black"/>
<path fill-rule="evenodd" clip-rule="evenodd" d="M16.147 18.7606H14.942C14.528 18.7606 14.192 18.4246 14.192 18.0106C14.192 17.5966 14.528 17.2606 14.942 17.2606H16.147C17.792 17.2606 19.13 15.9226 19.13 14.2786V10.2036C19.13 9.78961 19.466 9.45361 19.88 9.45361C20.294 9.45361 20.63 9.78961 20.63 10.2036V14.2786C20.63 16.7496 18.619 18.7606 16.147 18.7606" fill="black"/>
<path fill-rule="evenodd" clip-rule="evenodd" d="M7.58887 18.7606H6.35287C3.88087 18.7606 1.86987 16.7496 1.86987 14.2786V10.2036C1.86987 9.78961 2.20587 9.45361 2.61987 9.45361C3.03387 9.45361 3.36987 9.78961 3.36987 10.2036V14.2786C3.36987 15.9226 4.70787 17.2606 6.35287 17.2606H7.58887C8.00287 17.2606 8.33887 17.5966 8.33887 18.0106C8.33887 18.4246 8.00287 18.7606 7.58887 18.7606" fill="black"/>
</svg>
