<svg width="17" height="21" viewBox="0 0 17 21" fill="none" xmlns="http://www.w3.org/2000/svg">
<mask id="mask0_130_1756" style="mask-type:alpha" maskUnits="userSpaceOnUse" x="0" y="0" width="17" height="21">
<path fill-rule="evenodd" clip-rule="evenodd" d="M0.000244141 0.000396729H16.967V20.356H0.000244141V0.000396729Z" fill="white"/>
</mask>
<g mask="url(#mask0_130_1756)">
<path fill-rule="evenodd" clip-rule="evenodd" d="M8.48368 1.5C7.63568 1.5 2.28468 3.384 1.66768 3.899C1.48668 4.081 1.47968 4.399 1.51768 6.526C1.53668 7.552 1.56168 8.947 1.56168 10.879C1.56168 16.08 7.28368 18.389 8.48268 18.814C9.68068 18.387 15.4057 16.065 15.4057 10.879C15.4057 8.949 15.4307 7.555 15.4487 6.529C15.4877 4.4 15.4807 4.082 15.2877 3.889C14.6817 3.384 9.33168 1.5 8.48368 1.5M8.48368 20.356C8.41068 20.356 8.33768 20.346 8.26668 20.324C7.93168 20.223 0.0616797 17.761 0.0616797 10.879C0.0616797 8.959 0.0366797 7.572 0.0186797 6.554C-0.0273203 4.014 -0.0373203 3.484 0.61768 2.828C1.40468 2.041 7.35068 0 8.48368 0C9.61668 0 15.5627 2.041 16.3487 2.828C17.0047 3.484 16.9947 4.014 16.9487 6.557C16.9307 7.575 16.9057 8.962 16.9057 10.879C16.9057 17.761 9.03568 20.223 8.70068 20.324C8.62968 20.346 8.55668 20.356 8.48368 20.356" fill="black"/>
</g>
<path fill-rule="evenodd" clip-rule="evenodd" d="M10.3626 12.5752C10.1706 12.5752 9.97861 12.5022 9.83261 12.3552L6.07461 8.59719C5.78161 8.30419 5.78161 7.83019 6.07461 7.53719C6.36761 7.24419 6.84161 7.24419 7.13461 7.53719L10.8926 11.2952C11.1856 11.5882 11.1856 12.0622 10.8926 12.3552C10.7466 12.5022 10.5546 12.5752 10.3626 12.5752" fill="black"/>
<path fill-rule="evenodd" clip-rule="evenodd" d="M6.60473 12.5752C6.41273 12.5752 6.22073 12.5022 6.07473 12.3552C5.78173 12.0622 5.78173 11.5882 6.07473 11.2952L9.83273 7.53719C10.1257 7.24419 10.5997 7.24419 10.8927 7.53719C11.1857 7.83019 11.1857 8.30419 10.8927 8.59719L7.13473 12.3552C6.98873 12.5022 6.79673 12.5752 6.60473 12.5752" fill="black"/>
</svg>
