<svg width="17" height="21" viewBox="0 0 17 21" fill="none" xmlns="http://www.w3.org/2000/svg">
<mask id="mask0_130_1414" style="mask-type:alpha" maskUnits="userSpaceOnUse" x="0" y="0" width="17" height="21">
<path fill-rule="evenodd" clip-rule="evenodd" d="M0.000183105 0.000396729H16.967V20.356H0.000183105V0.000396729Z" fill="white"/>
</mask>
<g mask="url(#mask0_130_1414)">
<path fill-rule="evenodd" clip-rule="evenodd" d="M8.4836 1.5C7.6356 1.5 2.2856 3.384 1.6686 3.899C1.4866 4.082 1.4796 4.4 1.5186 6.529C1.5366 7.555 1.5616 8.949 1.5616 10.879C1.5616 16.08 7.2836 18.389 8.4826 18.814C9.6806 18.387 15.4056 16.065 15.4056 10.879C15.4056 8.947 15.4306 7.552 15.4496 6.526C15.4876 4.399 15.4806 4.081 15.2876 3.889C14.6826 3.384 9.3316 1.5 8.4836 1.5M8.4836 20.356C8.4106 20.356 8.3376 20.346 8.2666 20.324C7.9316 20.223 0.0615976 17.761 0.0615976 10.879C0.0615976 8.962 0.0365976 7.575 0.0185976 6.557C-0.0274024 4.014 -0.0374024 3.484 0.619598 2.828C1.4046 2.041 7.3496 0 8.4836 0C9.6166 0 15.5616 2.041 16.3486 2.828C17.0046 3.484 16.9946 4.014 16.9486 6.554C16.9306 7.572 16.9056 8.959 16.9056 10.879C16.9056 17.761 9.0356 20.223 8.7006 20.324C8.6296 20.346 8.5566 20.356 8.4836 20.356" fill="black"/>
</g>
<path fill-rule="evenodd" clip-rule="evenodd" d="M7.77707 12.5195V12.5195C7.57807 12.5195 7.38707 12.4405 7.24607 12.2995L5.35407 10.4055C5.06207 10.1125 5.06207 9.6365 5.35507 9.3445C5.64707 9.0515 6.12307 9.0515 6.41607 9.3445L7.77707 10.7075L11.1451 7.3395C11.4381 7.0465 11.9121 7.0465 12.2051 7.3395C12.4981 7.6325 12.4981 8.1075 12.2051 8.4005L8.30707 12.2995C8.16707 12.4405 7.97607 12.5195 7.77707 12.5195" fill="black"/>
</svg>
