<svg width="20" height="18" viewBox="0 0 20 18" fill="none" xmlns="http://www.w3.org/2000/svg">
<path d="M14.8396 2.79645C15.2193 2.79645 15.5331 3.0786 15.5828 3.44468L15.5896 3.54645V17.1642C15.5896 17.5784 15.2538 17.9142 14.8396 17.9142C14.4599 17.9142 14.1461 17.6321 14.0964 17.266L14.0896 17.1642V3.54645C14.0896 3.13223 14.4254 2.79645 14.8396 2.79645Z" fill="black"/>
<path d="M18.3857 12.539C18.6779 12.2454 19.1528 12.2443 19.4464 12.5366C19.7133 12.8022 19.7384 13.2188 19.5213 13.5129L19.4488 13.5972L15.3711 17.6939C15.1045 17.9616 14.6863 17.986 14.3922 17.7669L14.3079 17.6939L10.2302 13.5972C9.93795 13.3036 9.93905 12.8288 10.2326 12.5366C10.4995 12.2709 10.9162 12.2477 11.2093 12.4662L11.2933 12.539L14.8391 16.101L18.3857 12.539Z" fill="black"/>
<path d="M4.91113 0.0828857C5.29083 0.0828857 5.60462 0.36504 5.65429 0.731115L5.66113 0.832886V14.4507C5.66113 14.8649 5.32535 15.2007 4.91113 15.2007C4.53144 15.2007 4.21764 14.9185 4.16798 14.5524L4.16113 14.4507V0.832886C4.16113 0.418672 4.49692 0.0828857 4.91113 0.0828857Z" fill="black"/>
<path d="M4.37972 0.303233C4.64624 0.0354795 5.06449 0.0111383 5.3586 0.230209L5.44283 0.303233L9.52061 4.3999C9.81282 4.69347 9.81172 5.16834 9.51816 5.46056C9.25127 5.72621 8.83455 5.74945 8.54145 5.53092L8.4575 5.45811L4.91105 1.895L1.36505 5.45811C1.0994 5.72499 0.682793 5.75016 0.388679 5.53298L0.304393 5.46056C0.0375118 5.19491 0.012343 4.7783 0.229518 4.48419L0.301942 4.3999L4.37972 0.303233Z" fill="black"/>
</svg>
