<svg width="20" height="19" viewBox="0 0 20 19" fill="none" xmlns="http://www.w3.org/2000/svg">
<mask id="mask0_130_1891" style="mask-type:alpha" maskUnits="userSpaceOnUse" x="0" y="0" width="20" height="19">
<path fill-rule="evenodd" clip-rule="evenodd" d="M0 0.000488281H20V18.1665H0V0.000488281Z" fill="white"/>
</mask>
<g mask="url(#mask0_130_1891)">
<path fill-rule="evenodd" clip-rule="evenodd" d="M1.5 11.9795V14.0245C1.5 14.7305 1.774 15.3935 2.273 15.8925C2.772 16.3915 3.436 16.6665 4.141 16.6665H15.857C17.313 16.6665 18.499 15.4825 18.5 14.0265V11.9785C17.214 11.6455 16.261 10.4745 16.26 9.08549C16.26 7.69649 17.213 6.52549 18.499 6.19149L18.5 4.14649C18.501 2.68849 17.318 1.50149 15.861 1.50049H4.144C2.687 1.50049 1.501 2.68549 1.5 4.14249V6.25949C1.986 6.37549 2.437 6.61449 2.812 6.96449C3.381 7.49549 3.709 8.21549 3.737 8.99349C3.74 10.4595 2.787 11.6435 1.5 11.9795M15.857 18.1665H4.142C3.035 18.1665 1.995 17.7365 1.212 16.9535C0.43 16.1705 0 15.1305 0 14.0245V11.3245C0 10.9105 0.336 10.5745 0.75 10.5745C1.574 10.5735 2.24 9.90549 2.239 9.08549C2.225 8.66749 2.065 8.31949 1.789 8.06149C1.514 7.80349 1.158 7.66249 0.776 7.68349C0.569 7.68549 0.375 7.61449 0.229 7.47349C0.083 7.33249 0 7.13649 0 6.93349V4.14349C0.001 1.85849 1.86 0.000488281 4.144 0.000488281H15.856C18.146 0.00148828 20.002 1.86349 20 4.14749V6.84649C20 7.26049 19.664 7.59649 19.25 7.59649C18.429 7.59649 17.76 8.26449 17.76 9.08449C17.761 9.90649 18.429 10.5745 19.25 10.5745C19.664 10.5745 20 10.9105 20 11.3245V14.0245C19.999 16.3085 18.14 18.1665 15.857 18.1665" fill="black"/>
</g>
<path fill-rule="evenodd" clip-rule="evenodd" d="M8.10395 8.38149L8.61295 8.87749C8.88895 9.14849 9.01395 9.53449 8.94795 9.91149L8.82795 10.6095L9.45695 10.2785C9.79595 10.0975 10.203 10.0985 10.545 10.2805L11.17 10.6085L11.05 9.90949C10.987 9.52649 11.113 9.14349 11.386 8.87749L11.895 8.38149L11.19 8.27949C10.812 8.22449 10.484 7.98649 10.315 7.64149L9.99995 7.00449L9.68495 7.64249C9.51595 7.98649 9.18795 8.22449 8.80795 8.27949L8.10395 8.38149ZM11.6179 12.3875C11.4319 12.3875 11.246 12.3425 11.074 12.2515L9.99995 11.6885L8.92495 12.2525C8.52895 12.4595 8.05795 12.4265 7.69795 12.1645C7.33695 11.9015 7.15995 11.4655 7.23495 11.0255L7.43995 9.82949L6.57095 8.98249C6.25195 8.67149 6.13795 8.21449 6.27495 7.79049C6.41295 7.36549 6.77295 7.06049 7.21395 6.99649L8.41795 6.82049L8.95495 5.73149C9.15195 5.33149 9.55195 5.08249 9.99995 5.08249C10.446 5.08249 10.847 5.33149 11.044 5.73249L11.582 6.82049L12.784 6.99649C13.226 7.06049 13.5869 7.36549 13.7239 7.79049C13.8609 8.21449 13.7479 8.67149 13.4279 8.98349L12.558 9.83049L12.7639 11.0255C12.8389 11.4665 12.661 11.9035 12.299 12.1655C12.095 12.3125 11.8569 12.3875 11.6179 12.3875V12.3875Z" fill="black"/>
</svg>
