<svg width="20" height="20" viewBox="0 0 20 20" fill="none" xmlns="http://www.w3.org/2000/svg">
<path fill-rule="evenodd" clip-rule="evenodd" d="M5.665 1.5C3.135 1.5 1.5 3.233 1.5 5.916V14.084C1.5 16.767 3.135 18.5 5.665 18.5H14.333C16.864 18.5 18.5 16.767 18.5 14.084V5.916C18.5 3.233 16.865 1.5 14.334 1.5H5.665ZM14.333 20H5.665C2.276 20 0 17.622 0 14.084V5.916C0 2.378 2.276 0 5.665 0H14.334C17.723 0 20 2.378 20 5.916V14.084C20 17.622 17.723 20 14.333 20V20Z" fill="black"/>
<path fill-rule="evenodd" clip-rule="evenodd" d="M13.3901 12.7676C13.2591 12.7676 13.1271 12.7336 13.0061 12.6626L9.61508 10.6396C9.38908 10.5036 9.24908 10.2586 9.24908 9.99561V5.63361C9.24908 5.21961 9.58508 4.88361 9.99908 4.88361C10.4131 4.88361 10.7491 5.21961 10.7491 5.63361V9.56961L13.7751 11.3726C14.1301 11.5856 14.2471 12.0456 14.0351 12.4016C13.8941 12.6366 13.6451 12.7676 13.3901 12.7676" fill="black"/>
</svg>
