<svg width="17" height="20" viewBox="0 0 17 20" fill="none" xmlns="http://www.w3.org/2000/svg">
<path fill-rule="evenodd" clip-rule="evenodd" d="M3.80273 8.19831C3.38873 8.19831 3.05273 7.86231 3.05273 7.44831V5.30131C3.06573 2.36331 5.44173 0.000305176 8.35473 0.000305176H8.37473C10.6307 0.000305176 12.6447 1.43331 13.3837 3.56731C13.5197 3.95831 13.3117 4.38531 12.9197 4.52131C12.5287 4.65831 12.1017 4.44931 11.9657 4.05731C11.4367 2.52831 9.99173 1.50031 8.37173 1.50031H8.35773C6.26573 1.50031 4.56173 3.19431 4.55273 5.28431V7.44831C4.55273 7.86231 4.21673 8.19831 3.80273 8.19831" fill="black"/>
<path fill-rule="evenodd" clip-rule="evenodd" d="M4.542 8.12701C2.864 8.12701 1.5 9.49201 1.5 11.17V15.458C1.5 17.136 2.864 18.501 4.542 18.501H12.184C13.861 18.501 15.226 17.136 15.226 15.458V11.17C15.226 9.49201 13.861 8.12701 12.184 8.12701H4.542ZM12.184 20.001H4.542C2.037 20.001 0 17.963 0 15.458V11.17C0 8.66501 2.037 6.62701 4.542 6.62701H12.184C14.688 6.62701 16.726 8.66501 16.726 11.17V15.458C16.726 17.963 14.688 20.001 12.184 20.001V20.001Z" fill="black"/>
<path fill-rule="evenodd" clip-rule="evenodd" d="M8.36328 15.1748C7.94928 15.1748 7.61328 14.8388 7.61328 14.4248V12.2028C7.61328 11.7888 7.94928 11.4528 8.36328 11.4528C8.77728 11.4528 9.11328 11.7888 9.11328 12.2028V14.4248C9.11328 14.8388 8.77728 15.1748 8.36328 15.1748" fill="black"/>
</svg>
