<svg width="20" height="21" viewBox="0 0 20 21" fill="none" xmlns="http://www.w3.org/2000/svg">
<mask id="mask0_130_1717" style="mask-type:alpha" maskUnits="userSpaceOnUse" x="0" y="6" width="20" height="15">
<path fill-rule="evenodd" clip-rule="evenodd" d="M0.000366211 6.7941H20V20.5381H0.000366211V6.7941Z" fill="white"/>
</mask>
<g mask="url(#mask0_130_1717)">
<path fill-rule="evenodd" clip-rule="evenodd" d="M15.5654 20.5381H4.43537C1.99037 20.5381 0.000366211 18.5491 0.000366211 16.1031V11.2281C0.000366211 8.7831 1.99037 6.7941 4.43537 6.7941H5.36837C5.78237 6.7941 6.11837 7.1301 6.11837 7.5441C6.11837 7.9581 5.78237 8.2941 5.36837 8.2941H4.43537C2.81637 8.2941 1.50037 9.6101 1.50037 11.2281V16.1031C1.50037 17.7221 2.81637 19.0381 4.43537 19.0381H15.5654C17.1834 19.0381 18.5004 17.7221 18.5004 16.1031V11.2191C18.5004 9.6061 17.1884 8.2941 15.5764 8.2941H14.6334C14.2194 8.2941 13.8834 7.9581 13.8834 7.5441C13.8834 7.1301 14.2194 6.7941 14.6334 6.7941H15.5764C18.0154 6.7941 20.0004 8.7791 20.0004 11.2191V16.1031C20.0004 18.5491 18.0104 20.5381 15.5654 20.5381" fill="black"/>
</g>
<mask id="mask1_130_1717" style="mask-type:alpha" maskUnits="userSpaceOnUse" x="9" y="0" width="2" height="14">
<path fill-rule="evenodd" clip-rule="evenodd" d="M9.25 9.15527e-05H10.75V13.541H9.25V9.15527e-05Z" fill="white"/>
</mask>
<g mask="url(#mask1_130_1717)">
<path fill-rule="evenodd" clip-rule="evenodd" d="M10 13.541C9.586 13.541 9.25 13.205 9.25 12.791V0.75C9.25 0.336 9.586 0 10 0C10.414 0 10.75 0.336 10.75 0.75V12.791C10.75 13.205 10.414 13.541 10 13.541" fill="black"/>
</g>
<path fill-rule="evenodd" clip-rule="evenodd" d="M7.08496 4.42868C6.89396 4.42868 6.70196 4.35568 6.55596 4.20968C6.26296 3.91768 6.26096 3.44368 6.55396 3.14968L9.46896 0.22168C9.74996 -0.0613201 10.25 -0.0613201 10.531 0.22168L13.447 3.14968C13.739 3.44368 13.738 3.91768 13.445 4.20968C13.151 4.50168 12.677 4.50168 12.385 4.20768L9.99996 1.81368L7.61596 4.20768C7.46996 4.35568 7.27696 4.42868 7.08496 4.42868" fill="black"/>
</svg>
