<svg width="21" height="16" viewBox="0 0 21 16" fill="none" xmlns="http://www.w3.org/2000/svg">
<mask id="mask0_130_1845" style="mask-type:alpha" maskUnits="userSpaceOnUse" x="0" y="0" width="16" height="16">
<path fill-rule="evenodd" clip-rule="evenodd" d="M0.000183105 0.000244141H15.5005V15.5016H0.000183105V0.000244141Z" fill="white"/>
</mask>
<g mask="url(#mask0_130_1845)">
<path fill-rule="evenodd" clip-rule="evenodd" d="M4.84729 1.50159C4.40829 1.50159 4.12529 1.50159 4.07629 1.50359C3.33829 1.53459 2.65729 1.84759 2.16629 2.38359C1.70829 2.88459 1.47229 3.52459 1.50329 4.18859C1.50329 7.08159 1.50429 11.4236 1.51129 11.6616C1.62529 13.0466 2.92329 14.1056 4.40929 13.9916C7.15929 13.9956 11.2333 14.0046 11.4243 13.9976C12.1593 13.9676 12.8413 13.6556 13.3323 13.1206C13.7913 12.6216 14.0273 11.9816 13.9983 11.3206C13.9973 11.3096 13.9973 11.2986 13.9973 11.2876C13.9983 8.42759 13.9983 4.08859 13.9913 3.85559C13.8783 2.46359 12.5743 1.39159 11.0803 1.50859C9.01429 1.50559 6.19529 1.50159 4.84729 1.50159M4.14629 15.5016C2.03229 15.5026 0.18829 13.8826 0.0142901 11.7576C0.0112901 11.7166 0.00129011 11.5916 0.00429011 4.22259C-0.0437099 3.19159 0.33029 2.16759 1.06029 1.37059C1.82229 0.53859 2.87329 0.0535903 4.02029 0.00459027C4.15929 -0.00540973 8.96729 0.00659027 11.0263 0.0105903C13.2763 -0.14741 15.3073 1.52259 15.4883 3.76359C15.4963 3.87259 15.4993 6.39759 15.4973 11.2726C15.5393 12.3286 15.1633 13.3456 14.4373 14.1356C13.6743 14.9666 12.6223 15.4496 11.4763 15.4966C11.3363 15.5066 6.52629 15.4936 4.46429 15.4896C4.35829 15.4976 4.25229 15.5016 4.14629 15.5016" fill="black"/>
</g>
<path fill-rule="evenodd" clip-rule="evenodd" d="M18.8185 13.3493C18.3675 13.3493 17.9225 13.1943 17.5555 12.8933L14.2745 10.1973C13.9545 9.93428 13.9085 9.46128 14.1715 9.14128C14.4335 8.82228 14.9065 8.77428 15.2265 9.03828L18.5065 11.7343C18.7275 11.9143 18.9495 11.8403 19.0355 11.7983C19.1215 11.7583 19.3205 11.6333 19.3205 11.3493L19.3325 4.00028C19.3335 3.71628 19.1335 3.59128 19.0475 3.55028C18.9625 3.51028 18.7375 3.43528 18.5185 3.61528L15.2255 6.31028C14.9035 6.57328 14.4325 6.52628 14.1705 6.20428C13.9075 5.88428 13.9555 5.41228 14.2755 5.15028L17.5685 2.45428C18.1725 1.95928 18.9855 1.86228 19.6905 2.19528C20.3955 2.53028 20.8335 3.22228 20.8325 4.00228L20.8205 11.3513C20.8195 12.1313 20.3805 12.8233 19.6765 13.1553C19.4005 13.2863 19.1085 13.3493 18.8185 13.3493" fill="black"/>
</svg>
