<svg width="21" height="16" viewBox="0 0 21 16" fill="none" xmlns="http://www.w3.org/2000/svg">
<mask id="mask0_130_1403" style="mask-type:alpha" maskUnits="userSpaceOnUse" x="0" y="0" width="13" height="16">
<path fill-rule="evenodd" clip-rule="evenodd" d="M0.00012207 0.000213623H12.0201V15.5021H0.00012207V0.000213623Z" fill="white"/>
</mask>
<g mask="url(#mask0_130_1403)">
<path fill-rule="evenodd" clip-rule="evenodd" d="M9.20811 1.5061C8.34011 1.5061 7.23011 2.3871 6.30611 3.1211C5.41711 3.8261 4.71511 4.3841 4.01511 4.4361C3.70511 4.4581 3.43911 4.4681 3.20511 4.4761C2.45811 4.5011 2.26911 4.5181 1.93211 4.7961C1.49011 5.1591 1.49711 6.6421 1.50111 7.5271L1.50211 7.7481V7.7521L1.50111 7.9731C1.49711 8.8591 1.49011 10.3421 1.93211 10.7051C2.26811 10.9831 2.45711 10.9991 3.20211 11.0261C3.43711 11.0331 3.70411 11.0431 4.01511 11.0661C4.71511 11.1171 5.41711 11.6751 6.30611 12.3801C7.40911 13.2551 8.77511 14.3401 9.68111 13.8891C10.4391 13.2321 10.5201 11.4901 10.5201 7.7501C10.5201 4.0101 10.4391 2.2691 9.68111 1.6111C9.53411 1.5381 9.37511 1.5061 9.20811 1.5061M9.21811 15.5021C7.82711 15.5021 6.44811 14.4071 5.37411 13.5551C4.88911 13.1701 4.15611 12.5881 3.90311 12.5621C3.61611 12.5401 3.36811 12.5311 3.14911 12.5251C2.35111 12.4961 1.72011 12.4751 0.978106 11.8631C-0.0138943 11.0461 -0.00489435 9.3381 0.00110565 7.9661L0.00210565 7.7501L0.00110565 7.5341C-0.00489435 6.1621 -0.0138943 4.4551 0.978106 3.6381C1.72111 3.0261 2.35311 3.0041 3.15311 2.9771C3.37111 2.9691 3.61811 2.9611 3.90511 2.9401C4.15611 2.9131 4.88911 2.3311 5.37411 1.9461C6.77311 0.8351 8.68911 -0.6819 10.4741 0.3351C10.5051 0.3541 10.5361 0.3741 10.5641 0.3971C11.9581 1.4921 12.0201 3.5571 12.0201 7.7501C12.0201 11.9441 11.9581 14.0091 10.5641 15.1051C10.5361 15.1271 10.5051 15.1481 10.4731 15.1661C10.0591 15.4021 9.63811 15.5021 9.21811 15.5021" fill="black"/>
</g>
<mask id="mask1_130_1403" style="mask-type:alpha" maskUnits="userSpaceOnUse" x="17" y="0" width="4" height="15">
<path fill-rule="evenodd" clip-rule="evenodd" d="M17.0839 0.903595H20.484V14.5959H17.0839V0.903595Z" fill="white"/>
</mask>
<g mask="url(#mask1_130_1403)">
<path fill-rule="evenodd" clip-rule="evenodd" d="M17.8336 14.5959C17.6856 14.5959 17.5366 14.5519 17.4056 14.4609C17.0656 14.2249 16.9816 13.7579 17.2186 13.4169C19.6116 9.97691 19.6116 5.52791 17.2186 2.08191C16.9816 1.74191 17.0656 1.27491 17.4066 1.03791C17.7466 0.800914 18.2126 0.885914 18.4496 1.22691C21.1626 5.13091 21.1626 10.3739 18.4496 14.2749C18.3036 14.4839 18.0706 14.5959 17.8336 14.5959" fill="black"/>
</g>
<path fill-rule="evenodd" clip-rule="evenodd" d="M15.3306 12.1868C15.2036 12.1868 15.0756 12.1548 14.9576 12.0868C14.5986 11.8808 14.4746 11.4218 14.6806 11.0638C15.8516 9.0228 15.8516 6.4848 14.6806 4.4378C14.4746 4.0778 14.5996 3.6198 14.9586 3.4138C15.3186 3.2118 15.7756 3.3328 15.9816 3.6918C17.4166 6.1998 17.4166 9.3098 15.9816 11.8098C15.8426 12.0518 15.5906 12.1868 15.3306 12.1868" fill="black"/>
</svg>
