<svg width="18" height="18" viewBox="0 0 18 18" fill="none" xmlns="http://www.w3.org/2000/svg">
<mask id="mask0_130_1364" style="mask-type:alpha" maskUnits="userSpaceOnUse" x="0" y="0" width="13" height="14">
<path fill-rule="evenodd" clip-rule="evenodd" d="M0 0.601044H12.0337V13.7873H0V0.601044Z" fill="white"/>
</mask>
<g mask="url(#mask0_130_1364)">
<path fill-rule="evenodd" clip-rule="evenodd" d="M9.23051 2.1113C8.36451 2.1113 7.25151 3.0273 6.32551 3.7893C5.43551 4.5213 4.73351 5.0993 4.02851 5.1553C3.71351 5.1793 3.44351 5.1903 3.20551 5.1993C2.46651 5.2263 2.27951 5.2443 1.94751 5.5283C1.49451 5.9153 1.49851 7.4633 1.50051 8.3873L1.50151 8.6333L1.50051 8.8803C1.49851 9.8043 1.49451 11.3523 1.94751 11.7393C2.28651 12.0293 2.47851 12.0473 3.23551 12.0733C3.46451 12.0813 3.72351 12.0903 4.02251 12.1113C4.10851 12.1173 4.19651 12.1313 4.28651 12.1533L10.5245 5.9153C10.4515 3.6903 10.2265 2.6923 9.69651 2.2183C9.55251 2.1443 9.39651 2.1113 9.23051 2.1113M4.46351 13.7873C4.33451 13.7873 4.20551 13.7543 4.08851 13.6863C3.96851 13.6173 3.91351 13.6073 3.91351 13.6073C3.63751 13.5883 3.39751 13.5793 3.18351 13.5723C2.36751 13.5443 1.72251 13.5213 0.97251 12.8803C-0.00748998 12.0423 -0.00348994 10.2873 0.000510062 8.8763L0.00151006 8.6333L0.000510062 8.3913C-0.00348994 6.9803 -0.00748992 5.2243 0.97351 4.3873C1.71351 3.7543 2.34751 3.7303 3.14851 3.7003C3.36951 3.6913 3.61851 3.6823 3.91051 3.6593C4.16151 3.6273 4.89051 3.0273 5.37251 2.6313C6.77851 1.4723 8.70551 -0.1137 10.5075 0.9543C10.5405 0.9723 10.5715 0.9943 10.6005 1.0183C11.7245 1.9333 11.9645 3.4813 12.0335 6.1983C12.0385 6.4033 11.9595 6.6013 11.8135 6.7473L4.99451 13.5673C4.84951 13.7123 4.65751 13.7873 4.46351 13.7873" fill="black"/>
</g>
<path fill-rule="evenodd" clip-rule="evenodd" d="M9.23291 16.666C8.22291 16.666 7.26391 16.081 6.55291 15.566C6.21691 15.324 6.14191 14.855 6.38391 14.52C6.62791 14.184 7.09691 14.107 7.43191 14.352C8.74491 15.301 9.33691 15.238 9.69591 15.05C10.2779 14.531 10.4989 13.363 10.5329 10.657C10.5389 10.243 10.8419 9.92099 11.2929 9.91699C11.7069 9.92299 12.0389 10.263 12.0329 10.677C11.9949 13.632 11.7629 15.305 10.5999 16.25C10.5699 16.273 10.5399 16.295 10.5079 16.313C10.0839 16.564 9.65391 16.666 9.23291 16.666" fill="black"/>
<mask id="mask1_130_1364" style="mask-type:alpha" maskUnits="userSpaceOnUse" x="0" y="0" width="18" height="18">
<path fill-rule="evenodd" clip-rule="evenodd" d="M0.00170898 0.000244141H17.5V17.5H0.00170898V0.000244141Z" fill="white"/>
</mask>
<g mask="url(#mask1_130_1364)">
<path fill-rule="evenodd" clip-rule="evenodd" d="M0.751459 17.5C0.559459 17.5 0.367459 17.427 0.221459 17.28C-0.071541 16.987 -0.071541 16.513 0.221459 16.22L16.2205 0.219994C16.5135 -0.0730059 16.9875 -0.0730059 17.2805 0.219994C17.5735 0.512994 17.5735 0.986994 17.2805 1.27999L1.28146 17.28C1.13546 17.427 0.943459 17.5 0.751459 17.5" fill="black"/>
</g>
</svg>
