<svg width="21" height="20" viewBox="0 0 21 20" fill="none" xmlns="http://www.w3.org/2000/svg">
<path fill-rule="evenodd" clip-rule="evenodd" d="M19.8887 12.8956H15.8407C13.9437 12.8956 12.3997 11.3526 12.3987 9.45661C12.3987 7.55861 13.9427 6.01461 15.8407 6.01361H19.8887C20.3027 6.01361 20.6387 6.34961 20.6387 6.76361C20.6387 7.17761 20.3027 7.51361 19.8887 7.51361H15.8407C14.7697 7.51461 13.8987 8.38561 13.8987 9.45561C13.8987 10.5246 14.7707 11.3956 15.8407 11.3956H19.8887C20.3027 11.3956 20.6387 11.7316 20.6387 12.1456C20.6387 12.5596 20.3027 12.8956 19.8887 12.8956" fill="black"/>
<path fill-rule="evenodd" clip-rule="evenodd" d="M16.2983 10.1436H15.9863C15.5723 10.1436 15.2363 9.80762 15.2363 9.39362C15.2363 8.97962 15.5723 8.64362 15.9863 8.64362H16.2983C16.7123 8.64362 17.0483 8.97962 17.0483 9.39362C17.0483 9.80762 16.7123 10.1436 16.2983 10.1436" fill="black"/>
<mask id="mask0_130_1959" style="mask-type:alpha" maskUnits="userSpaceOnUse" x="0" y="0" width="21" height="20">
<path fill-rule="evenodd" clip-rule="evenodd" d="M0 0H20.6386V19.1729H0V0Z" fill="white"/>
</mask>
<g mask="url(#mask0_130_1959)">
<path fill-rule="evenodd" clip-rule="evenodd" d="M5.99757 1.5C3.51757 1.5 1.49957 3.518 1.49957 5.998V13.175C1.49957 15.655 3.51757 17.673 5.99757 17.673H14.6416C17.1216 17.673 19.1386 15.655 19.1386 13.175V5.998C19.1386 3.518 17.1216 1.5 14.6416 1.5H5.99757ZM14.6416 19.173H5.99757C2.69057 19.173 -0.000427246 16.482 -0.000427246 13.175V5.998C-0.000427246 2.69 2.69057 0 5.99757 0H14.6416C17.9486 0 20.6386 2.69 20.6386 5.998V13.175C20.6386 16.482 17.9486 19.173 14.6416 19.173V19.173Z" fill="black"/>
</g>
<path fill-rule="evenodd" clip-rule="evenodd" d="M10.6846 6.03809H5.28558C4.87158 6.03809 4.53558 5.70209 4.53558 5.28809C4.53558 4.87409 4.87158 4.53809 5.28558 4.53809H10.6846C11.0986 4.53809 11.4346 4.87409 11.4346 5.28809C11.4346 5.70209 11.0986 6.03809 10.6846 6.03809" fill="black"/>
</svg>
