<svg width="194" height="123" viewBox="0 0 194 123" fill="none" xmlns="http://www.w3.org/2000/svg">
<mask id="path-1-inside-1_365_1947" fill="white">
<path fill-rule="evenodd" clip-rule="evenodd" d="M4 0C1.79086 0 0 1.79086 0 4V94.4105C0 96.6197 1.79087 98.4105 4.00001 98.4105H131.964L150.584 121.35C151.706 122.732 153.946 121.855 154.056 119.991L155.326 98.4105H189.562C191.771 98.4105 193.562 96.6197 193.562 94.4105V4C193.562 1.79086 191.771 0 189.562 0H4Z"/>
</mask>
<path fill-rule="evenodd" clip-rule="evenodd" d="M4 0C1.79086 0 0 1.79086 0 4V94.4105C0 96.6197 1.79087 98.4105 4.00001 98.4105H131.964L150.584 121.35C151.706 122.732 153.946 121.855 154.056 119.991L155.326 98.4105H189.562C191.771 98.4105 193.562 96.6197 193.562 94.4105V4C193.562 1.79086 191.771 0 189.562 0H4Z" fill="#E89A5E"/>
<path d="M131.964 98.4105L133.517 97.1501L132.917 96.4105H131.964V98.4105ZM150.584 121.35L149.031 122.61V122.61L150.584 121.35ZM154.056 119.991L152.059 119.873L152.059 119.873L154.056 119.991ZM155.326 98.4105V96.4105H153.44L153.329 98.293L155.326 98.4105ZM2 4C2 2.89543 2.89543 2 4 2V-2C0.686294 -2 -2 0.686285 -2 4H2ZM2 94.4105V4H-2V94.4105H2ZM4.00001 96.4105C2.89543 96.4105 2 95.5151 2 94.4105H-2C-2 97.7242 0.686302 100.411 4.00001 100.411V96.4105ZM131.964 96.4105H4.00001V100.411H131.964V96.4105ZM152.137 120.089L133.517 97.1501L130.411 99.671L149.031 122.61L152.137 120.089ZM152.059 119.873C152.057 119.91 152.05 119.933 152.045 119.946C152.04 119.96 152.034 119.971 152.027 119.981C152.011 120.003 151.988 120.018 151.97 120.025C151.952 120.032 151.97 120.019 152.023 120.031C152.05 120.037 152.079 120.049 152.105 120.065C152.131 120.081 152.14 120.094 152.137 120.089L149.031 122.61C150.216 124.069 152.021 124.301 153.429 123.75C154.818 123.206 155.948 121.872 156.052 120.108L152.059 119.873ZM153.329 98.293L152.059 119.873L156.052 120.108L157.322 98.5281L153.329 98.293ZM189.562 96.4105H155.326V100.411H189.562V96.4105ZM191.562 94.4105C191.562 95.5151 190.666 96.4105 189.562 96.4105V100.411C192.875 100.411 195.562 97.7242 195.562 94.4105H191.562ZM191.562 4V94.4105H195.562V4H191.562ZM189.562 2C190.666 2 191.562 2.89543 191.562 4H195.562C195.562 0.686291 192.875 -2 189.562 -2V2ZM4 2H189.562V-2H4V2Z" fill="black" mask="url(#path-1-inside-1_365_1947)"/>
</svg>
