<svg width="293" height="296" viewBox="0 0 293 296" fill="none" xmlns="http://www.w3.org/2000/svg">
<g filter="url(#filter0_d_400_1875)">
<mask id="path-1-inside-1_400_1875" fill="white">
<path fill-rule="evenodd" clip-rule="evenodd" d="M4 0C1.79086 0 0 1.79086 0 4V259.244C0 261.453 1.79086 263.244 4 263.244H202.348L240.513 290.267C241.976 291.303 243.985 290.227 243.749 288.535L240.217 263.244H284C286.209 263.244 288 261.453 288 259.244V4C288 1.79086 286.209 0 284 0H4Z"/>
</mask>
<path fill-rule="evenodd" clip-rule="evenodd" d="M4 0C1.79086 0 0 1.79086 0 4V259.244C0 261.453 1.79086 263.244 4 263.244H202.348L240.513 290.267C241.976 291.303 243.985 290.227 243.749 288.535L240.217 263.244H284C286.209 263.244 288 261.453 288 259.244V4C288 1.79086 286.209 0 284 0H4Z" fill="white"/>
<path d="M202.348 263.244L204.659 259.98L203.621 259.244H202.348V263.244ZM240.513 290.267L238.201 293.531H238.201L240.513 290.267ZM243.749 288.535L239.788 289.088L243.749 288.535ZM240.217 263.244V259.244H235.62L236.256 263.798L240.217 263.244ZM4 4V-4C-0.418278 -4 -4 -0.418278 -4 4H4ZM4 259.244V4H-4V259.244H4ZM4 259.244H4H-4C-4 263.663 -0.418275 267.244 4 267.244V259.244ZM202.348 259.244H4V267.244H202.348V259.244ZM242.824 287.002L204.659 259.98L200.036 266.509L238.201 293.531L242.824 287.002ZM239.788 289.088C239.644 288.061 240.257 287.231 240.881 286.897C241.476 286.579 242.242 286.59 242.824 287.002L238.201 293.531C240.247 294.98 242.749 294.971 244.656 293.951C246.591 292.915 248.09 290.701 247.711 287.982L239.788 289.088ZM236.256 263.798L239.788 289.088L247.711 287.982L244.179 262.691L236.256 263.798ZM284 259.244H240.217V267.244H284V259.244ZM284 259.244V267.244C288.418 267.244 292 263.663 292 259.244H284ZM284 4V259.244H292V4H284ZM284 4H292C292 -0.418279 288.418 -4 284 -4V4ZM4 4H284V-4H4V4Z" fill="black" mask="url(#path-1-inside-1_400_1875)"/>
</g>
<defs>
<filter id="filter0_d_400_1875" x="0" y="0" width="293" height="295.674" filterUnits="userSpaceOnUse" color-interpolation-filters="sRGB">
<feFlood flood-opacity="0" result="BackgroundImageFix"/>
<feColorMatrix in="SourceAlpha" type="matrix" values="0 0 0 0 0 0 0 0 0 0 0 0 0 0 0 0 0 0 127 0" result="hardAlpha"/>
<feOffset dx="5" dy="5"/>
<feComposite in2="hardAlpha" operator="out"/>
<feColorMatrix type="matrix" values="0 0 0 0 0 0 0 0 0 0 0 0 0 0 0 0 0 0 1 0"/>
<feBlend mode="normal" in2="BackgroundImageFix" result="effect1_dropShadow_400_1875"/>
<feBlend mode="normal" in="SourceGraphic" in2="effect1_dropShadow_400_1875" result="shape"/>
</filter>
</defs>
</svg>
