<svg width="191" height="144" viewBox="0 0 191 144" fill="none" xmlns="http://www.w3.org/2000/svg">
<path fill-rule="evenodd" clip-rule="evenodd" d="M176.158 108.364C183.353 98.6081 187.445 87.4089 187.445 75.5C187.445 37.6685 146.155 7 95.2224 7C44.2894 7 3 37.6685 3 75.5C3 113.332 44.2894 144 95.2224 144C114.966 144 133.26 139.392 148.262 131.544L190.542 139.24L176.158 108.364Z" fill="black"/>
<path d="M173.158 101.364C180.353 91.6081 184.445 80.4089 184.445 68.5C184.445 30.6685 143.155 0 92.2224 0C41.2894 0 0 30.6685 0 68.5C0 106.332 41.2894 137 92.2224 137C111.966 137 130.26 132.392 145.262 124.544L187.542 132.24L173.158 101.364Z" fill="white"/>
</svg>
