<svg width="1227" height="982" viewBox="0 0 1227 982" fill="none" xmlns="http://www.w3.org/2000/svg">
<path opacity="0.1" d="M1112.03 806.166C1079.29 836.962 1039.34 833.705 1004.09 848.084C937.654 875.187 891.586 955.223 863.576 1026.38C854.194 1050.2 844.709 1075.78 825.9 1094.37C802.904 1117.13 772.255 1122.77 747.66 1119.14C702.853 1112.51 669.438 1079.08 660.714 1032.1C653.176 991.51 663.067 943.174 654.395 903.157C639.788 836.295 576.734 807.186 513.144 794.68C468.135 785.874 416.193 779.672 398.197 737.255C385.547 707.397 393.612 665.58 410.051 627.629C418.018 609.279 428.081 590.557 429.86 572.419C430.923 561.622 428.932 551.789 426.164 542.649C400.907 459.038 313.325 423.525 293.094 336.963C279.41 278.501 299.528 204.692 334.682 138.97C369.836 73.2487 418.863 14.0033 468.485 -43.0341C503.779 -83.6059 542.753 -125.734 587.716 -142.931C635.274 -161.114 680.217 -146.145 706.589 -114.651C732.961 -83.1559 743.009 -37.1848 746.402 10.14C750.662 69.3301 745.915 135.028 773.462 179.5C792.219 209.79 823.94 226.547 852.445 246.257C900.084 279.225 940.053 321.881 979.33 364.854C998.443 385.822 1017.49 407.023 1034.95 429.684C1038.87 434.759 1042.71 439.929 1046.48 445.193C1048.36 447.838 1050.22 450.507 1052.05 453.189C1053.49 455.28 1054.86 457.44 1056.29 459.525C1058.5 462.879 1060.66 466.276 1062.77 469.713C1068.84 479.576 1074.5 489.784 1079.7 500.404C1097.74 537.347 1101.02 581.037 1114.49 620.421C1123.26 646.093 1140.25 664.745 1145.59 692.792C1152.19 727.267 1146.46 773.784 1112.03 806.166Z" fill="#E89A5E"/>
<path d="M911 684C976.722 684 1030 669.897 1030 652.5C1030 635.103 976.722 621 911 621C845.278 621 792 635.103 792 652.5C792 669.897 845.278 684 911 684Z" fill="#E5E5E5"/>
<path d="M437.392 452.574C438.102 454.227 438.852 455.899 439.623 457.541L437.972 458.316C437.192 456.655 436.434 454.966 435.716 453.294L437.392 452.574Z" fill="#E6E6E6"/>
<path d="M731.895 320.298C732.937 322.519 733.938 324.782 734.87 327.025L733.185 327.725C731.79 324.367 730.247 320.983 728.619 317.709L730.253 316.897C730.811 318.021 731.359 319.154 731.895 320.298ZM724.963 307.104L723.389 308.026C721.54 304.866 719.563 301.737 717.511 298.723L719.019 297.696C721.093 300.744 723.093 303.908 724.963 307.104ZM738.793 337.439C739.978 340.946 741.056 344.532 741.995 348.098L740.231 348.562C739.302 345.037 738.237 341.492 737.064 338.024L738.793 337.439ZM712.444 288.718L711.01 289.847C708.752 286.975 706.364 284.146 703.913 281.438L705.265 280.213C707.744 282.953 710.16 285.814 712.444 288.718ZM744.456 358.954C745.149 362.582 745.723 366.283 746.164 369.954L744.353 370.172C743.917 366.542 743.349 362.883 742.664 359.295L744.456 358.954ZM697.516 272.225L696.252 273.541C693.62 271.01 690.868 268.539 688.074 266.198L689.246 264.799C692.071 267.167 694.854 269.665 697.516 272.225ZM747.11 381.062C747.297 384.762 747.356 388.511 747.287 392.205L745.462 392.171C745.531 388.519 745.472 384.812 745.288 381.154L747.11 381.062ZM680.482 257.957L679.41 259.433C676.455 257.287 673.389 255.215 670.298 253.278L671.267 251.731C674.393 253.691 677.493 255.786 680.482 257.957ZM746.697 403.331C746.374 407.02 745.92 410.739 745.346 414.388L743.544 414.104C744.111 410.497 744.561 406.819 744.88 403.171L746.697 403.331ZM661.646 246.15L660.786 247.759C657.565 246.034 654.245 244.4 650.917 242.901L651.665 241.236C655.032 242.753 658.39 244.406 661.646 246.15ZM743.242 425.325C742.421 428.927 741.464 432.549 740.398 436.091L738.652 435.564C739.705 432.062 740.651 428.481 741.463 424.919L743.242 425.325ZM641.371 237.014L640.737 238.725C637.311 237.455 633.799 236.286 630.295 235.252L630.812 233.501C634.355 234.548 637.907 235.729 641.371 237.014ZM736.828 446.635C735.524 450.095 734.084 453.553 732.55 456.911L730.891 456.152C732.409 452.831 733.832 449.413 735.121 445.992L736.828 446.635ZM620.034 230.718L619.638 232.499C616.075 231.706 612.435 231.027 608.819 230.479L609.092 228.675C612.749 229.228 616.431 229.916 620.034 230.718ZM727.583 466.869C725.822 470.118 723.926 473.346 721.949 476.463L720.409 475.486C722.363 472.404 724.238 469.212 725.98 465.999L727.583 466.869ZM598.032 227.386L597.883 229.204C594.239 228.905 590.539 228.73 586.884 228.683L586.908 226.859C590.604 226.906 594.346 227.083 598.032 227.386V227.386ZM715.675 485.647C713.489 488.623 711.171 491.56 708.787 494.376L707.395 493.197C709.752 490.412 712.044 487.508 714.206 484.566L715.675 485.647ZM575.772 227.098L575.875 228.92C572.223 229.126 568.531 229.462 564.902 229.919L564.675 228.108C568.345 227.645 572.079 227.306 575.772 227.098ZM701.319 502.607C698.743 505.258 696.041 507.851 693.29 510.315L692.074 508.955C694.794 506.519 697.464 503.955 700.012 501.335L701.319 502.607ZM553.689 229.88L554.041 231.672C550.456 232.378 546.852 233.218 543.328 234.168L542.853 232.406C546.418 231.445 550.063 230.596 553.689 229.88ZM684.749 517.448C681.834 519.717 678.802 521.913 675.738 523.976L674.719 522.462C677.75 520.422 680.747 518.251 683.629 516.008L684.749 517.448ZM532.218 235.669L532.812 237.395C529.364 238.584 525.909 239.909 522.54 241.333L521.831 239.652C525.236 238.212 528.731 236.872 532.218 235.669ZM666.3 529.869C663.107 531.715 659.804 533.477 656.483 535.107L655.68 533.468C658.964 531.856 662.23 530.114 665.387 528.289L666.3 529.869ZM512.557 245.96C509.292 247.608 506.045 249.386 502.908 251.246L501.978 249.677C505.151 247.795 508.433 245.996 511.735 244.33L512.557 245.96ZM493.642 257.178C490.631 259.256 487.658 261.461 484.806 263.734L483.67 262.306C486.554 260.008 489.561 257.777 492.607 255.676L493.642 257.178ZM476.443 270.883C473.753 273.35 471.115 275.94 468.602 278.584L467.28 277.326C469.822 274.652 472.49 272.032 475.211 269.539L476.443 270.883ZM461.308 286.81C458.979 289.626 456.72 292.557 454.594 295.52L453.112 294.456C455.262 291.459 457.547 288.495 459.902 285.647L461.308 286.81ZM448.492 304.673C446.568 307.784 444.73 310.998 443.028 314.223L441.415 313.371C443.136 310.109 444.995 306.859 446.94 303.712L448.492 304.673ZM438.228 324.126C436.747 327.466 435.362 330.9 434.111 334.334L432.397 333.709C433.662 330.236 435.063 326.763 436.56 323.386L438.228 324.126ZM430.7 344.8C429.685 348.316 428.779 351.908 428.008 355.477L426.225 355.091C427.005 351.482 427.921 347.849 428.947 344.294L430.7 344.8ZM426.049 366.312C425.523 369.936 425.115 373.619 424.838 377.259L423.019 377.121C423.299 373.439 423.711 369.714 424.244 366.049L426.049 366.312ZM424.38 388.266C424.354 391.925 424.455 395.63 424.681 399.279L422.86 399.391C422.632 395.702 422.53 391.954 422.556 388.252L424.38 388.266ZM425.74 410.246C426.217 413.869 426.827 417.521 427.553 421.102L425.765 421.465C425.031 417.843 424.414 414.149 423.932 410.485L425.74 410.246ZM430.11 431.807C431.08 435.327 432.185 438.861 433.395 442.311L431.673 442.915C430.45 439.425 429.332 435.851 428.351 432.293L430.11 431.807Z" fill="#E5E5E5"/>
<path d="M645.396 538.083L646.085 539.772C644.379 540.468 642.654 541.138 640.955 541.764L640.324 540.052C642.003 539.433 643.71 538.77 645.396 538.083Z" fill="#E6E6E6"/>
<path d="M716.5 252C725.613 252 733 244.613 733 235.5C733 226.387 725.613 219 716.5 219C707.387 219 700 226.387 700 235.5C700 244.613 707.387 252 716.5 252Z" fill="#4063DE"/>
<path d="M753.313 287.637C759.009 287.637 763.626 283.017 763.626 277.318C763.626 271.62 759.009 267 753.313 267C747.617 267 743 271.62 743 277.318C743 283.017 747.617 287.637 753.313 287.637Z" fill="#3F3D56"/>
<path d="M722.313 305.637C728.009 305.637 732.626 301.017 732.626 295.318C732.626 289.62 728.009 285 722.313 285C716.617 285 712 289.62 712 295.318C712 301.017 716.617 305.637 722.313 305.637Z" fill="#4063DE"/>
<path d="M753 361C766.255 361 777 350.479 777 337.5C777 324.521 766.255 314 753 314C739.745 314 729 324.521 729 337.5C729 350.479 739.745 361 753 361Z" fill="#4063DE"/>
<path d="M746.5 419C764.449 419 779 404.449 779 386.5C779 368.551 764.449 354 746.5 354C728.551 354 714 368.551 714 386.5C714 404.449 728.551 419 746.5 419Z" fill="#3F3D56"/>
<path d="M422 184V582L410 584.5L422 598.309H1013.03V157L992 143V184H422ZM787.723 474.489L449.5 470.5L447.771 220.5H786L787.723 474.489Z" fill="black"/>
<path d="M401 143V584.309H992.027V143H401ZM481.159 155.556C483.042 155.556 484.883 156.115 486.448 157.161C488.014 158.208 489.234 159.695 489.954 161.436C490.675 163.176 490.863 165.091 490.496 166.939C490.129 168.786 489.222 170.484 487.891 171.816C486.559 173.148 484.863 174.055 483.016 174.422C481.17 174.79 479.256 174.601 477.516 173.88C475.777 173.159 474.29 171.939 473.244 170.372C472.198 168.806 471.639 166.965 471.639 165.081C471.639 162.555 472.642 160.132 474.428 158.346C476.213 156.56 478.634 155.556 481.159 155.556ZM424.04 174.605C422.157 174.605 420.316 174.047 418.751 173C417.185 171.954 415.965 170.466 415.245 168.726C414.524 166.985 414.335 165.07 414.703 163.223C415.07 161.375 415.977 159.678 417.308 158.346C418.64 157.014 420.336 156.107 422.183 155.739C424.029 155.372 425.943 155.56 427.683 156.281C429.422 157.002 430.909 158.223 431.955 159.789C433.001 161.355 433.56 163.197 433.56 165.081C433.56 167.607 432.557 170.029 430.771 171.816C428.986 173.602 426.565 174.605 424.04 174.605ZM443.08 165.081C443.08 163.197 443.638 161.355 444.684 159.789C445.73 158.223 447.217 157.002 448.956 156.281C450.696 155.56 452.61 155.372 454.457 155.739C456.303 156.107 458 157.014 459.331 158.346C460.662 159.678 461.569 161.375 461.936 163.223C462.304 165.07 462.115 166.985 461.395 168.726C460.674 170.466 459.454 171.954 457.888 173C456.323 174.047 454.482 174.605 452.599 174.605C450.075 174.605 447.653 173.602 445.868 171.816C444.083 170.029 443.08 167.607 443.08 165.081ZM766.723 460.489H448.599V223.96H766.723V460.489Z" fill="#7899F0"/>
<rect x="402.5" y="144.5" width="588" height="443" stroke="black" stroke-width="3"/>
<path d="M979.334 160.938H960.294V163.319H979.334V160.938Z" fill="white"/>
<path d="M979.334 168.081H960.294V170.462H979.334V168.081Z" fill="white"/>
<path d="M979.334 175.224H960.294V177.605H979.334V175.224Z" fill="white"/>
<path d="M960.294 219.991H816.702V227.135H960.294V219.991Z" fill="white"/>
<path d="M960.294 244.596H816.702V251.74H960.294V244.596Z" fill="white"/>
<path d="M960.294 269.202H816.702V276.345H960.294V269.202Z" fill="white"/>
<path d="M960.294 293.807H816.702V300.951H960.294V293.807Z" fill="white"/>
<path d="M960.294 318.413H816.702V325.556H960.294V318.413Z" fill="white"/>
<path d="M960.294 343.018H816.702V350.162H960.294V343.018Z" fill="white"/>
<path d="M960.294 367.624H816.702V374.767H960.294V367.624Z" fill="white"/>
<path d="M960.294 392.229H816.702V399.372H960.294V392.229Z" fill="white"/>
<path d="M960.294 416.834H816.702V423.977H960.294V416.834Z" fill="white"/>
<path d="M960.294 441.439H816.702V448.583H960.294V441.439Z" fill="white"/>
<path d="M467.639 486.682C472.897 486.682 477.159 482.417 477.159 477.157C477.159 471.897 472.897 467.632 467.639 467.632C462.382 467.632 458.119 471.897 458.119 477.157C458.119 482.417 462.382 486.682 467.639 486.682Z" fill="white"/>
<path d="M500.166 486.682C505.423 486.682 509.686 482.417 509.686 477.157C509.686 471.897 505.423 467.632 500.166 467.632C494.908 467.632 490.646 471.897 490.646 477.157C490.646 482.417 494.908 486.682 500.166 486.682Z" fill="white"/>
<path d="M532.692 486.682C537.95 486.682 542.212 482.417 542.212 477.157C542.212 471.897 537.95 467.632 532.692 467.632C527.434 467.632 523.172 471.897 523.172 477.157C523.172 482.417 527.434 486.682 532.692 486.682Z" fill="white"/>
<path d="M960.294 523.986H816.702V564.466H960.294V523.986Z" fill="#4063DE"/>
<path d="M888.069 491.798L889.675 548.034L906.805 613.911C906.805 613.911 903.058 625.158 905.735 627.836C908.411 630.514 920.724 635.334 920.724 635.334L910.553 495.012L888.069 491.798Z" fill="black"/>
<path d="M925.26 627.562C925.26 627.562 931.369 641.008 922.817 642.23C914.264 643.453 874.76 646.712 877.204 639.786C879.647 632.859 909.377 626.339 909.377 626.339L925.26 627.562Z" fill="#E89A5E"/>
<path d="M948.024 441.989C948.024 441.989 941.601 476.802 937.318 482.694C933.036 488.585 939.459 531.432 939.459 531.432C939.459 531.432 949.095 593.023 944.812 602.664C940.53 612.304 941.601 609.091 942.136 614.447C942.671 619.803 943.742 624.087 942.136 628.907C940.53 633.728 940.53 633.192 939.995 635.87C939.459 638.548 939.995 653.009 939.995 653.009C939.995 653.009 916.976 661.042 913.229 649.26C913.229 649.26 918.582 641.761 916.976 635.87C915.302 629.941 914.402 623.82 914.299 617.66V606.413L889.675 514.293L883.787 481.087C883.787 481.087 885.393 447.345 891.281 444.132C897.169 440.918 948.024 441.989 948.024 441.989Z" fill="black"/>
<path d="M938.389 650.33C938.389 650.33 946.419 668.005 935.177 669.611C923.935 671.218 872.01 675.503 875.222 666.398C878.434 657.293 917.512 648.724 917.512 648.724L938.389 650.33Z" fill="#E89A5E"/>
<path d="M943.259 275.807L942.86 303.166L916.608 303.255C916.608 303.255 923.271 281.838 920.286 277.359C917.302 272.881 943.259 275.807 943.259 275.807Z" fill="#FFB9B9"/>
<path d="M928.212 287.764C940.038 287.764 949.625 278.172 949.625 266.34C949.625 254.509 940.038 244.917 928.212 244.917C916.387 244.917 906.8 254.509 906.8 266.34C906.8 278.172 916.387 287.764 928.212 287.764Z" fill="#FFB9B9"/>
<path d="M904.129 318.27C904.129 318.27 922.865 294.168 937.318 304.344C951.772 314.521 957.125 338.622 957.125 338.622L953.913 406.105C953.913 406.105 945.883 415.746 950.701 422.173C955.519 428.6 958.195 426.993 954.448 431.813C950.701 436.633 946.418 440.382 948.024 441.989C949.63 443.596 946.419 444.667 946.419 444.667L889.675 446.274C889.675 446.274 891.281 444.131 886.463 437.704C881.645 431.277 887.534 422.708 886.463 419.495C885.393 416.281 884.322 420.03 883.787 412.532C883.251 405.034 904.129 318.27 904.129 318.27Z" fill="#E89A5E"/>
<path d="M909.482 456.45C909.482 456.45 908.411 469.839 900.381 471.981C897.37 472.785 895.112 471.253 893.465 469.025C891.928 466.89 891.066 464.342 890.991 461.712C890.916 459.081 891.631 456.488 893.045 454.269L895.028 451.094L909.482 456.45Z" fill="#FFB9B9"/>
<path d="M958.998 291.223C958.998 291.223 959.534 301.934 958.998 303.541C958.463 305.148 957.928 306.754 958.998 308.361C960.069 309.968 959.534 315.324 958.463 315.859C957.392 316.395 960.604 321.215 959.534 324.429C958.463 327.642 957.392 328.713 956.857 329.785C956.322 330.856 955.459 332.775 955.459 332.775C955.459 332.775 939.727 299.256 926.88 307.29C914.032 315.324 903.861 318.002 903.861 318.002C903.861 318.002 910.82 280.511 958.998 291.223Z" fill="#E89A5E"/>
<path d="M935.712 316.127C935.712 316.127 952.842 317.734 951.772 340.228C950.701 362.723 953.378 398.071 953.378 398.071C953.378 398.071 923.935 443.06 919.118 446.274C914.3 449.487 913.764 448.952 914.3 451.629C914.835 454.307 915.37 456.45 913.229 458.592C911.965 459.865 910.522 460.948 908.947 461.805C908.947 461.805 891.816 455.914 893.422 450.558C895.028 445.202 902.523 436.633 902.523 436.633C902.523 436.633 915.37 415.745 915.906 412.532C916.441 409.318 916.441 409.854 918.047 408.247C919.653 406.64 923.935 400.214 923.935 397V386.824L919.447 332.443C919.244 330.228 919.511 327.995 920.231 325.891C920.951 323.787 922.108 321.859 923.626 320.234C926.174 317.567 930.025 315.444 935.712 316.127Z" fill="#E89A5E"/>
<path d="M914.403 249.819C913.008 250.206 911.538 250.239 910.127 249.916C908.715 249.593 907.406 248.923 906.318 247.967C904.226 245.978 903.522 242.531 905.011 240.057C906.297 237.92 908.798 236.876 911.177 236.133C916.426 234.496 921.891 233.662 927.389 233.659C930.01 233.658 932.747 233.881 934.99 235.238C936.1 235.91 937.04 236.832 938.137 237.523C940.155 238.795 942.577 239.218 944.792 240.102C947.057 241.023 949.098 242.42 950.777 244.198C952.455 245.977 953.732 248.095 954.522 250.41C955.03 251.981 955.347 253.606 955.467 255.252C955.829 259.761 955.033 264.288 953.154 268.403C950.167 274.919 944.482 280.398 943.679 287.522C940.618 284.951 939.721 280.64 937.351 277.422C935.586 275.042 933.067 273.332 930.206 272.569C929.406 272.464 928.654 272.127 928.042 271.602C927.63 271.032 927.394 270.354 927.365 269.651L925.896 259.067C925.597 256.913 925.193 254.559 923.541 253.146C922.504 252.375 921.304 251.853 920.033 251.623C917.026 250.875 913.964 250.376 910.876 250.129" fill="#E76F51"/>
<path opacity="0.1" d="M950.774 405.722L920.723 444.739C920.723 444.739 948.394 421.597 950.774 405.722Z" fill="black"/>
<path opacity="0.1" d="M921.93 362.523L922.214 399.372L904.761 425.565L919.041 396.197L921.93 362.523Z" fill="black"/>
<path d="M559.5 316C568.613 316 576 309.06 576 300.5C576 291.94 568.613 285 559.5 285C550.387 285 543 291.94 543 300.5C543 309.06 550.387 316 559.5 316Z" fill="#3F3D56"/>
<path d="M652.5 322C661.613 322 669 314.613 669 305.5C669 296.387 661.613 289 652.5 289C643.387 289 636 296.387 636 305.5C636 314.613 643.387 322 652.5 322Z" fill="#3F3D56"/>
<path d="M653.297 289C650.281 289 647.329 289.855 644.793 291.463C642.258 293.071 640.247 295.364 639 298.068C641.688 295.711 645.117 294.335 648.713 294.17C652.309 294.005 655.854 295.062 658.752 297.164C661.651 299.265 663.728 302.283 664.636 305.712C665.544 309.141 665.227 312.773 663.738 316C666.116 313.917 667.794 311.171 668.55 308.127C669.307 305.084 669.105 301.885 667.973 298.957C666.84 296.028 664.831 293.508 662.21 291.73C659.589 289.951 656.481 288.999 653.297 289V289Z" fill="#4063DE"/>
<path d="M559.749 283C562.967 283 566.116 283.919 568.82 285.646C571.525 287.373 573.67 289.836 575 292.74C572.133 290.208 568.475 288.73 564.639 288.553C560.803 288.376 557.023 289.511 553.931 291.768C550.839 294.025 548.623 297.267 547.655 300.95C546.687 304.633 547.025 308.534 548.613 312C546.077 309.762 544.286 306.813 543.48 303.544C542.673 300.275 542.888 296.84 544.096 293.694C545.304 290.549 547.447 287.842 550.243 285.932C553.039 284.022 556.354 282.999 559.749 283V283Z" fill="#4063DE"/>
<path d="M607 379.966C607.007 388.276 604.548 396.4 599.936 403.313C595.323 410.225 588.764 415.613 581.088 418.796C573.413 421.979 564.965 422.814 556.815 421.195C548.664 419.575 541.177 415.574 535.301 409.698C529.426 403.823 525.425 396.336 523.805 388.185C522.186 380.035 523.021 371.587 526.204 363.912C529.387 356.236 534.775 349.677 541.687 345.064C548.6 340.452 556.724 337.993 565.034 338C570.55 337.982 576.016 339.054 581.116 341.157C586.216 343.259 590.849 346.349 594.75 350.25C598.651 354.151 601.741 358.784 603.843 363.884C605.946 368.984 607.018 374.45 607 379.966Z" fill="#3F3D56"/>
<path d="M607 380.406C607.008 386.476 605.717 392.477 603.215 398C596.005 397.903 588.9 396.232 582.392 393.104C575.884 389.975 570.127 385.463 565.518 379.878C560.909 374.293 557.557 367.768 555.694 360.753C553.831 353.738 553.5 346.4 554.725 339.243C560.931 337.696 567.406 337.592 573.659 338.937C579.912 340.282 585.779 343.042 590.815 347.008C595.852 350.974 599.927 356.042 602.731 361.829C605.535 367.615 606.995 373.968 607 380.406V380.406Z" fill="#4063DE"/>
<path d="M603.5 391C630.838 391 653 369.062 653 342C653 314.938 630.838 293 603.5 293C576.162 293 554 314.938 554 342C554 369.062 576.162 391 603.5 391Z" fill="#3F3D56"/>
<path d="M577.483 347C580.012 343.587 583.785 341.322 587.974 340.7C592.164 340.077 596.427 341.149 599.831 343.681C601.723 341.129 602.819 338.07 602.979 334.893C603.14 331.715 602.359 328.561 600.734 325.83C599.11 323.098 596.715 320.913 593.854 319.55C590.992 318.187 587.793 317.708 584.66 318.173C581.528 318.638 578.603 320.027 576.256 322.163C573.91 324.3 572.247 327.088 571.478 330.175C570.71 333.262 570.87 336.508 571.939 339.503C573.008 342.498 574.937 345.107 577.483 347Z" fill="white"/>
<circle cx="587" cy="335" r="16" fill="white"/>
<ellipse cx="625.5" cy="330.5" rx="16.5" ry="15.5" fill="white"/>
<path d="M591.5 338C595.09 338 598 335.314 598 332C598 328.686 595.09 326 591.5 326C587.91 326 585 328.686 585 332C585 335.314 587.91 338 591.5 338Z" fill="#3F3D56"/>
<path d="M630 335C633.314 335 636 332.314 636 329C636 325.686 633.314 323 630 323C626.686 323 624 325.686 624 329C624 332.314 626.686 335 630 335Z" fill="#3F3D56"/>
<path d="M606.5 347C608.433 347 610 345.657 610 344C610 342.343 608.433 341 606.5 341C604.567 341 603 342.343 603 344C603 345.657 604.567 347 606.5 347Z" fill="#FF6584"/>
<path d="M560.333 433.307V419H555.667V433.307C554.302 433.796 553.12 434.703 552.285 435.902C551.449 437.1 551 438.532 551 440V440H565V440C565 438.532 564.551 437.1 563.715 435.902C562.88 434.703 561.698 433.796 560.333 433.307V433.307Z" fill="#3F3D56"/>
<path d="M576.333 433.307V419H571.667V433.307C570.302 433.796 569.12 434.703 568.285 435.902C567.449 437.1 567 438.532 567 440V440H581V440C581 438.532 580.551 437.1 579.715 435.902C578.88 434.703 577.698 433.796 576.333 433.307V433.307Z" fill="#3F3D56"/>
<path d="M583.115 297.955C581.04 294.597 579.647 290.652 580.079 286.723C580.51 282.794 583.07 278.96 586.839 277.835C590.607 276.709 595.276 279.041 595.986 282.929C599.761 276.367 605.732 271.368 612.833 268.822C616.127 267.655 620.504 267.39 622.408 270.334C623.351 271.79 623.452 273.771 624.714 274.957C626.694 276.818 629.868 275.507 632.573 275.666C636.377 275.89 639.439 279.459 639.918 283.26C640.397 287.061 638.723 290.88 636.252 293.796C633.781 296.712 630.566 298.875 627.395 301" fill="#3F3D56"/>
<path d="M612.247 354.991C612.456 354.774 612.672 354.563 612.898 354.362C612.998 354.273 613.1 354.186 613.203 354.1C613.267 354.047 613.332 353.995 613.398 353.943C613.511 353.853 613.547 353.831 613.409 353.931C613.907 353.566 614.43 353.236 614.976 352.946C615.228 352.813 615.484 352.689 615.744 352.573C615.805 352.546 615.867 352.52 615.928 352.493C615.652 352.614 615.869 352.518 615.939 352.49C616.096 352.429 616.253 352.37 616.411 352.314C616.999 352.108 617.601 351.942 618.212 351.818C618.493 351.76 618.777 351.715 619.061 351.671C619.252 351.641 618.82 351.697 619.013 351.677C619.097 351.669 619.181 351.658 619.265 351.649C619.433 351.632 619.602 351.618 619.771 351.606C620.379 351.566 620.989 351.564 621.597 351.6C621.901 351.618 622.204 351.649 622.506 351.684C622.201 351.648 622.551 351.692 622.658 351.709C622.825 351.736 622.991 351.766 623.156 351.799C623.751 351.917 624.336 352.074 624.909 352.27C625.051 352.319 625.193 352.371 625.334 352.425C625.412 352.455 625.49 352.486 625.568 352.517C625.529 352.501 625.312 352.405 625.531 352.503C625.807 352.626 626.079 352.752 626.346 352.891C626.893 353.182 627.418 353.51 627.917 353.875C628.068 353.984 627.746 353.736 627.89 353.856C627.954 353.909 628.021 353.96 628.086 354.013C628.189 354.098 628.292 354.185 628.392 354.274C628.65 354.502 628.896 354.742 629.134 354.989C629.351 355.215 629.559 355.449 629.76 355.69C629.757 355.686 629.985 355.965 629.864 355.815C629.762 355.689 629.906 355.87 629.929 355.9C630.05 356.059 630.167 356.221 630.281 356.385C630.653 356.922 630.989 357.482 631.287 358.062C631.428 358.336 631.562 358.614 631.688 358.896C631.716 358.958 631.811 359.186 631.708 358.937C631.736 359.005 631.764 359.072 631.791 359.14C631.86 359.309 631.927 359.479 631.991 359.65C632.451 360.907 632.805 362.199 633.047 363.514C633.111 363.847 633.169 364.182 633.222 364.518C633.246 364.668 633.268 364.818 633.29 364.968C633.29 364.964 633.34 365.334 633.314 365.134C633.29 364.957 633.331 365.268 633.335 365.302C633.424 366.001 633.494 366.703 633.551 367.406C633.662 368.785 633.722 370.168 633.764 371.55C633.873 375.057 633.965 378.565 634.065 382.073L634.678 403.556L635.292 425.04L635.368 427.707C635.368 428.05 635.506 428.379 635.753 428.621C636 428.864 636.335 429 636.684 429C637.033 429 637.368 428.864 637.615 428.621C637.861 428.379 638 428.05 638 427.707L637.37 405.631L636.744 383.702L636.429 372.664C636.344 369.709 636.223 366.756 635.76 363.83C634.908 358.442 632.43 352.84 627.135 350.393C622.189 348.107 616.068 348.638 611.734 351.961C611.255 352.327 610.804 352.729 610.385 353.162C610.139 353.405 610 353.734 610 354.077C610 354.42 610.139 354.749 610.385 354.991C610.632 355.234 610.967 355.37 611.316 355.37C611.665 355.37 612 355.234 612.247 354.991L612.247 354.991Z" fill="#4063DE"/>
<path d="M622.429 396C622.05 396 621.687 396.15 621.419 396.416C621.151 396.682 621 397.043 621 397.42L623.857 440.562C623.855 440.749 623.891 440.936 623.962 441.11C624.033 441.284 624.138 441.442 624.27 441.576C624.403 441.71 624.561 441.816 624.735 441.889C624.91 441.961 625.097 441.999 625.286 442H648.714C649.093 442 649.456 441.85 649.723 441.584C649.991 441.318 650.142 440.957 650.142 440.58L653 397.401C652.995 397.028 652.843 396.671 652.575 396.409C652.308 396.146 651.947 395.999 651.571 396H622.429Z" fill="#E6E6E6"/>
<path d="M624.456 398C624.256 398 624.059 398.04 623.876 398.118C623.693 398.196 623.529 398.31 623.393 398.453C623.256 398.596 623.152 398.765 623.085 398.949C623.018 399.133 622.99 399.329 623.003 399.524L625.68 438.667C625.706 439.028 625.87 439.366 626.139 439.614C626.409 439.861 626.764 439.999 627.133 440H646.867C647.236 439.999 647.591 439.861 647.861 439.614C648.13 439.366 648.294 439.028 648.32 438.667L650.997 399.524C651.01 399.329 650.982 399.133 650.915 398.949C650.848 398.765 650.744 398.596 650.607 398.453C650.471 398.31 650.307 398.196 650.124 398.118C649.941 398.04 649.744 398 649.544 398H624.456Z" fill="#4063DE"/>
<path d="M632.667 405C632.49 405 632.32 405.056 632.196 405.156C632.071 405.256 632 405.392 632 405.533V408.467C632 408.608 632.071 408.744 632.196 408.844C632.32 408.944 632.49 409 632.667 409H638.333C638.51 409 638.68 408.944 638.804 408.844C638.929 408.744 639 408.608 639 408.467V405.533C639 405.392 638.929 405.256 638.804 405.156C638.68 405.056 638.51 405 638.333 405H632.667Z" fill="#E6E6E6"/>
<path d="M639.476 412C639.35 412 639.229 412.085 639.14 412.235C639.05 412.385 639 412.588 639 412.8V417.2C639 417.412 639.05 417.615 639.14 417.765C639.229 417.915 639.35 418 639.476 418H643.524C643.65 418 643.771 417.915 643.86 417.765C643.95 417.615 644 417.412 644 417.2V412.8C644 412.588 643.95 412.385 643.86 412.235C643.771 412.085 643.65 412 643.524 412H639.476Z" fill="#E6E6E6"/>
<path d="M633.571 420C633.42 420 633.275 420.056 633.168 420.156C633.06 420.256 633 420.392 633 420.533V423.467C633 423.608 633.06 423.744 633.168 423.844C633.275 423.944 633.42 424 633.571 424H638.429C638.58 424 638.725 423.944 638.832 423.844C638.94 423.744 639 423.608 639 423.467V420.533C639 420.392 638.94 420.256 638.832 420.156C638.725 420.056 638.58 420 638.429 420H633.571Z" fill="#E6E6E6"/>
<path d="M542.289 403.207C543.739 403.697 544.76 404.954 545.609 406.185C546.485 407.455 547.287 408.834 548.484 409.826C548.987 410.271 549.576 410.602 550.214 410.797C550.852 410.993 551.523 411.048 552.183 410.959C553.495 410.757 554.608 409.823 554.807 408.444C555.07 406.629 553.823 404.949 552.729 403.658L552.434 404.384C554.177 404.576 555.692 405.588 557.288 406.24C558.817 406.864 560.626 407.205 562.153 406.391C563.325 405.766 564.056 404.517 564.304 403.222C564.557 401.809 564.345 400.35 563.701 399.073C562.888 397.379 561.554 396.01 560.261 394.691L559.854 395.403C561.777 395.697 563.921 395.971 565.59 394.713C566.257 394.233 566.733 393.526 566.931 392.718C567.101 391.827 566.956 390.902 566.522 390.108C565.645 388.367 563.989 387.14 562.504 385.973C559.041 383.244 555.288 380.92 551.316 379.044C550.831 378.814 550.407 379.548 550.894 379.779C554.297 381.389 557.54 383.326 560.581 385.564C562.044 386.642 563.59 387.753 564.809 389.12C565.844 390.281 566.787 392.056 565.657 393.491C564.327 395.178 561.921 394.864 560.076 394.582C559.988 394.56 559.895 394.568 559.812 394.604C559.728 394.64 559.658 394.703 559.613 394.783C559.567 394.863 559.548 394.956 559.558 395.048C559.569 395.14 559.608 395.226 559.67 395.294C561.598 397.258 563.887 399.618 563.552 402.642C563.425 403.788 562.891 404.959 561.889 405.566C560.528 406.39 558.826 405.966 557.455 405.396C555.79 404.704 554.257 403.733 552.434 403.533C552.041 403.49 551.927 404.01 552.138 404.26C553.023 405.304 554.084 406.662 554.005 408.126C553.939 409.351 552.891 410.084 551.767 410.153C548.907 410.33 547.463 407.296 546.013 405.307C545.096 404.048 544.007 402.891 542.511 402.386C542 402.213 541.78 403.035 542.289 403.207H542.289Z" fill="#4063DE"/>
<path d="M505.5 703C600.217 703 677 692.031 677 678.5C677 664.969 600.217 654 505.5 654C410.783 654 334 664.969 334 678.5C334 692.031 410.783 703 505.5 703Z" fill="#E5E5E5"/>
<path d="M523.96 474.973C516.581 489.572 524.291 510.14 540.406 514.758C544.938 516.057 550.074 515.921 554.066 513.183C557.361 510.923 559.739 506.927 559.426 502.858C558.822 495.029 548.853 492.119 542.505 494.647C533.91 498.068 530.061 508.151 528.859 516.617C527.389 526.966 529.408 537.659 533.452 547.221C541.547 566.363 557.571 581.277 573.456 594.079C589.756 607.195 607.618 618.239 626.636 626.959C629.024 628.055 631.429 629.113 633.851 630.134C634.192 630.337 634.44 630.666 634.541 631.05C634.641 631.434 634.587 631.843 634.389 632.187C634.181 632.523 633.852 632.766 633.47 632.866C633.088 632.966 632.682 632.916 632.337 632.725C611.418 623.87 591.77 612.275 573.906 598.245C556.614 584.675 539.165 568.658 530.54 547.975C526.241 537.664 524.306 526.277 526.064 515.179C527.543 505.837 532.19 495.5 541.563 491.809C548.958 488.898 559.265 491.966 561.893 499.999C563.337 504.414 561.842 509.19 558.982 512.683C557.418 514.524 555.471 516.003 553.278 517.017C551.085 518.031 548.698 518.556 546.281 518.556C536.638 518.756 527.813 512.568 522.969 504.538C518.407 496.997 517.018 487.955 519.107 479.392C519.646 477.339 520.404 475.35 521.369 473.459C522.24 471.736 524.829 473.253 523.96 474.973V474.973Z" fill="#A4A4A4"/>
<path d="M357.843 656.59L368.624 660.395L388.431 620.625L372.52 615.009L357.843 656.59Z" fill="#A0616A"/>
<path d="M377.411 660.033L356.621 652.695L352 665.785L385.881 677.744C386.488 676.025 386.75 674.203 386.653 672.383C386.556 670.563 386.101 668.779 385.314 667.135C384.528 665.49 383.425 664.016 382.069 662.798C380.713 661.579 379.13 660.64 377.411 660.033Z" fill="#287271"/>
<path d="M474.904 667.118L486.336 667.116L491.773 623.021L474.9 623.022L474.904 667.118Z" fill="#A0616A"/>
<path d="M494.503 663.85H472.455V677.732H508.385C508.385 675.909 508.025 674.103 507.328 672.419C506.63 670.735 505.608 669.205 504.319 667.916C503.03 666.626 501.499 665.604 499.815 664.906C498.131 664.209 496.326 663.85 494.503 663.85V663.85Z" fill="black"/>
<path d="M475.963 654.168C476.34 654.168 476.716 654.121 477.082 654.028L493.942 649.753C494.97 649.494 495.874 648.88 496.493 648.018C497.112 647.157 497.406 646.105 497.323 645.047L481.211 434.796L480.713 434.834L481.211 434.796C480.868 430.435 478.953 426.347 475.822 423.292C472.69 420.236 468.556 418.422 464.188 418.187L413.233 415.542L404.665 547.487L353.849 639.007C353.532 639.577 353.343 640.21 353.295 640.861C353.247 641.511 353.341 642.165 353.571 642.775C353.801 643.386 354.161 643.94 354.626 644.397C355.09 644.855 355.649 645.206 356.263 645.427L379.67 653.826C380.729 654.212 381.894 654.185 382.933 653.749C383.972 653.314 384.809 652.502 385.276 651.477L445.034 522.062C445.167 521.773 445.389 521.534 445.668 521.379C445.946 521.225 446.266 521.163 446.582 521.203C446.898 521.242 447.193 521.381 447.425 521.6C447.657 521.818 447.813 522.105 447.871 522.418L471.551 650.484C471.742 651.516 472.288 652.448 473.093 653.121C473.899 653.793 474.913 654.164 475.963 654.168V654.168Z" fill="black"/>
<path d="M531.873 467.48C531.331 466.221 530.519 465.096 529.495 464.185C528.471 463.273 527.259 462.598 525.946 462.205C524.632 461.813 523.249 461.713 521.893 461.913C520.536 462.113 519.241 462.608 518.097 463.363L500.342 451.367L490.42 460.378L515.731 476.968C517.127 478.806 519.148 480.068 521.413 480.515C523.677 480.962 526.027 480.563 528.016 479.394C530.006 478.224 531.498 476.365 532.208 474.17C532.919 471.974 532.8 469.594 531.873 467.48L531.873 467.48Z" fill="#A0616A"/>
<path d="M435.35 335.442C421.785 335.442 410.789 324.446 410.789 310.881C410.789 297.316 421.785 286.32 435.35 286.32C448.915 286.32 459.911 297.316 459.911 310.881C459.911 324.446 448.915 335.442 435.35 335.442Z" fill="#A0616A"/>
<path d="M468.769 423.735C470.137 423.732 471.488 423.429 472.726 422.845C473.964 422.262 475.058 421.413 475.931 420.36C476.804 419.306 477.435 418.073 477.778 416.748C478.121 415.424 478.169 414.04 477.917 412.695L473.63 389.78C478.206 373.165 454.897 358.516 453.9 357.899L439.358 352.323L439.179 352.789L439.358 352.323C436.625 351.276 433.676 350.923 430.773 351.294C427.87 351.665 425.104 352.75 422.722 354.45C420.341 356.151 418.417 358.415 417.123 361.04C415.83 363.665 415.206 366.569 415.309 369.494L417.072 419.885L468.054 423.708C468.293 423.726 468.532 423.735 468.769 423.735Z" fill="#67A59D"/>
<path d="M447.491 580.86C458.689 580.728 469.865 579.834 480.941 578.185L481.41 578.112L481.362 577.641C480.48 569.033 459.714 366.683 455.221 352.419C454.06 348.733 450.448 345.836 444.486 343.809C425.747 337.439 404.699 346.885 396.569 365.315C393.581 372.115 392.109 379.484 392.256 386.91L396.035 565.047L396.434 565.122C396.538 565.142 407.006 567.188 420.826 576.119C426.449 579.753 436.878 580.86 447.491 580.86Z" fill="#2A9D8F"/>
<path opacity="0.05098" d="M419.455 387.002C406.462 409.059 413.018 420.804 425.308 443.312C432.126 455.797 453.159 471.237 463.012 461.312C472.864 451.387 465.077 437.894 460.799 424.19C456.52 410.486 447.318 399.202 437.711 389.008C430.862 381.74 416.72 387.707 419.455 387.002Z" fill="black"/>
<path d="M503.935 473.305C504.926 473.304 505.889 472.976 506.675 472.372C507.461 471.769 508.026 470.923 508.282 469.966L511.401 458.306C511.634 457.421 511.594 456.487 511.285 455.626C510.977 454.765 510.414 454.018 509.672 453.483L459.186 417.361L452.382 378.718C451.923 376.107 450.924 373.62 449.451 371.416C447.978 369.212 446.062 367.338 443.825 365.915C441.588 364.492 439.079 363.55 436.458 363.149C433.838 362.749 431.162 362.898 428.602 363.588C426.042 364.278 423.654 365.493 421.59 367.157C419.525 368.82 417.83 370.895 416.611 373.25C415.392 375.604 414.677 378.186 414.511 380.833C414.345 383.479 414.731 386.13 415.646 388.619L430.026 427.742C432.835 435.426 438.51 441.725 445.861 445.316L501.953 472.843C502.57 473.146 503.248 473.304 503.935 473.305Z" fill="#2A9D8F"/>
<path d="M445.721 301.556C446.901 303.966 448.922 305.86 451.402 306.884C453.882 307.907 456.651 307.988 459.187 307.112C461.722 306.236 463.851 304.464 465.17 302.128C466.49 299.792 466.911 297.054 466.352 294.43C465.31 289.531 462.794 285.069 459.141 281.642C455.489 278.215 450.875 275.988 445.92 275.261C440.965 274.533 435.906 275.339 431.422 277.57C426.938 279.802 423.245 283.352 420.838 287.744C413.066 282.309 400.864 285.054 396.169 293.295C391.473 301.536 395.333 313.432 403.971 317.347C408.27 319.296 407.951 326.819 403.502 328.395C402.016 328.921 400.732 329.897 399.826 331.186C398.92 332.475 398.438 334.015 398.447 335.59C398.455 337.166 398.954 338.7 399.874 339.979C400.793 341.259 402.088 342.22 403.579 342.73C409.177 344.646 414.882 346.582 420.796 346.732C426.711 346.881 432.976 344.968 436.709 340.378C440.442 335.787 440.702 328.254 436.298 324.302C434.065 322.201 432.577 319.428 432.061 316.405C431.545 313.382 432.029 310.274 433.44 307.55C436.378 302.19 444.239 298.531 445.721 301.556Z" fill="black"/>
<path d="M604.347 672.955C605.49 672.953 606.613 672.65 607.602 672.076C608.591 671.501 609.411 670.676 609.979 669.684C610.547 668.691 610.843 667.566 610.837 666.423C610.831 665.279 610.523 664.157 609.944 663.171V663.17L600.847 647.639L589.63 654.209L598.727 669.741C599.302 670.721 600.123 671.533 601.109 672.097C602.095 672.66 603.211 672.956 604.347 672.955V672.955Z" fill="#4063DE"/>
<path d="M568.648 637.457C564.229 637.457 560.648 633.875 560.648 629.457C560.648 625.038 564.229 621.457 568.648 621.457C573.066 621.457 576.648 625.038 576.648 629.457C576.648 633.875 573.066 637.457 568.648 637.457Z" fill="#4063DE"/>
<path d="M639.545 672.955C640.688 672.953 641.811 672.65 642.8 672.076C643.789 671.501 644.609 670.676 645.177 669.684C645.745 668.691 646.041 667.566 646.035 666.422C646.029 665.279 645.721 664.157 645.142 663.17L636.045 647.639L624.828 654.209L633.925 669.741C634.5 670.721 635.321 671.533 636.307 672.097C637.293 672.66 638.409 672.956 639.545 672.955V672.955Z" fill="#4063DE"/>
<path d="M587.168 662.573H627.477C632.962 662.567 638.222 660.385 642.101 656.506C645.98 652.627 648.162 647.368 648.168 641.882V635.759C648.166 633.854 647.408 632.027 646.061 630.68C644.714 629.333 642.887 628.575 640.982 628.573H587.168C582.659 628.573 578.335 630.364 575.147 633.552C571.959 636.741 570.168 641.065 570.168 645.573C570.168 650.082 571.959 654.406 575.147 657.594C578.335 660.782 582.659 662.573 587.168 662.573Z" fill="#3F3D56"/>
<path d="M589.078 678.244C590.801 678.242 592.453 677.557 593.672 676.338C594.891 675.12 595.576 673.467 595.578 671.744V653.744H582.578V671.744C582.58 673.467 583.265 675.12 584.484 676.338C585.702 677.557 587.355 678.242 589.078 678.244Z" fill="#3F3D56"/>
<path d="M626.8 678.244C628.523 678.242 630.176 677.557 631.394 676.338C632.613 675.12 633.298 673.467 633.3 671.744V653.744H620.3V671.744C620.302 673.467 620.987 675.12 622.206 676.338C623.425 677.557 625.077 678.242 626.8 678.244V678.244Z" fill="#3F3D56"/>
<path d="M635.8 604.205H651.8V583.205C651.8 581.083 650.957 579.049 649.457 577.548C647.957 576.048 645.922 575.205 643.8 575.205C641.678 575.205 639.644 576.048 638.143 577.548C636.643 579.049 635.8 581.083 635.8 583.205V604.205Z" fill="#4063DE"/>
<path d="M637.069 633.957H663.531C665.061 633.955 666.527 633.347 667.608 632.265C668.69 631.184 669.298 629.717 669.3 628.188V614.327C669.295 609.457 667.357 604.787 663.913 601.343C660.469 597.899 655.8 595.962 650.929 595.957H646.708C642.623 595.961 638.706 597.586 635.818 600.475C632.929 603.363 631.305 607.279 631.3 611.364V628.188C631.302 629.717 631.91 631.184 632.992 632.265C634.073 633.347 635.539 633.955 637.069 633.957V633.957Z" fill="#3F3D56"/>
<path d="M635.8 604.205H646.8V580.705C646.8 579.246 646.221 577.847 645.189 576.816C644.158 575.785 642.759 575.205 641.3 575.205C639.841 575.205 638.442 575.785 637.411 576.816C636.38 577.847 635.8 579.246 635.8 580.705V604.205Z" fill="#3F3D56"/>
<path d="M638.542 633.784H667.542C669.663 633.784 671.698 632.941 673.199 631.441C674.699 629.941 675.542 627.906 675.542 625.784C675.542 623.662 674.699 621.628 673.199 620.127C671.698 618.627 669.663 617.784 667.542 617.784H638.542V633.784Z" fill="#3F3D56"/>
<path d="M674.793 629.015C673.757 629.015 672.918 627.504 672.918 625.64C672.918 623.776 673.757 622.265 674.793 622.265C675.828 622.265 676.668 623.776 676.668 625.64C676.668 627.504 675.828 629.015 674.793 629.015Z" fill="#4063DE"/>
</svg>
