<svg width="402" height="190" viewBox="0 0 402 190" fill="none" xmlns="http://www.w3.org/2000/svg">
<path d="M120.52 124.661C121.715 126.538 123.165 128.202 124.872 129.653C126.664 131.018 128.029 132.128 128.968 132.981C129.907 133.749 130.376 134.645 130.376 135.669V136.181C130.376 137.802 129.352 138.613 127.304 138.613H96.072C94.024 138.613 93 137.802 93 136.181V135.669C93 134.816 93.512 133.834 94.536 132.725C95.56 131.53 96.2853 130.464 96.712 129.525C97.224 128.586 97.0533 126.965 96.2 124.661L85.32 104.437L73.544 104.693V124.661C73.544 126.794 74.4827 128.928 76.36 131.061C78.3227 133.109 79.304 134.645 79.304 135.669V136.181C79.304 137.802 78.28 138.613 76.232 138.613H48.072C46.024 138.613 45 137.802 45 136.181V135.669C45 134.645 45.8533 133.109 47.56 131.061C49.2667 128.928 50.12 126.794 50.12 124.661V61.6849C50.12 59.5516 49.2667 57.4609 47.56 55.4129C45.8533 53.2796 45 51.7009 45 50.6769V50.1649C45 48.5436 46.024 47.7329 48.072 47.7329H82.504C94.4507 47.7329 103.88 50.2076 110.792 55.1569C117.704 60.1062 121.203 67.2742 121.288 76.6609C121.288 81.5249 119.923 86.1329 117.192 90.4849C114.461 94.8369 110.493 98.2502 105.288 100.725L120.52 124.661ZM73.544 85.7489C73.544 89.3329 74.184 91.8929 75.464 93.4289C76.8293 94.8796 78.8773 95.6049 81.608 95.6049H85.448C88.8613 95.6049 91.6347 94.2396 93.768 91.5089C95.9867 88.7782 97.096 84.6396 97.096 79.0929C97.096 72.5222 95.3893 67.1462 91.976 62.9649C88.648 58.7836 84.8933 56.6929 80.712 56.6929H78.408C76.9573 56.6929 75.7627 57.3329 74.824 58.6129C73.9707 59.8076 73.544 61.3862 73.544 63.3489V85.7489Z" fill="black"/>
<path d="M317.296 123.501C317.467 125.634 318.278 127.768 319.728 129.901C321.179 132.034 321.904 133.613 321.904 134.637V135.149C321.904 136.77 320.88 137.581 318.832 137.581H293.232C291.184 137.581 290.16 136.77 290.16 135.149V134.637C290.16 133.698 290.971 132.162 292.592 130.029C294.214 127.896 294.939 125.72 294.768 123.501L293.488 100.845C293.147 94.4449 292.294 89.9222 290.928 87.2769C289.563 84.5462 287.472 83.1809 284.656 83.1809C282.096 83.1809 280.134 84.2903 278.768 86.5089C277.403 88.7276 276.72 91.6716 276.72 95.3409C276.976 97.1329 277.104 98.9249 277.104 100.717V123.501C277.104 125.634 277.872 127.768 279.408 129.901C280.944 132.034 281.712 133.613 281.712 134.637V135.149C281.712 136.77 280.688 137.581 278.64 137.581H253.168C251.12 137.581 250.096 136.77 250.096 135.149V134.637C250.096 133.613 250.822 132.034 252.272 129.901C253.808 127.768 254.576 125.634 254.576 123.501V99.1809C254.576 88.5142 251.675 83.1809 245.872 83.1809C243.056 83.1809 240.923 84.2903 239.472 86.5089C238.022 88.7276 237.296 91.6716 237.296 95.3409V123.501C237.296 125.634 238.235 127.768 240.112 129.901C241.99 132.034 242.928 133.613 242.928 134.637V135.149C242.928 136.77 241.904 137.581 239.856 137.581H212.208C210.16 137.581 209.136 136.77 209.136 135.149V134.637C209.136 133.613 210.075 132.034 211.952 129.901C213.83 127.768 214.768 125.634 214.768 123.501V98.2849C214.768 96.5783 214.171 95.1276 212.976 93.9329C211.867 92.6529 210.758 91.5436 209.648 90.6049C208.539 89.6662 207.984 88.6849 207.984 87.6609V87.2769C207.984 86.1676 209.008 85.1009 211.056 84.0769L230.256 75.2449C231.792 74.5622 232.987 74.5622 233.84 75.2449C234.694 75.9276 235.12 76.9516 235.12 78.3169V82.9249C239.046 77.4636 244.72 74.7329 252.144 74.7329C261.616 74.7329 268.614 78.2316 273.136 85.2289C274.843 81.9009 277.36 79.3409 280.688 77.5489C284.016 75.6716 287.814 74.7329 292.08 74.7329C298.31 74.7329 303.6 76.8236 307.952 81.0049C312.39 85.1863 314.95 92.0556 315.632 101.613L317.296 123.501Z" fill="black"/>
<path d="M147.827 117.522L147.881 117.575L147.925 117.636C148.993 119.085 150.631 120.355 152.91 121.414C155.078 122.377 157.411 122.861 159.92 122.861C165.45 122.861 169.815 120.568 173.084 115.885L148.567 102.086C146.783 101.168 145.392 99.9706 144.45 98.4734C143.504 96.9688 143.048 95.221 143.048 93.2689C143.048 88.3834 145.37 84.069 149.805 80.3432C154.312 76.5578 160.588 74.7329 168.496 74.7329C177.373 74.7329 185.045 77.8195 191.46 83.9711C197.819 90.0644 200.984 97.8856 200.984 107.349C200.984 117.212 197.965 125.286 191.865 131.475C185.767 137.661 177.905 140.733 168.368 140.733C160.566 140.733 154.122 138.447 149.128 133.81C144.26 129.289 141.575 124.709 141.386 120.072C141.336 119.252 141.471 118.468 141.898 117.812C142.326 117.153 142.973 116.737 143.731 116.512C144.439 116.247 145.169 116.182 145.891 116.363C146.619 116.545 147.263 116.957 147.827 117.522ZM165.31 86.9007L165.305 86.9113L165.3 86.9218C163.904 89.7965 163.224 92.5491 163.224 95.1889C163.224 97.6828 164.178 99.5386 166.096 100.877L176.88 107.37C177.872 103.924 178.376 99.9526 178.376 95.4449C178.376 91.7406 177.637 88.7342 176.221 86.3698C174.745 84.0445 172.947 83.0049 170.8 83.0049C169.53 83.0049 168.477 83.3284 167.598 83.9441C166.711 84.5652 165.938 85.5276 165.31 86.9007Z" fill="black" stroke="black" stroke-width="2"/>
<path d="M143.12 117.229C142.182 116.29 141.158 116.034 140.048 116.461C138.854 116.802 138.299 117.656 138.384 119.021C138.555 123.288 141.03 127.64 145.808 132.077C150.587 136.514 156.774 138.733 164.368 138.733C173.67 138.733 181.264 135.746 187.152 129.773C193.04 123.8 195.984 115.992 195.984 106.349C195.984 97.1329 192.912 89.5809 186.768 83.6929C180.539 77.7196 173.115 74.7329 164.496 74.7329C156.731 74.7329 150.715 76.5249 146.448 80.1089C142.182 83.6929 140.048 87.7462 140.048 92.2689C140.048 95.8529 141.712 98.4982 145.04 100.205L170.512 114.541C167.014 120.088 162.15 122.861 155.92 122.861C153.275 122.861 150.8 122.349 148.496 121.325C146.107 120.216 144.315 118.85 143.12 117.229ZM166.8 81.0049C169.36 81.0049 171.451 82.2849 173.072 84.8449C174.608 87.4049 175.376 90.6049 175.376 94.4449C175.376 99.5649 174.736 104.045 173.456 107.885L161.552 100.717C159.334 99.1809 158.224 97.0049 158.224 94.1889C158.224 91.3729 158.95 88.4716 160.4 85.4849C161.766 82.4982 163.899 81.0049 166.8 81.0049Z" fill="#4063DE" stroke="black" stroke-width="2"/>
<path fill-rule="evenodd" clip-rule="evenodd" d="M56.8201 36.2582C63 35.5 69.5522 22.4216 67.395 15.1267C65.3788 8.30834 58.6222 3.77498 51.3381 1.86785C43.8613 -0.0897272 34.7904 0.374836 26.6159 4.5292C18.3415 8.73436 11.2499 16.5875 7.66049 28.8784C5.91245 34.8642 7.0987 41.4953 9.2009 47.8073C11.3256 54.187 14.6226 60.9005 17.7807 67.2458L18.2889 68.2665C21.3203 74.3529 24.1665 80.0672 26.0326 85.2556C28.0466 90.8551 28.5765 94.9664 27.6845 97.798C23.4387 111.277 16.6253 119.553 10.731 126.714L10.7304 126.714C9.9397 127.675 9.16555 128.615 8.41635 129.545C5.31808 133.392 2.3622 137.407 1.02483 142.017C-0.387353 146.885 0.109646 151.967 2.89853 157.74L2.92254 157.79L2.94791 157.839C11.4866 174.334 43.8249 197.025 105.904 173.745C143.04 159.819 177.891 161.024 204.277 165.871C217.467 168.295 228.519 171.624 236.655 174.416C240.591 175.767 243.841 176.989 246.351 177.934L246.605 178.03C247.864 178.503 248.967 178.917 249.853 179.228C250.643 179.506 251.573 179.817 252.342 179.945C252.336 179.944 252.336 179.944 252.346 179.947C252.375 179.953 252.487 179.978 252.718 180.042C252.995 180.119 253.355 180.225 253.811 180.365C254.317 180.52 254.878 180.696 255.519 180.897C256.071 181.071 256.683 181.263 257.371 181.476C260.274 182.377 264.152 183.542 268.728 184.692C277.86 186.987 289.865 189.25 302.625 189.25C315.38 189.25 329.085 186.988 341.442 180.05C353.875 173.071 363.934 161.058 371 143L394.336 91.1157C395.104 89.3237 396.427 87.3184 398.304 85.0997C400.267 82.8811 401.248 81.1317 401.248 79.8517V79.3397C401.248 78.6062 400.534 74.036 398.304 70.2329C395.605 65.6295 393 63 390 63C387 63 385.347 65.0972 382.648 69.2329C379.851 73.5201 378.208 78.599 378.208 79.4677V79.9797C378.208 80.833 378.976 81.8997 380.512 83.1797C382.134 84.4597 383.371 85.7397 384.224 87.0197C385.163 88.2144 385.163 90.3904 384.224 93.5477L372.448 122.092L359.392 91.3717C358.539 88.7264 358.24 86.9344 358.496 85.9957C358.752 85.0571 359.264 84.0331 360.032 82.9237C360.8 81.8144 361.184 80.833 361.184 79.9797V79.4677C361.184 78.6853 358.894 74.1108 355.148 70.2329C354.985 70.0637 354.824 69.8963 354.664 69.7311C350.51 65.423 347.691 62.5 343.5 62.5C340.021 62.5 338.097 64.7052 334.66 68.6463C334.493 68.8378 334.323 69.0333 334.148 69.2329C330.56 73.3379 327.904 78.5486 327.904 79.3397V79.8517C327.904 81.217 328.843 83.009 330.72 85.2277C332.683 87.361 334.134 89.3237 335.072 91.1157L362 143C355.566 159.442 348.25 167.054 337.526 173.074C326.727 179.137 314.495 181.25 302.625 181.25C290.759 181.25 279.452 179.138 270.678 176.933C266.301 175.833 262.578 174.716 259.742 173.836C259.119 173.642 258.519 173.454 257.961 173.279L257.957 173.278C257.28 173.065 256.667 172.873 256.156 172.716C255.299 172.454 254.349 172.169 253.658 172.054C253.677 172.057 253.384 171.99 252.504 171.68C251.719 171.405 250.705 171.025 249.422 170.542L249.154 170.441L249.153 170.441C246.643 169.496 243.3 168.238 239.251 166.849C230.856 163.969 219.408 160.517 205.723 158.003C178.359 152.976 141.96 151.68 103.095 166.254C43.656 188.544 16.2548 166.06 10.0776 154.209C8.02029 149.929 7.93898 146.897 8.70808 144.246C9.55501 141.327 11.5497 138.409 14.6468 134.564C15.3505 133.69 16.0973 132.785 16.8761 131.841C22.8003 124.664 30.5772 115.242 35.3149 100.202C37.0427 94.7165 35.6815 88.4449 33.5605 82.548C31.5291 76.9003 28.4837 70.7882 25.5245 64.8495C25.3301 64.4593 25.1361 64.0698 24.9427 63.6813C21.7449 57.2562 18.7091 51.0386 16.791 45.2794C14.8504 39.4525 14.2837 34.737 15.3397 31.1211C18.3503 20.812 24.0587 14.8027 30.2404 11.661C36.5221 8.4686 43.5637 8.102 49.3118 9.60699C55.2527 11.1624 58.8334 14.3854 59.7234 17.3952C60.4725 19.9284 56.1795 25.2417 51 28.5C45.8205 31.7583 50.6402 37.0165 56.8201 36.2582Z" fill="black"/>
</svg>
