<svg width="1070" height="982" viewBox="0 0 1070 982" fill="none" xmlns="http://www.w3.org/2000/svg">
<path d="M46.1092 185.531V384.833L40 386.085L46.1092 393H347V172.011L336.295 165V185.531H46.1092ZM232.298 330.996L60.1094 328.998L59.2293 203.809H231.421L232.298 330.996Z" fill="black"/>
<path opacity="0.1" d="M824.354 838.261C796.255 863.212 758.631 857.026 726.844 867.044C666.939 885.928 630.401 953.962 610.024 1015.5C603.199 1036.11 596.419 1058.28 580.35 1073.42C560.707 1091.96 532.508 1094.52 509.212 1089.25C466.772 1079.64 432.793 1046.91 420.796 1004.06C410.43 967.03 415.729 924.477 404.349 887.87C385.225 826.695 323.885 795.429 263.4 779.013C220.592 767.434 171.515 757.626 151.22 718.104C136.95 690.284 141.074 653.43 153.345 620.728C159.295 604.919 167.175 588.946 167.356 572.82C167.468 563.221 164.802 554.237 161.467 545.812C131.016 468.741 46.2157 429.725 20.223 350.418C2.64962 296.855 15.4294 232.286 42.931 176.201C70.4326 120.116 111.435 70.975 153.175 23.863C182.863 -9.64879 215.865 -44.2563 256.504 -56.0088C299.489 -68.4336 342.739 -51.332 369.973 -20.9234C397.208 9.48518 410.361 51.5463 417.402 94.278C426.222 147.725 427.153 206.273 456.546 248.42C476.561 277.125 507.593 294.75 535.86 314.762C583.101 348.23 623.962 389.762 664.202 431.522C683.788 451.895 703.334 472.47 721.512 494.226C725.59 499.099 729.605 504.051 733.558 509.082C735.534 511.608 737.494 514.154 739.422 516.71C740.939 518.704 742.399 520.753 743.908 522.741C746.247 525.93 748.544 529.153 750.798 532.41C757.279 541.754 763.409 551.373 769.133 561.325C789.021 595.941 795.666 635.403 811.477 671.834C821.78 695.581 839.185 713.701 846.469 739.298C855.458 770.765 853.902 812.026 824.354 838.261Z" fill="#2A9D8F"/>
<path d="M290.309 431C323.276 431 350.001 425.481 350.001 418.674C350.001 411.867 323.276 406.348 290.309 406.348C257.342 406.348 230.617 411.867 230.617 418.674C230.617 425.481 257.342 431 290.309 431Z" fill="#F2F2F2"/>
<path d="M58.2554 320.079C58.6111 320.907 58.9876 321.744 59.3741 322.567L58.5458 322.955C58.155 322.123 57.7745 321.277 57.4146 320.439L58.2554 320.079Z" fill="#E6E6E6"/>
<path d="M205.983 253.816C206.506 254.928 207.008 256.062 207.475 257.186L206.63 257.536C205.931 255.854 205.156 254.159 204.34 252.519L205.159 252.112C205.44 252.675 205.714 253.243 205.983 253.816ZM202.506 247.206L201.716 247.668C200.789 246.085 199.797 244.518 198.768 243.008L199.524 242.494C200.565 244.02 201.568 245.606 202.506 247.206ZM209.443 262.402C210.038 264.159 210.578 265.956 211.049 267.742L210.165 267.975C209.699 266.209 209.165 264.433 208.576 262.696L209.443 262.402ZM196.226 237.996L195.507 238.561C194.374 237.123 193.176 235.706 191.947 234.349L192.625 233.736C193.869 235.108 195.081 236.541 196.226 237.996ZM212.284 273.18C212.631 274.998 212.92 276.852 213.141 278.69L212.233 278.8C212.014 276.981 211.729 275.148 211.385 273.351L212.284 273.18ZM188.738 229.734L188.104 230.393C186.784 229.125 185.404 227.887 184.002 226.715L184.59 226.014C186.007 227.2 187.403 228.452 188.738 229.734ZM213.616 284.255C213.709 286.108 213.739 287.987 213.704 289.837L212.789 289.82C212.823 287.991 212.794 286.134 212.701 284.301L213.616 284.255ZM180.194 222.587L179.656 223.326C178.173 222.251 176.636 221.213 175.085 220.243L175.571 219.468C177.139 220.449 178.694 221.499 180.194 222.587ZM213.408 295.411C213.246 297.258 213.018 299.122 212.73 300.95L211.827 300.807C212.111 299 212.337 297.158 212.497 295.33L213.408 295.411ZM170.745 216.672L170.313 217.478C168.698 216.614 167.033 215.795 165.363 215.044L165.738 214.21C167.427 214.97 169.112 215.798 170.745 216.672ZM211.675 306.428C211.263 308.233 210.783 310.047 210.249 311.821L209.373 311.557C209.901 309.803 210.375 308.009 210.783 306.225L211.675 306.428ZM160.575 212.095L160.257 212.953C158.538 212.316 156.776 211.731 155.019 211.213L155.278 210.336C157.055 210.86 158.837 211.452 160.575 212.095ZM208.458 317.103C207.804 318.837 207.081 320.569 206.312 322.251L205.48 321.871C206.241 320.207 206.955 318.495 207.602 316.781L208.458 317.103ZM149.872 208.941L149.673 209.833C147.886 209.437 146.06 209.096 144.246 208.822L144.383 207.918C146.218 208.195 148.064 208.54 149.872 208.941ZM203.82 327.24C202.937 328.867 201.986 330.484 200.994 332.045L200.221 331.556C201.202 330.012 202.142 328.413 203.016 326.803L203.82 327.24ZM138.835 207.272L138.761 208.183C136.932 208.034 135.076 207.946 133.243 207.922L133.255 207.008C135.109 207.032 136.986 207.121 138.835 207.272V207.272ZM197.847 336.646C196.75 338.137 195.588 339.608 194.392 341.019L193.694 340.428C194.876 339.033 196.026 337.578 197.11 336.104L197.847 336.646ZM127.669 207.128L127.721 208.041C125.889 208.144 124.037 208.312 122.217 208.541L122.102 207.634C123.944 207.402 125.817 207.232 127.669 207.128ZM190.646 345.142C189.353 346.47 187.998 347.769 186.618 349.003L186.008 348.322C187.372 347.102 188.712 345.818 189.99 344.505L190.646 345.142ZM116.592 208.522L116.768 209.419C114.97 209.773 113.162 210.194 111.394 210.67L111.157 209.787C112.945 209.306 114.773 208.88 116.592 208.522ZM182.334 352.577C180.872 353.713 179.351 354.813 177.814 355.847L177.303 355.088C178.823 354.066 180.327 352.979 181.772 351.855L182.334 352.577ZM105.822 211.422L106.12 212.286C104.39 212.882 102.657 213.546 100.967 214.259L100.611 213.417C102.319 212.695 104.072 212.024 105.822 211.422ZM173.08 358.799C171.478 359.723 169.821 360.606 168.155 361.422L167.752 360.601C169.4 359.794 171.038 358.921 172.622 358.007L173.08 358.799ZM95.9591 216.577C94.3213 217.402 92.6928 218.293 91.1191 219.225L90.6526 218.439C92.2442 217.496 93.8909 216.595 95.5469 215.76L95.9591 216.577ZM86.4712 222.196C84.9609 223.237 83.4696 224.342 82.0389 225.48L81.469 224.765C82.9159 223.614 84.4241 222.497 85.9518 221.444L86.4712 222.196ZM77.844 229.062C76.4946 230.297 75.171 231.595 73.9105 232.92L73.2475 232.29C74.5225 230.95 75.8611 229.637 77.226 228.388L77.844 229.062ZM70.2517 237.04C69.0834 238.451 67.9505 239.919 66.8841 241.404L66.1406 240.87C67.2192 239.369 68.3652 237.884 69.5467 236.458L70.2517 237.04ZM63.8229 245.989C62.858 247.547 61.936 249.157 61.0822 250.772L60.2733 250.346C61.1364 248.712 62.0689 247.084 63.0446 245.507L63.8229 245.989ZM58.6744 255.734C57.9315 257.406 57.2368 259.127 56.6094 260.847L55.7498 260.534C56.3842 258.794 57.0868 257.054 57.8378 255.363L58.6744 255.734ZM54.8981 266.09C54.3893 267.851 53.9348 269.651 53.5478 271.438L52.6536 271.245C53.0449 269.437 53.5043 267.617 54.0191 265.837L54.8981 266.09ZM52.5652 276.866C52.3013 278.681 52.0967 280.526 51.9576 282.35L51.0452 282.281C51.186 280.436 51.3926 278.57 51.6599 276.735L52.5652 276.866ZM51.7283 287.864C51.7149 289.697 51.7657 291.553 51.8789 293.38L50.9657 293.437C50.8512 291.589 50.7999 289.711 50.813 287.857L51.7283 287.864ZM52.4105 298.875C52.6498 300.689 52.9557 302.519 53.3196 304.313L52.4229 304.495C52.0547 302.68 51.7453 300.829 51.5033 298.994L52.4105 298.875ZM54.6022 309.676C55.0888 311.439 55.6432 313.209 56.2504 314.937L55.3866 315.24C54.7727 313.492 54.212 311.701 53.7199 309.919L54.6022 309.676Z" fill="#E6E6E6"/>
<path d="M162.594 362.913L162.939 363.76C162.084 364.108 161.218 364.444 160.366 364.757L160.05 363.9C160.892 363.589 161.748 363.258 162.594 362.913Z" fill="#E6E6E6"/>
<path d="M205.604 324.648C205.513 324.499 203.36 320.907 202.613 313.447C201.929 306.603 202.369 295.067 208.357 278.975C219.7 248.49 205.742 223.893 205.6 223.648L206.288 223.249C206.325 223.311 209.926 229.582 212.054 239.568C214.865 252.808 213.842 266.574 209.103 279.252C197.778 309.685 206.198 324.092 206.284 324.234L205.604 324.648Z" fill="#3F3D56"/>
<path d="M201.168 221.858C204.026 221.858 206.342 219.544 206.342 216.689C206.342 213.834 204.026 211.52 201.168 211.52C198.311 211.52 195.995 213.834 195.995 216.689C195.995 219.544 198.311 221.858 201.168 221.858Z" fill="#6C63FF"/>
<path d="M217.484 240.943C220.341 240.943 222.658 238.629 222.658 235.774C222.658 232.92 220.341 230.605 217.484 230.605C214.627 230.605 212.311 232.92 212.311 235.774C212.311 238.629 214.627 240.943 217.484 240.943Z" fill="#3F3D56"/>
<path d="M206.342 253.667C209.199 253.667 211.515 251.353 211.515 248.498C211.515 245.643 209.199 243.329 206.342 243.329C203.485 243.329 201.168 245.643 201.168 248.498C201.168 251.353 203.485 253.667 206.342 253.667Z" fill="#6C63FF"/>
<path d="M219.872 264.402C222.729 264.402 225.045 262.088 225.045 259.233C225.045 256.379 222.729 254.064 219.872 254.064C217.015 254.064 214.699 256.379 214.699 259.233C214.699 262.088 217.015 264.402 219.872 264.402Z" fill="#6C63FF"/>
<path d="M202.362 281.101C205.219 281.101 207.536 278.787 207.536 275.933C207.536 273.078 205.219 270.764 202.362 270.764C199.505 270.764 197.189 273.078 197.189 275.933C197.189 278.787 199.505 281.101 202.362 281.101Z" fill="#3F3D56"/>
<path d="M208.73 324.838C208.73 324.838 203.556 312.115 219.076 302.572L208.73 324.838Z" fill="#3F3D56"/>
<path d="M202.367 324.608C202.367 324.608 200.013 311.077 181.79 311.193L202.367 324.608Z" fill="#3F3D56"/>
<path d="M168.215 229.752C168.029 229.707 167.833 229.732 167.664 229.821C167.494 229.91 167.363 230.057 167.294 230.235C167.225 230.414 167.224 230.611 167.29 230.791C167.356 230.97 167.484 231.12 167.652 231.211C170.353 232.717 172.728 234.742 174.641 237.169C183.563 248.485 180.448 265.803 167.683 275.851C162.015 280.391 154.948 282.831 147.683 282.755C156.254 285.168 166.371 283.269 174.524 276.852C187.288 266.804 190.404 249.486 181.482 238.17C178.13 233.956 173.458 230.991 168.215 229.752V229.752Z" fill="#3F3D56"/>
<path d="M174.641 237.341C183.563 248.656 180.448 265.974 167.683 276.022C163.006 279.745 157.375 282.08 151.434 282.759C158.53 282.717 165.403 280.283 170.942 275.851C183.707 265.803 186.822 248.485 177.9 237.169C175.369 233.968 172.051 231.477 168.27 229.938L168.211 229.924C168.025 229.88 167.83 229.906 167.661 229.995C167.492 230.085 167.362 230.232 167.294 230.41C167.226 230.589 167.225 230.785 167.291 230.964C167.357 231.143 167.486 231.292 167.653 231.384C170.353 232.889 172.728 234.914 174.641 237.341V237.341Z" fill="#6C63FF"/>
<path d="M135.072 219.87L140.339 228.984L145.605 238.098H135.072H124.54L129.806 228.984L135.072 219.87Z" fill="#6C63FF"/>
<path d="M154.281 219.87L159.548 228.984L164.814 238.098H154.281H143.748L149.014 228.984L154.281 219.87Z" fill="#6C63FF"/>
<path d="M134.463 224.624L137.712 230.247L140.962 235.87H134.463H127.964L131.214 230.247L134.463 224.624Z" fill="#3F3D56"/>
<path d="M154.205 224.624L157.454 230.247L160.703 235.87H154.205H147.706L150.955 230.247L154.205 224.624Z" fill="#3F3D56"/>
<path d="M181.722 284.709C181.723 293.133 178.847 301.306 173.57 307.877C168.293 314.447 160.931 319.023 152.699 320.847C144.468 322.672 135.859 321.637 128.296 317.912C120.734 314.187 114.668 307.997 111.103 300.362C107.538 292.728 106.685 284.107 108.687 275.923C110.688 267.74 115.424 260.483 122.111 255.352C128.799 250.221 137.038 247.523 145.468 247.703C153.897 247.883 162.014 250.931 168.475 256.343C172.623 259.817 175.959 264.157 178.247 269.058C180.536 273.959 181.722 279.301 181.722 284.709V284.709Z" fill="#3F3D56"/>
<path opacity="0.1" d="M168.475 256.343C165.376 264.43 155.894 270.314 144.677 270.314C133.46 270.314 123.978 264.43 120.878 256.343C127.548 250.756 135.974 247.694 144.677 247.694C153.38 247.694 161.806 250.756 168.475 256.343V256.343Z" fill="black"/>
<path d="M144.677 267.401C158.411 267.401 169.546 258.578 169.546 247.694C169.546 236.81 158.411 227.987 144.677 227.987C130.942 227.987 119.808 236.81 119.808 247.694C119.808 258.578 130.942 267.401 144.677 267.401Z" fill="#3F3D56"/>
<path d="M133.014 249.579C135.572 249.579 137.645 247.508 137.645 244.952C137.645 242.397 135.572 240.326 133.014 240.326C130.457 240.326 128.383 242.397 128.383 244.952C128.383 247.508 130.457 249.579 133.014 249.579Z" fill="white"/>
<path d="M156.339 249.579C158.897 249.579 160.97 247.508 160.97 244.952C160.97 242.397 158.897 240.326 156.339 240.326C153.782 240.326 151.708 242.397 151.708 244.952C151.708 247.508 153.782 249.579 156.339 249.579Z" fill="white"/>
<path d="M133.014 247.866C134.625 247.866 135.93 246.562 135.93 244.953C135.93 243.344 134.625 242.04 133.014 242.04C131.404 242.04 130.099 243.344 130.099 244.953C130.099 246.562 131.404 247.866 133.014 247.866Z" fill="#3F3D56"/>
<path d="M156.339 247.866C157.95 247.866 159.255 246.562 159.255 244.953C159.255 243.344 157.95 242.04 156.339 242.04C154.729 242.04 153.424 243.344 153.424 244.953C153.424 246.562 154.729 247.866 156.339 247.866Z" fill="#3F3D56"/>
<path d="M139.476 252.32C139.949 252.32 140.333 251.936 140.333 251.463C140.333 250.99 139.949 250.606 139.476 250.606C139.002 250.606 138.618 250.99 138.618 251.463C138.618 251.936 139.002 252.32 139.476 252.32Z" fill="#6C63FF"/>
<path d="M139.146 251.245C137.464 252.008 136.35 253.562 134.583 254.23C132.782 254.907 130.803 254.944 128.978 254.334C128.663 254.23 128.528 254.726 128.841 254.829C130.668 255.438 132.645 255.433 134.469 254.816C135.332 254.522 136.142 254.092 136.868 253.542C137.711 252.903 138.429 252.133 139.406 251.689C139.707 251.553 139.446 251.109 139.146 251.245Z" fill="#6C63FF"/>
<path d="M139.816 251.027C138.957 251.225 138.128 251.538 137.352 251.958C136.459 252.389 135.497 252.659 134.51 252.757C132.638 252.919 130.765 252.445 129.195 251.413C128.917 251.231 128.659 251.676 128.936 251.856C130.507 252.887 132.367 253.389 134.245 253.29C135.156 253.243 136.053 253.048 136.902 252.714C137.925 252.306 138.853 251.712 139.953 251.523C140.279 251.467 140.141 250.971 139.816 251.027V251.027Z" fill="#6C63FF"/>
<path d="M139.357 250.694C138.047 251.928 137.503 253.712 136.114 254.907C134.619 256.193 132.716 256.907 130.743 256.924C130.677 256.926 130.613 256.954 130.567 257.002C130.521 257.05 130.495 257.114 130.495 257.181C130.495 257.247 130.521 257.312 130.567 257.359C130.613 257.407 130.677 257.435 130.743 257.438C132.653 257.424 134.506 256.792 136.026 255.637C136.713 255.117 137.316 254.495 137.816 253.793C138.463 252.877 138.892 251.838 139.721 251.057C139.962 250.829 139.598 250.466 139.357 250.694H139.357Z" fill="#6C63FF"/>
<path d="M148.505 252.32C148.979 252.32 149.363 251.936 149.363 251.463C149.363 250.99 148.979 250.606 148.505 250.606C148.032 250.606 147.648 250.99 147.648 251.463C147.648 251.936 148.032 252.32 148.505 252.32Z" fill="#6C63FF"/>
<path d="M148.575 251.689C149.542 252.128 150.257 252.885 151.087 253.522C151.82 254.081 152.639 254.518 153.512 254.815C155.337 255.434 157.313 255.439 159.14 254.829C159.453 254.726 159.319 254.229 159.004 254.334C157.179 254.944 155.199 254.908 153.399 254.23C151.631 253.561 150.518 252.009 148.835 251.245C148.536 251.11 148.274 251.552 148.575 251.689V251.689Z" fill="#6C63FF"/>
<path d="M148.028 251.523C149.085 251.704 149.978 252.261 150.956 252.665C151.841 253.028 152.781 253.239 153.736 253.29C155.614 253.389 157.474 252.887 159.045 251.856C159.321 251.676 159.064 251.231 158.786 251.413C157.217 252.448 155.344 252.921 153.471 252.757C152.485 252.657 151.523 252.386 150.629 251.958C149.853 251.539 149.024 251.225 148.165 251.027C147.841 250.971 147.702 251.466 148.028 251.523V251.523Z" fill="#6C63FF"/>
<path d="M148.26 251.057C149.088 251.837 149.517 252.879 150.165 253.793C150.665 254.494 151.268 255.116 151.955 255.637C153.475 256.792 155.328 257.424 157.238 257.438C157.304 257.435 157.368 257.407 157.414 257.359C157.461 257.311 157.486 257.247 157.486 257.181C157.486 257.114 157.461 257.05 157.414 257.002C157.368 256.954 157.304 256.926 157.238 256.924C155.265 256.909 153.361 256.195 151.867 254.907C150.484 253.707 149.934 251.928 148.624 250.693C148.384 250.466 148.019 250.829 148.26 251.057V251.057Z" fill="#6C63FF"/>
<path d="M133.014 324.293C136.803 324.293 139.874 322.529 139.874 320.352C139.874 318.175 136.803 316.411 133.014 316.411C129.225 316.411 126.154 318.175 126.154 320.352C126.154 322.529 129.225 324.293 133.014 324.293Z" fill="#3F3D56"/>
<path d="M156.339 324.293C160.128 324.293 163.2 322.529 163.2 320.352C163.2 318.175 160.128 316.411 156.339 316.411C152.55 316.411 149.479 318.175 149.479 320.352C149.479 322.529 152.55 324.293 156.339 324.293Z" fill="#3F3D56"/>
<path d="M143.991 254.549C147.117 254.549 149.651 253.091 149.651 251.293C149.651 249.495 147.117 248.037 143.991 248.037C140.865 248.037 138.331 249.495 138.331 251.293C138.331 253.091 140.865 254.549 143.991 254.549Z" fill="#6C63FF"/>
<path d="M40 167V386H336V167H40ZM78.1423 169.757C79.0853 169.757 80.0071 170.034 80.7911 170.554C81.5752 171.073 82.1863 171.811 82.5471 172.675C82.908 173.539 83.0024 174.489 82.8184 175.406C82.6345 176.323 82.1804 177.165 81.5136 177.826C80.8468 178.487 79.9973 178.937 79.0724 179.12C78.1476 179.302 77.1889 179.208 76.3177 178.851C75.4465 178.493 74.7019 177.887 74.178 177.11C73.6541 176.332 73.3745 175.419 73.3745 174.484C73.3745 173.23 73.8768 172.028 74.7709 171.142C75.6651 170.255 76.8778 169.757 78.1423 169.757ZM49.5356 179.21C48.5926 179.21 47.6708 178.933 46.8867 178.414C46.1027 177.894 45.4916 177.156 45.1307 176.293C44.7699 175.429 44.6754 174.479 44.8594 173.562C45.0434 172.645 45.4975 171.803 46.1642 171.142C46.831 170.481 47.6806 170.03 48.6054 169.848C49.5303 169.666 50.4889 169.759 51.3601 170.117C52.2313 170.475 52.9759 171.081 53.4998 171.858C54.0237 172.635 54.3034 173.549 54.3034 174.484C54.3034 175.737 53.801 176.94 52.9069 177.826C52.0128 178.712 50.8001 179.21 49.5356 179.21ZM59.0711 174.484C59.0711 173.549 59.3508 172.635 59.8747 171.858C60.3986 171.081 61.1432 170.475 62.0144 170.117C62.8856 169.759 63.8442 169.666 64.7691 169.848C65.6939 170.03 66.5435 170.481 67.2103 171.142C67.8771 171.803 68.3311 172.645 68.5151 173.562C68.6991 174.479 68.6046 175.429 68.2438 176.293C67.8829 177.156 67.2718 177.894 66.4878 178.414C65.7037 178.933 64.7819 179.21 63.8389 179.21C62.5744 179.21 61.3617 178.712 60.4676 177.826C59.5735 176.94 59.0711 175.737 59.0711 174.484ZM223.162 324.554H63.8389V207.176H223.162V324.554Z" fill="#ABD3E2"/>
<rect x="41" y="166" width="296" height="221" stroke="black" stroke-width="2"/>
<path d="M330.103 168.976H320.553V170.169H330.103V168.976Z" fill="white"/>
<path d="M330.103 172.555H320.553V173.748H330.103V172.555Z" fill="white"/>
<path d="M330.103 176.133H320.553V177.326H330.103V176.133Z" fill="white"/>
<path d="M320.553 203.568H248.524V207.146H320.553V203.568Z" fill="white"/>
<path d="M320.553 215.894H248.524V219.473H320.553V215.894Z" fill="white"/>
<path d="M320.553 228.22H248.524V231.798H320.553V228.22Z" fill="white"/>
<path d="M320.553 240.545H248.524V244.124H320.553V240.545Z" fill="white"/>
<path d="M320.553 252.872H248.524V256.45H320.553V252.872Z" fill="white"/>
<path d="M320.553 265.197H248.524V268.776H320.553V265.197Z" fill="white"/>
<path d="M320.553 277.523H248.524V281.101H320.553V277.523Z" fill="white"/>
<path d="M321.029 309H249V312.578H321.029V309Z" fill="white"/>
<path d="M320.553 302.175H248.524V305.753H320.553V302.175Z" fill="white"/>
<path d="M320.553 314.501H248.524V318.079H320.553V314.501Z" fill="white"/>
<path d="M73.4282 337.165C76.0655 337.165 78.2035 335.028 78.2035 332.393C78.2035 329.758 76.0655 327.622 73.4282 327.622C70.7908 327.622 68.6528 329.758 68.6528 332.393C68.6528 335.028 70.7908 337.165 73.4282 337.165Z" fill="white"/>
<path d="M89.7436 337.165C92.381 337.165 94.519 335.028 94.519 332.393C94.519 329.758 92.381 327.622 89.7436 327.622C87.1063 327.622 84.9683 329.758 84.9683 332.393C84.9683 335.028 87.1063 337.165 89.7436 337.165Z" fill="white"/>
<path d="M106.06 337.165C108.697 337.165 110.835 335.028 110.835 332.393C110.835 329.758 108.697 327.622 106.06 327.622C103.422 327.622 101.284 329.758 101.284 332.393C101.284 335.028 103.422 337.165 106.06 337.165Z" fill="white"/>
<path d="M320.553 355.852H248.524V376.13H320.553V355.852Z" fill="#6C63FF"/>
<path d="M284.323 339.728L285.129 367.899L293.722 400.899C293.722 400.899 291.842 406.533 293.185 407.875C294.527 409.216 300.703 411.631 300.703 411.631L295.601 341.337L284.323 339.728Z" fill="#2F2E41"/>
<path d="M302.979 407.737C302.979 407.737 306.043 414.473 301.753 415.085C297.463 415.698 277.647 417.331 278.873 413.861C280.099 410.391 295.012 407.125 295.012 407.125L302.979 407.737Z" fill="#E89A5E"/>
<path d="M314.398 314.776C314.398 314.776 311.175 332.216 309.027 335.167C306.879 338.118 310.101 359.582 310.101 359.582C310.101 359.582 314.935 390.436 312.786 395.265C310.638 400.094 311.175 398.484 311.444 401.167C311.712 403.85 312.249 405.997 311.444 408.411C310.638 410.826 310.638 410.558 310.37 411.899C310.101 413.241 310.37 420.485 310.37 420.485C310.37 420.485 298.823 424.509 296.944 418.607C296.944 418.607 299.629 414.85 298.823 411.899C297.983 408.929 297.532 405.863 297.481 402.777V397.143L285.129 350.996L282.175 334.362C282.175 334.362 282.98 317.459 285.934 315.849C288.888 314.24 314.398 314.776 314.398 314.776Z" fill="#2F2E41"/>
<path d="M309.564 419.143C309.564 419.143 313.592 427.997 307.953 428.801C302.314 429.606 276.267 431.753 277.878 427.192C279.489 422.631 299.092 418.338 299.092 418.338L309.564 419.143Z" fill="#E89A5E"/>
<path d="M304.46 237.518C310.392 237.518 315.201 232.714 315.201 226.787C315.201 220.859 310.392 216.055 304.46 216.055C298.528 216.055 293.719 220.859 293.719 226.787C293.719 232.714 298.528 237.518 304.46 237.518Z" fill="#FFB9B9"/>
<path d="M312.007 231.529L311.807 245.234L298.639 245.278C298.639 245.278 301.981 234.55 300.484 232.306C298.987 230.063 312.007 231.529 312.007 231.529Z" fill="#FFB9B9"/>
<path d="M292.379 252.8C292.379 252.8 301.777 240.727 309.027 245.824C316.277 250.922 318.963 262.995 318.963 262.995L317.352 296.8C317.352 296.8 313.324 301.63 315.74 304.849C318.157 308.069 319.5 307.264 317.62 309.679C315.74 312.093 313.592 313.971 314.398 314.776C315.203 315.581 313.592 316.118 313.592 316.118L285.129 316.923C285.129 316.923 285.934 315.849 283.518 312.63C281.101 309.41 284.055 305.118 283.518 303.508C282.981 301.898 282.444 303.776 282.175 300.02C281.906 296.264 292.379 252.8 292.379 252.8Z" fill="#E89A5E"/>
<path d="M295.064 322.02C295.064 322.02 294.527 328.727 290.499 329.8C288.989 330.203 287.856 329.436 287.03 328.32C286.259 327.25 285.826 325.974 285.789 324.656C285.751 323.338 286.11 322.039 286.819 320.927L287.814 319.337L295.064 322.02Z" fill="#FFB9B9"/>
<path d="M319.903 239.251C319.903 239.251 320.172 244.617 319.903 245.422C319.634 246.226 319.366 247.031 319.903 247.836C320.44 248.641 320.172 251.324 319.634 251.592C319.097 251.861 320.709 254.275 320.172 255.885C319.634 257.495 319.097 258.031 318.829 258.568C318.56 259.105 318.128 260.066 318.128 260.066C318.128 260.066 310.236 243.275 303.792 247.3C297.347 251.324 292.245 252.666 292.245 252.666C292.245 252.666 295.736 233.885 319.903 239.251Z" fill="#3F3D56"/>
<path d="M308.222 251.727C308.222 251.727 316.814 252.532 316.277 263.8C315.74 275.068 317.083 292.776 317.083 292.776C317.083 292.776 302.314 315.313 299.898 316.923C297.481 318.532 297.212 318.264 297.481 319.606C297.749 320.947 298.018 322.02 296.944 323.093C296.31 323.731 295.586 324.274 294.796 324.703C294.796 324.703 286.203 321.752 287.008 319.069C287.814 316.386 291.573 312.093 291.573 312.093C291.573 312.093 298.018 301.63 298.286 300.02C298.555 298.41 298.555 298.678 299.36 297.874C300.166 297.069 302.314 293.849 302.314 292.239V287.142L300.063 259.9C299.961 258.791 300.095 257.672 300.456 256.618C300.817 255.564 301.398 254.598 302.159 253.784C303.437 252.448 305.369 251.385 308.222 251.727Z" fill="#E89A5E"/>
<path d="M297.533 218.51C296.833 218.704 296.096 218.72 295.388 218.558C294.68 218.396 294.023 218.061 293.477 217.582C292.428 216.586 292.075 214.859 292.822 213.62C293.467 212.549 294.721 212.026 295.915 211.654C298.547 210.834 301.289 210.416 304.047 210.415C305.362 210.414 306.735 210.526 307.86 211.206C308.416 211.542 308.888 212.004 309.438 212.351C310.45 212.988 311.666 213.2 312.777 213.642C313.913 214.104 314.936 214.803 315.778 215.694C316.62 216.585 317.261 217.646 317.657 218.806C317.912 219.593 318.071 220.407 318.131 221.232C318.313 223.491 317.914 225.758 316.971 227.819C315.473 231.084 312.621 233.828 312.218 237.397C310.683 236.109 310.233 233.949 309.044 232.337C308.159 231.145 306.895 230.288 305.46 229.907C305.059 229.854 304.681 229.685 304.374 229.422C304.168 229.136 304.05 228.797 304.035 228.445L303.298 223.143C303.148 222.064 302.945 220.885 302.116 220.177C301.597 219.79 300.994 219.529 300.357 219.414C298.849 219.039 297.313 218.789 295.764 218.665" fill="#E76F51"/>
<path opacity="0.1" d="M315.777 296.608L300.703 316.154C300.703 316.154 314.583 304.561 315.777 296.608Z" fill="black"/>
<path opacity="0.1" d="M301.308 274.969L301.451 293.428L292.696 306.549L299.859 291.837L301.308 274.969Z" fill="black"/>
<path d="M250.045 878.632C326.236 878.632 388.001 871.915 388.001 863.63C388.001 855.344 326.236 848.627 250.045 848.627C173.854 848.627 112.089 855.344 112.089 863.63C112.089 871.915 173.854 878.632 250.045 878.632Z" fill="#3F3D56"/>
<path d="M318.463 847.029L320.842 854.164C320.842 854.164 332.301 865.686 328.156 868.809C324.012 871.932 314.714 855.469 314.714 855.469L313 847.414L318.463 847.029Z" fill="#FFB8B8"/>
<path d="M296.479 791.804L299.948 790.679C299.948 790.679 305.343 792.179 306.113 797.43C306.884 802.681 312.664 829.311 312.664 829.311C312.664 829.311 314.976 830.436 313.435 832.311C311.894 834.187 321.142 851.065 321.142 851.065L313.82 854.44C313.82 854.44 299.177 839.438 299.177 837.937C299.177 836.437 299.562 834.937 299.562 833.436C299.562 831.936 299.177 831.936 299.562 830.811C299.82 829.83 299.949 828.822 299.948 827.81L297.25 821.809L296.479 791.804Z" fill="#7B61FF"/>
<path d="M119.843 817.532C139.086 817.532 154.686 786.552 154.686 748.336C154.686 710.121 139.086 679.141 119.843 679.141C100.6 679.141 85.0005 710.121 85.0005 748.336C85.0005 786.552 100.6 817.532 119.843 817.532Z" fill="#287271"/>
<path d="M119.523 749.054C121.261 718.933 124.763 698.588 124.798 698.386L124.038 698.261C124.003 698.463 120.495 718.841 118.754 749C117.148 776.836 116.76 818.938 124.038 861.44L124.798 861.317C117.533 818.887 117.919 776.848 119.523 749.054Z" fill="#3F3D56"/>
<path d="M150.984 734.303L119.481 750.715L119.845 751.376L151.348 734.965L150.984 734.303Z" fill="#3F3D56"/>
<path d="M86.5876 742.529L86.2241 743.19L117.732 759.594L118.095 758.932L86.5876 742.529Z" fill="#3F3D56"/>
<path d="M202.365 801.378C228.698 801.378 250.044 758.984 250.044 706.689C250.044 654.394 228.698 612 202.365 612C176.032 612 154.686 654.394 154.686 706.689C154.686 758.984 176.032 801.378 202.365 801.378Z" fill="#E89A5E"/>
<path d="M201.786 707.659C204.165 666.435 208.958 638.59 209.006 638.313L208.246 638.188C208.198 638.465 203.399 666.343 201.017 707.606C198.819 745.689 198.289 803.292 208.246 861.441L209.006 861.318C199.061 803.241 199.591 745.702 201.786 707.659Z" fill="#3F3D56"/>
<path d="M245.047 687.608L201.937 710.066L202.301 710.727L245.41 688.269L245.047 687.608Z" fill="#3F3D56"/>
<path d="M156.791 698.864L156.427 699.525L199.543 721.972L199.907 721.31L156.791 698.864Z" fill="#3F3D56"/>
<path d="M162.645 838.276C172.484 838.276 180.46 822.437 180.46 802.898C180.46 783.359 172.484 767.52 162.645 767.52C152.807 767.52 144.831 783.359 144.831 802.898C144.831 822.437 152.807 838.276 162.645 838.276Z" fill="#67A59D"/>
<path d="M162.63 804.422L162.735 804.614L178.842 796.223L178.479 795.561L162.663 803.8C163.538 788.122 165.328 777.597 165.365 777.39L164.605 777.265C164.565 777.491 162.439 789.989 161.684 808.075L145.733 799.765L145.369 800.426L161.476 808.817L161.668 808.467C161.064 823.394 161.403 842.058 164.605 860.756L165.365 860.633C161.874 840.247 161.797 819.899 162.63 804.422Z" fill="#3F3D56"/>
<path d="M301.195 756.2C295 745.925 282.746 745.446 282.746 745.446C282.746 745.446 270.804 743.947 263.144 759.596C256.004 774.182 246.149 788.266 261.557 791.68L264.34 783.176L266.064 792.313C268.258 792.468 270.459 792.505 272.656 792.424C289.157 791.901 304.872 792.577 304.366 786.764C303.693 779.036 307.155 766.087 301.195 756.2Z" fill="#2F2E41"/>
<path d="M258.019 838.504C257.846 839.578 257.595 840.638 257.268 841.678C256.9 842.695 256.331 843.636 255.994 844.663C254.92 847.939 256.409 851.592 258.786 854.12C260.842 856.3 263.505 857.853 266.45 858.588C268.595 859.117 270.826 859.193 273.036 859.267C279.157 859.471 285.436 859.653 291.236 857.722C293.07 857.096 294.84 856.307 296.524 855.364C297.057 855.114 297.525 854.752 297.896 854.303C298.338 853.685 298.395 852.883 298.391 852.127C298.378 849.58 297.852 847.045 297.977 844.501C298.046 843.091 298.314 841.683 298.182 840.278C298.004 838.688 297.326 837.19 296.241 835.988C295.155 834.787 293.715 833.942 292.118 833.567C290.472 833.22 288.766 833.409 287.091 833.567C282.742 833.978 278.376 834.169 274.007 834.142C269.544 834.114 265.108 833.445 260.667 833.375C259.354 833.354 259.381 833.752 258.963 835C258.577 836.148 258.262 837.318 258.019 838.504V838.504Z" fill="#2F2E41"/>
<path d="M240.567 836.433C239.367 836.137 238.13 836.008 236.893 836.05C235.593 836.129 234.324 836.475 233.17 837.064C232.016 837.653 231.003 838.472 230.196 839.468C229.397 840.479 228.823 841.64 228.511 842.878C228.198 844.117 228.154 845.405 228.381 846.661C228.68 848.021 229.17 849.335 229.837 850.566C230.811 852.507 231.979 854.443 233.783 855.687C234.869 856.371 236.039 856.918 237.266 857.315L246.765 860.828C248.162 861.345 249.56 861.862 250.971 862.341C258.057 864.746 265.45 866.189 272.941 866.629C275.222 866.762 277.537 866.799 279.762 866.289C280.306 866.219 280.804 865.955 281.159 865.548C281.341 865.238 281.447 864.892 281.471 864.536L282.056 860.519C282.187 859.959 282.17 859.377 282.006 858.825C281.739 858.15 281.067 857.726 280.427 857.365C274.182 853.843 266.891 851.901 261.634 847.068C260.397 845.93 259.361 844.127 257.858 843.354C256.153 842.477 254.145 841.977 252.383 841.17C248.53 839.404 244.742 837.375 240.567 836.433Z" fill="#2F2E41"/>
<path opacity="0.1" d="M250.05 841.849C253.407 842.882 267.583 850.037 270.013 852.536C269.687 852.651 258.637 846.572 258.305 846.474C255.291 845.586 252.261 844.692 249.398 843.392C248.823 843.131 245.658 841.902 245.801 841.189C245.963 840.384 249.454 841.666 250.05 841.849Z" fill="black"/>
<path d="M291.937 868.712C292.128 868.726 292.318 868.671 292.47 868.558C292.537 868.473 292.586 868.377 292.614 868.274C292.643 868.17 292.65 868.063 292.636 867.957L292.62 862.484C291.017 861.734 289.224 861.494 287.464 861.263L279.252 860.185C279.44 860.21 277.968 863.658 278.194 864.118C278.592 864.929 281.633 865.648 282.492 866.031C285.476 867.363 288.577 868.827 291.937 868.712Z" fill="#FFB8B8"/>
<path d="M266.171 862.465C264.62 862.707 262.89 862.922 261.886 864.107C260.612 865.609 261.154 867.85 261.762 869.711C261.852 870.087 262.033 870.437 262.29 870.731C262.704 871.132 263.34 871.191 263.921 871.227C265.335 871.315 266.84 871.384 268.075 870.703C268.635 870.34 269.174 869.947 269.689 869.526C270.599 868.931 271.601 868.481 272.657 868.194C274.594 867.595 276.59 867.191 278.613 866.989C279.41 866.953 280.198 866.817 280.959 866.583C281.34 866.461 281.688 866.256 281.974 865.983C282.261 865.71 282.479 865.376 282.611 865.008C282.898 864.013 282.309 862.999 281.744 862.127C281.041 861.04 280.295 859.896 279.247 859.096C277.716 857.929 276.959 858.825 275.418 859.572C272.503 860.985 269.386 861.96 266.171 862.465Z" fill="#FFB8B8"/>
<path d="M262.119 863.836L252.274 860.979C251.093 860.576 249.859 860.341 248.61 860.282C247.361 860.283 246.055 860.685 245.245 861.618C244.481 862.498 244.263 863.7 244.073 864.84L243.665 867.28C243.394 868.51 243.317 869.774 243.438 871.026C243.624 872.269 244.27 873.511 245.393 874.113C246.756 874.843 248.426 874.486 249.946 874.181C253.017 873.565 256.141 873.236 259.276 873.199C260.455 873.185 261.691 873.199 262.732 872.658C263.97 872.013 264.71 870.652 264.838 869.282C265.032 867.198 264.324 864.476 262.119 863.836Z" fill="#A0616A"/>
<path d="M295.807 861.347C297.083 861.127 298.209 860.415 299.432 859.994C301.154 859.403 303.019 859.403 304.843 859.409C305.513 859.412 306.226 859.427 306.783 859.791C307.586 860.316 307.792 861.367 307.929 862.305L308.753 867.964C308.908 869.028 309.062 870.121 308.82 871.17C308.579 872.219 307.851 873.23 306.791 873.5C305.503 873.829 304.241 873.021 303.025 872.491C299.987 871.165 296.455 871.504 293.288 870.513C292.7 870.329 292.07 870.048 291.83 869.49C291.722 869.176 291.683 868.842 291.717 868.512C291.771 866.693 291.38 864.209 291.938 862.471C292.44 860.907 294.382 861.347 295.807 861.347Z" fill="#A0616A"/>
<path d="M316.642 834.155C318.609 833.671 320.648 833.534 322.665 833.751C324.275 833.925 325.934 834.365 327.109 835.459C328.54 836.791 329 838.85 329.038 840.785C329.103 844.635 327.802 848.388 325.354 851.413C324.758 852.175 324.048 852.846 323.248 853.403C322.386 853.933 321.467 854.367 320.507 854.7L299.235 862.937C293.638 865.104 288.022 867.278 282.185 868.706C282.025 868.782 281.851 868.825 281.674 868.834C281.496 868.843 281.319 868.816 281.152 868.757C280.985 868.698 280.833 868.606 280.703 868.488C280.573 868.37 280.469 868.228 280.397 868.07C278.532 865.454 276.968 862.646 275.734 859.697C275.679 859.603 275.645 859.498 275.634 859.39C275.624 859.282 275.638 859.172 275.674 859.07C275.752 858.956 275.861 858.865 275.988 858.807L291.035 850.32C292.139 849.754 293.168 849.059 294.097 848.248C294.748 847.629 295.281 846.901 295.67 846.099C295.981 845.46 296.011 843.951 296.409 843.478C296.799 843.015 298.133 842.978 298.749 842.796C299.619 842.535 300.47 842.219 301.298 841.851C304.663 840.372 307.661 838.225 310.887 836.494C312.695 835.479 314.629 834.693 316.642 834.155V834.155Z" fill="#2F2E41"/>
<path opacity="0.1" d="M308.113 840.494C305.528 842.4 302.181 844.152 299.619 846.108C298.744 846.776 284.168 854.821 283.962 855.889C286.352 856.285 301.578 845.828 303.757 844.784C305.935 843.741 307.866 842.269 309.78 840.809C310.267 840.436 312.334 839.317 310.934 838.902C310.145 838.667 308.695 840.112 308.113 840.494Z" fill="black"/>
<path d="M282.221 782.052C290.309 782.052 296.865 775.671 296.865 767.799C296.865 759.928 290.309 753.547 282.221 753.547C274.134 753.547 267.578 759.928 267.578 767.799C267.578 775.671 274.134 782.052 282.221 782.052Z" fill="#FFB8B8"/>
<path d="M288.387 779.802C288.387 779.802 286.075 785.428 290.314 787.679C294.553 789.929 277.212 807.932 277.212 807.932L269.505 786.178C269.505 786.178 276.056 783.928 274.9 777.927L288.387 779.802Z" fill="#FFB8B8"/>
<path d="M278.753 795.18L288.086 785.152L300.718 791.429L298.791 835.687L295.709 839.063C295.709 839.063 282.607 850.315 262.568 840.938C262.568 840.938 255.632 835.312 256.017 826.685C256.403 818.059 255.247 816.934 255.247 816.934L254.861 786.553L273.887 782.919L278.753 795.18Z" fill="#7B61FF"/>
<path d="M235.961 842.903L233.582 850.038C233.582 850.038 222.123 861.561 226.267 864.684C230.412 867.807 239.71 851.343 239.71 851.343L241.424 843.288L235.961 842.903Z" fill="#FFB8B8"/>
<path d="M257.944 787.678L254.476 786.553C254.476 786.553 249.081 788.053 248.31 793.304C247.54 798.555 241.759 825.185 241.759 825.185C241.759 825.185 239.447 826.31 240.989 828.186C242.53 830.061 233.282 846.939 233.282 846.939L240.603 850.315C240.603 850.315 255.247 835.312 255.247 833.812C255.247 832.312 254.861 830.811 254.861 829.311C254.861 827.811 255.247 827.811 254.861 826.686C254.604 825.705 254.475 824.697 254.476 823.685L257.174 817.684L257.944 787.678Z" fill="#7B61FF"/>
<path d="M298.457 755.21L286.349 748.984L269.63 751.531L266.171 766.53L274.782 766.205L277.187 760.694V766.114L281.161 765.964L283.467 757.191L284.908 766.53L299.033 766.247L298.457 755.21Z" fill="#2F2E41"/>
<path d="M212.631 851.699V873.333H144.739C144.74 867.595 147.081 862.093 151.25 858.036C155.418 853.978 161.071 851.699 166.966 851.699C173.332 849.767 180.693 849.152 188.677 849.355C196.211 849.542 204.299 850.461 212.631 851.699Z" fill="#FF6584"/>
<path d="M202.933 868.613H234.858C235.394 868.613 235.908 868.82 236.287 869.189C236.666 869.558 236.879 870.058 236.879 870.58C236.879 871.102 236.666 871.602 236.287 871.971C235.908 872.339 235.394 872.547 234.858 872.547H202.933V868.613V868.613Z" fill="#3F3D56"/>
<path d="M208.462 833.185L217.019 823.088C217.216 822.688 217.534 822.356 217.93 822.135C218.326 821.915 218.782 821.817 219.237 821.855C219.691 821.893 220.123 822.065 220.475 822.348C220.827 822.63 221.082 823.01 221.206 823.438L224.581 835.034L208.462 833.185Z" fill="#3F3D56"/>
<path d="M198.083 838.326L201.316 825.622C201.316 825.178 201.455 824.744 201.714 824.379C201.974 824.014 202.341 823.734 202.768 823.577C203.195 823.42 203.66 823.393 204.103 823.5C204.546 823.607 204.945 823.842 205.247 824.175L213.44 833.213L198.083 838.326Z" fill="#FF6584"/>
<path d="M144.739 873.333H151.205V886.706C151.205 887.533 151.038 888.351 150.713 889.115C150.388 889.878 149.912 890.572 149.311 891.156C148.711 891.741 147.998 892.204 147.214 892.521C146.429 892.837 145.588 893 144.739 893V873.333V873.333Z" fill="#FF6584"/>
<path d="M201.72 869.4H233.646C234.182 869.4 234.695 869.607 235.074 869.976C235.453 870.345 235.666 870.845 235.666 871.367C235.666 871.888 235.453 872.388 235.074 872.757C234.695 873.126 234.182 873.333 233.646 873.333H201.72V869.4Z" fill="#FF6584"/>
<path opacity="0.2" d="M212.631 851.699V873.213C209.351 873.552 206.035 873.163 202.931 872.076C199.828 870.988 197.018 869.231 194.713 866.935C192.407 864.638 190.667 861.864 189.621 858.819C188.576 855.774 188.253 852.538 188.677 849.354C196.211 849.542 204.299 850.461 212.631 851.699Z" fill="black"/>
<path d="M212.631 873.333C224.683 873.333 234.453 863.824 234.453 852.093C234.453 840.363 224.683 830.853 212.631 830.853C200.579 830.853 190.809 840.363 190.809 852.093C190.809 863.824 200.579 873.333 212.631 873.333Z" fill="#FF6584"/>
<path d="M233.645 859.173C234.985 859.173 236.07 856.708 236.07 853.666C236.07 850.625 234.985 848.16 233.645 848.16C232.306 848.16 231.221 850.625 231.221 853.666C231.221 856.708 232.306 859.173 233.645 859.173Z" fill="#3F3D56"/>
<path d="M227.786 849.34C228.121 849.34 228.392 848.723 228.392 847.963C228.392 847.203 228.121 846.586 227.786 846.586C227.451 846.586 227.18 847.203 227.18 847.963C227.18 848.723 227.451 849.34 227.786 849.34Z" fill="#3F3D56"/>
<path d="M232.231 846.586C232.566 846.586 232.837 845.97 232.837 845.21C232.837 844.449 232.566 843.833 232.231 843.833C231.896 843.833 231.625 844.449 231.625 845.21C231.625 845.97 231.896 846.586 232.231 846.586Z" fill="#3F3D56"/>
<path d="M210.8 830.617C210.8 830.617 209.587 828.563 209.587 827.311Z" fill="#3F3D56"/>
<path d="M211.334 829.289C211.334 829.289 211.995 827.009 212.915 826.133Z" fill="#3F3D56"/>
<rect x="418" y="418" width="329" height="226" rx="3" fill="#D1ECE9" stroke="black" stroke-width="2"/>
<path d="M428.99 433.988C431.194 433.988 432.981 432.2 432.981 429.994C432.981 427.788 431.194 426 428.99 426C426.787 426 425 427.788 425 429.994C425 432.2 426.787 433.988 428.99 433.988Z" fill="#3F3D56"/>
<path d="M440.463 433.988C442.667 433.988 444.453 432.2 444.453 429.994C444.453 427.788 442.667 426 440.463 426C438.259 426 436.473 427.788 436.473 429.994C436.473 432.2 438.259 433.988 440.463 433.988Z" fill="#3F3D56"/>
<path d="M451.936 433.988C454.14 433.988 455.926 432.2 455.926 429.994C455.926 427.788 454.14 426 451.936 426C449.732 426 447.945 427.788 447.945 429.994C447.945 432.2 449.732 433.988 451.936 433.988Z" fill="#3F3D56"/>
<path d="M726.988 507.767C727.249 507.886 727.501 508.027 727.74 508.187L751.673 497.963L752.527 491.652L762.09 491.594L761.525 506.067L729.937 514.429C729.87 514.648 729.791 514.864 729.698 515.074C729.241 516.049 728.507 516.868 727.587 517.427C726.667 517.986 725.602 518.26 724.527 518.216C723.452 518.171 722.414 517.81 721.543 517.177C720.672 516.543 720.008 515.667 719.633 514.657C719.259 513.647 719.191 512.549 719.438 511.5C719.685 510.452 720.235 509.5 721.021 508.763C721.807 508.027 722.792 507.54 723.854 507.363C724.915 507.185 726.006 507.326 726.988 507.767V507.767Z" fill="#FFB8B8"/>
<path d="M765.568 638.92L759.026 638.92L755.914 613.663L765.569 613.664L765.568 638.92Z" fill="#FFB8B8"/>
<path d="M754.354 637.048H766.97V644.999H746.41C746.41 643.955 746.616 642.921 747.015 641.957C747.414 640.992 747.999 640.115 748.737 639.377C749.474 638.639 750.35 638.053 751.314 637.654C752.278 637.254 753.31 637.048 754.354 637.048V637.048Z" fill="#2F2E41"/>
<path d="M791.009 637.069L784.499 637.711L778.928 612.882L788.536 611.935L791.009 637.069Z" fill="#FFB8B8"/>
<path d="M779.666 636.308L792.221 635.07L793 642.983L772.539 645C772.437 643.961 772.54 642.912 772.843 641.913C773.146 640.914 773.642 639.984 774.304 639.177C774.966 638.37 775.78 637.701 776.7 637.209C777.62 636.716 778.628 636.41 779.666 636.308V636.308Z" fill="#2F2E41"/>
<path d="M767.389 464.864C774.627 464.864 780.494 458.991 780.494 451.746C780.494 444.502 774.627 438.628 767.389 438.628C760.151 438.628 754.283 444.502 754.283 451.746C754.283 458.991 760.151 464.864 767.389 464.864Z" fill="#FFB8B8"/>
<path d="M757.564 633.812C757.002 633.814 756.457 633.616 756.026 633.255C755.595 632.894 755.306 632.392 755.208 631.837C751.822 613.023 740.755 551.506 740.49 549.802C740.484 549.763 740.481 549.723 740.481 549.684V545.097C740.481 544.93 740.533 544.767 740.63 544.631L742.093 542.581C742.162 542.483 742.253 542.401 742.359 542.344C742.465 542.286 742.582 542.253 742.703 542.248C751.039 541.856 778.338 540.71 779.657 542.359C780.982 544.017 780.514 549.039 780.406 550.029L780.412 550.132L792.676 628.642C792.772 629.268 792.618 629.907 792.247 630.42C791.876 630.934 791.318 631.28 790.694 631.385L783.034 632.648C782.463 632.74 781.879 632.623 781.387 632.32C780.894 632.017 780.527 631.547 780.352 630.996C777.983 623.418 770.038 597.926 767.285 588.062C767.268 587.999 767.228 587.945 767.174 587.91C767.12 587.874 767.055 587.859 766.991 587.869C766.927 587.878 766.868 587.91 766.826 587.959C766.784 588.008 766.761 588.071 766.762 588.136C766.899 597.539 767.232 621.529 767.346 629.815L767.359 630.708C767.364 631.312 767.143 631.896 766.738 632.345C766.334 632.793 765.776 633.074 765.175 633.13L757.788 633.802C757.713 633.809 757.638 633.812 757.564 633.812Z" fill="#2F2E41"/>
<path d="M759.071 470.022C756.784 471.383 755.416 473.884 754.631 476.429C753.177 481.14 752.301 486.011 752.024 490.934L751.194 505.676L740.92 544.756C749.825 552.297 754.962 550.583 766.949 544.414C778.936 538.245 780.306 546.471 780.306 546.471L782.703 513.219L786.127 476.883C785.359 475.957 784.489 475.119 783.533 474.387C780.368 471.923 776.685 470.21 772.762 469.378C768.839 468.546 764.779 468.616 760.887 469.582L759.071 470.022Z" fill="#2A9D8F"/>
<path d="M755.734 515.659C756.01 515.763 756.278 515.889 756.535 516.035L780.198 504.179L780.591 497.757L790.352 497.083L790.876 511.724L759.252 522.192C758.994 523.301 758.404 524.304 757.562 525.069C756.721 525.835 755.666 526.325 754.539 526.476C753.411 526.626 752.265 526.43 751.252 525.912C750.239 525.395 749.407 524.581 748.868 523.579C748.328 522.577 748.106 521.434 748.231 520.303C748.356 519.171 748.822 518.105 749.568 517.245C750.313 516.385 751.302 515.773 752.404 515.49C753.505 515.206 754.667 515.265 755.734 515.659H755.734Z" fill="#FFB8B8"/>
<path d="M785.956 477.05C791.778 479.107 792.803 501.39 792.803 501.39C785.954 497.62 777.734 503.79 777.734 503.79C777.734 503.79 776.022 497.962 773.967 490.421C773.346 488.299 773.272 486.055 773.751 483.897C774.23 481.74 775.247 479.738 776.706 478.08C776.706 478.08 780.133 474.991 785.956 477.05Z" fill="#2A9D8F"/>
<path d="M779.14 455.215C777.507 453.908 775.279 456.285 775.279 456.285L773.973 444.516C773.973 444.516 765.808 445.495 760.583 444.19C755.358 442.884 754.541 448.93 754.541 448.93C754.272 446.488 754.217 444.027 754.378 441.575C754.704 438.633 758.95 435.691 766.461 433.729C773.973 431.768 777.891 440.267 777.891 440.267C783.117 442.882 780.772 456.523 779.14 455.215Z" fill="#2F2E41"/>
<path d="M732.302 543.774C732.386 542.36 732.434 540.936 732.434 539.501C732.434 520.803 725.013 502.871 711.804 489.649C698.595 476.428 680.68 469 662 469V543.774H732.302Z" fill="black"/>
<path d="M728.779 537.372C728.779 538.468 728.75 539.558 728.699 540.644H660.345V467.878C678.398 468.138 695.656 475.429 708.442 488.227C721.463 501.261 728.779 518.938 728.779 537.372Z" fill="#4063DE" stroke="black" stroke-width="2"/>
<path d="M653.009 548.054V549.054H654.009H723.24C722.24 562.213 717.516 574.824 709.611 585.405C701.493 596.269 690.377 604.518 677.632 609.135C664.888 613.751 651.072 614.533 637.889 611.383C624.705 608.234 612.731 601.292 603.442 591.412C594.154 581.533 587.957 569.148 585.616 555.785C583.275 542.422 584.892 528.665 590.269 516.211C595.645 503.757 604.546 493.151 615.872 485.7C626.92 478.433 639.804 474.477 653.009 474.287V548.054Z" fill="#E89A5E" stroke="black" stroke-width="2"/>
<path d="M555.601 561.737H451.414C451.308 561.737 451.206 561.695 451.132 561.62C451.057 561.545 451.015 561.443 451.015 561.337C451.015 561.23 451.057 561.129 451.132 561.053C451.206 560.978 451.308 560.936 451.414 560.936H555.601C555.707 560.936 555.809 560.978 555.884 561.053C555.958 561.129 556 561.23 556 561.337C556 561.443 555.958 561.545 555.884 561.62C555.809 561.695 555.707 561.737 555.601 561.737Z" fill="#8D8C8C"/>
<path d="M504.781 494.751L504.095 486.211C504.03 486.028 503.92 485.865 503.776 485.736C503.631 485.607 503.457 485.516 503.268 485.472C503.08 485.428 502.883 485.432 502.697 485.483C502.51 485.535 502.339 485.632 502.2 485.766C496.691 487.117 494.469 489.992 493.832 493.602C491.189 493.042 488.471 492.92 485.788 493.24C487.725 490.485 487.591 487.677 485.577 484.822C485.52 484.635 485.417 484.465 485.278 484.329C485.138 484.193 484.966 484.094 484.777 484.042C484.589 483.99 484.391 483.986 484.201 484.031C484.011 484.077 483.835 484.169 483.691 484.301C479.965 486.183 477.359 488.528 476.939 491.779C472.26 494.287 468.508 498.228 466.233 503.023C463.958 507.819 463.28 513.216 464.298 518.425C465.316 523.634 467.977 528.379 471.89 531.966C475.803 535.553 480.763 537.793 486.043 538.356C491.323 538.92 496.644 537.778 501.227 535.098C505.809 532.418 509.413 528.34 511.508 523.464C513.604 518.588 514.081 513.168 512.87 508.001C511.66 502.834 508.825 498.19 504.781 494.751H504.781Z" fill="#3F3D56"/>
<path d="M507.879 529.64C527.873 527.07 539.12 559.75 506.865 561.57C504.886 563.746 489.374 565.566 476.228 562.562C464.428 563.035 451.015 547.569 467.556 526.475L507.879 529.64Z" fill="#3F3D56"/>
<path d="M487.88 546.011V562.539H495.923L502.305 545.709" fill="#3F3D56"/>
<path d="M546.03 547.839C543.564 543.961 537.529 542.883 533.835 545.661C532.169 546.915 531.045 548.727 529.621 550.243C527.225 552.777 524.03 554.441 520.553 554.965C518.133 555.322 515.573 555.128 513.338 556.108C511.17 557.059 509.535 559.774 510.714 561.738C519.035 561.436 527.355 561.134 535.674 560.833C538.068 560.746 540.547 560.638 542.687 559.581C546.842 557.527 548.496 551.717 546.03 547.839Z" fill="#3F3D56"/>
<path d="M487.062 536.091C483.587 536.123 480.143 535.439 476.947 534.084C470.273 531.203 467.214 526.341 467.087 526.136C467.045 526.067 467.033 525.985 467.052 525.907C467.071 525.828 467.12 525.761 467.189 525.719C467.258 525.677 467.34 525.664 467.419 525.682C467.498 525.7 467.566 525.749 467.609 525.817C470.027 529.231 473.356 531.906 477.222 533.538C483.231 536.122 493.494 537.417 508.256 528.911C508.291 528.891 508.33 528.878 508.37 528.872C508.409 528.867 508.45 528.87 508.489 528.88C508.528 528.89 508.564 528.908 508.596 528.932C508.628 528.957 508.655 528.987 508.675 529.022C508.696 529.056 508.709 529.094 508.714 529.134C508.719 529.174 508.717 529.214 508.706 529.253C508.696 529.291 508.678 529.328 508.654 529.36C508.629 529.391 508.598 529.418 508.564 529.438V529.438C499.898 534.431 492.743 536.091 487.062 536.091Z" fill="white"/>
<path d="M488.28 520.865C487.749 520.865 487.239 520.643 486.864 520.248C486.488 519.853 486.277 519.318 486.276 518.76C486.277 518.681 486.307 518.605 486.361 518.548C486.414 518.492 486.487 518.461 486.563 518.461C486.638 518.461 486.711 518.492 486.764 518.548C486.818 518.605 486.848 518.681 486.849 518.76C486.849 519.158 487 519.54 487.269 519.822C487.537 520.103 487.901 520.261 488.28 520.261C488.659 520.261 489.023 520.103 489.291 519.822C489.559 519.54 489.71 519.158 489.711 518.76C489.711 518.681 489.742 518.605 489.795 518.548C489.849 518.492 489.922 518.461 489.997 518.461C490.073 518.461 490.145 518.492 490.199 518.548C490.253 518.605 490.283 518.681 490.283 518.76C490.283 519.318 490.072 519.853 489.696 520.248C489.32 520.643 488.811 520.865 488.28 520.865Z" fill="white"/>
<path d="M488.681 516.057C490.008 516.057 491.085 515.698 491.085 515.256C491.085 514.813 490.008 514.454 488.681 514.454C487.353 514.454 486.276 514.813 486.276 515.256C486.276 515.698 487.353 516.057 488.681 516.057Z" fill="white"/>
<path d="M472.052 515.255C472.762 514.409 473.651 513.728 474.655 513.261C475.659 512.794 476.754 512.552 477.862 512.552C478.971 512.552 480.065 512.794 481.069 513.261C482.073 513.728 482.962 514.409 483.673 515.255C484.877 514.112 485.713 512.639 486.075 511.023C486.438 509.408 486.31 507.721 485.709 506.177C485.108 504.633 484.06 503.302 482.698 502.35C481.336 501.399 479.721 500.87 478.057 500.832C476.394 500.793 474.756 501.247 473.351 502.134C471.946 503.022 470.837 504.304 470.165 505.818C469.492 507.333 469.286 509.012 469.573 510.642C469.86 512.273 470.626 513.783 471.775 514.98C471.865 515.074 471.957 515.166 472.052 515.255Z" fill="white"/>
<path d="M494.367 515.255C495.044 514.409 495.89 513.728 496.846 513.261C497.803 512.794 498.845 512.552 499.901 512.552C500.957 512.552 501.999 512.794 502.955 513.261C503.912 513.728 504.758 514.409 505.435 515.255C506.581 514.112 507.377 512.639 507.723 511.023C508.068 509.408 507.947 507.721 507.374 506.177C506.802 504.633 505.804 503.302 504.507 502.35C503.21 501.399 501.671 500.87 500.087 500.832C498.502 500.793 496.942 501.247 495.604 502.134C494.266 503.022 493.21 504.304 492.57 505.818C491.93 507.333 491.733 509.012 492.007 510.642C492.28 512.273 493.01 513.783 494.104 514.98C494.19 515.074 494.277 515.166 494.367 515.255Z" fill="white"/>
<path d="M474.657 512.851C476.206 512.851 477.461 511.595 477.461 510.046C477.461 508.497 476.206 507.241 474.657 507.241C473.107 507.241 471.852 508.497 471.852 510.046C471.852 511.595 473.107 512.851 474.657 512.851Z" fill="#3F3D56"/>
<path d="M496.294 512.851C497.843 512.851 499.099 511.595 499.099 510.046C499.099 508.497 497.843 507.241 496.294 507.241C494.745 507.241 493.489 508.497 493.489 510.046C493.489 511.595 494.745 512.851 496.294 512.851Z" fill="#3F3D56"/>
<path d="M500.301 520.865C501.85 520.865 503.106 519.789 503.106 518.461C503.106 517.133 501.85 516.057 500.301 516.057C498.752 516.057 497.496 517.133 497.496 518.461C497.496 519.789 498.752 520.865 500.301 520.865Z" fill="#FF6584"/>
<path d="M478.263 520.865C479.59 520.865 480.667 519.789 480.667 518.461C480.667 517.133 479.59 516.057 478.263 516.057C476.935 516.057 475.858 517.133 475.858 518.461C475.858 519.789 476.935 520.865 478.263 520.865Z" fill="#FF6584"/>
<path d="M451.519 561.206C452.512 560.587 451.811 557.672 449.955 554.695C448.099 551.717 445.79 549.805 444.797 550.424C443.805 551.042 444.505 553.958 446.361 556.935C448.217 559.913 450.526 561.825 451.519 561.206Z" fill="#3F3D56"/>
<path d="M461.778 540.901L447.809 554.948L451.451 560.936L464.638 553.413" fill="#3F3D56"/>
<path d="M485.211 567.068C485.383 565.911 482.708 564.556 479.237 564.042C475.766 563.529 472.813 564.05 472.642 565.207C472.471 566.364 475.146 567.718 478.617 568.232C482.088 568.746 485.04 568.225 485.211 567.068Z" fill="#3F3D56"/>
<path d="M475.858 546.511L478.057 565.924L485.292 567.348L487.88 552.581" fill="#3F3D56"/>
<path d="M506.557 566.667C510.045 566.29 512.771 565.041 512.645 563.878C512.52 562.716 509.59 562.079 506.101 562.456C502.613 562.834 499.887 564.082 500.013 565.245C500.139 566.408 503.069 567.045 506.557 566.667Z" fill="#3F3D56"/>
<path d="M498.298 545.709L505.466 564.142L512.723 563.789L511.325 548.74" fill="#3F3D56"/>
<rect x="419" y="442" width="327" height="2" fill="black"/>
</svg>
